<?xml version="1.0" standalone="no"?>
<!DOCTYPE svg PUBLIC "-//W3C//DTD SVG 1.1//EN" "http://www.w3.org/Graphics/SVG/1.1/DTD/svg11.dtd" >
<svg>
<metadata>
Created by FontForge 20120731 at Thu Mar 29 03:03:03 2018
 By www-data
</metadata>
<defs>
<font id="NanumSquareOTFL00" horiz-adv-x="910" vert-adv-y="1000" >
  <font-face 
    font-family="(null)"
    font-weight="200"
    font-stretch="normal"
    units-per-em="1000"
    panose-1="2 0 3 3 0 0 0 0 0 0"
    ascent="800"
    descent="-200"
    x-height="507"
    cap-height="695"
    bbox="-75 -249 1125 843"
    underline-thickness="50"
    underline-position="-100"
    unicode-range="U+0020-FFE6"
  />
<missing-glyph vert-adv-y="1105" 
d="M855 757v-900h-800v900h800zM790 -107l-335 385l-335 -385h670zM95 692v-768l334 384zM121 721l333 -384l334 384h-667zM815 -77v770l-334 -386z" />
    <glyph glyph-name=".notdef" vert-adv-y="1105" 
d="M855 757v-900h-800v900h800zM790 -107l-335 385l-335 -385h670zM95 692v-768l334 384zM121 721l333 -384l334 384h-667zM815 -77v770l-334 -386z" />
    <glyph glyph-name="space" unicode=" " horiz-adv-x="250" vert-adv-y="1105" 
 />
    <glyph glyph-name="exclam" unicode="!" horiz-adv-x="260" vert-adv-y="1105" 
d="M95 -50v84h70v-84h-70zM153 145h-46l-3 564h52z" />
    <glyph glyph-name="quotedbl" unicode="&#x22;" horiz-adv-x="356" vert-adv-y="1105" 
d="M134 488h-36l-8 238h52zM258 488h-36l-8 238h52z" />
    <glyph glyph-name="numbersign" unicode="#" horiz-adv-x="554" vert-adv-y="1105" 
d="M380 248h113v-38h-117l-34 -236h-38l34 236h-157l-33 -236h-39l34 236h-113v38h117l25 178h-111v38h116l33 231h38l-33 -231h156l33 231h39l-34 -231h115v-38h-119zM342 248l25 178h-157l-25 -178h157z" />
    <glyph glyph-name="dollar" unicode="$" horiz-adv-x="580" vert-adv-y="1105" 
d="M275 -93v78c-84 3 -164 28 -228 76l24 34c76 -57 150 -70 204 -71v301l-10 3c-184 43 -201 99 -201 169v23c0 114 112 159 211 163v68h36v-68c82 -4 148 -29 190 -59l-23 -32c-42 27 -97 49 -167 52v-285c171 -45 217 -81 217 -176v-26c0 -89 -79 -164 -217 -171v-79h-36
zM487 182c0 65 -27 96 -176 135v-292c109 7 176 63 176 133v24zM105 498c0 -62 23 -92 170 -130v276c-75 -4 -170 -38 -170 -125v-21z" />
    <glyph glyph-name="percent" unicode="%" horiz-adv-x="842" vert-adv-y="1105" 
d="M226 -25h-44l437 720h43zM220 700c94 0 150 -58 150 -163v-48c0 -105 -56 -163 -150 -163s-150 58 -150 163v48c0 105 56 163 150 163zM220 363c59 0 110 29 110 128v44c0 98 -51 128 -110 128s-110 -30 -110 -128v-44c0 -99 51 -128 110 -128zM622 340
c94 0 150 -58 150 -163v-48c0 -105 -56 -163 -150 -163s-150 58 -150 163v48c0 105 56 163 150 163zM622 3c59 0 110 29 110 128v44c0 98 -51 128 -110 128s-110 -30 -110 -128v-44c0 -99 51 -128 110 -128z" />
    <glyph glyph-name="ampersand" unicode="&#x26;" horiz-adv-x="651" vert-adv-y="1105" 
d="M575 -26l-80 92c-56 -64 -135 -103 -232 -103h-6c-121 0 -224 71 -224 168v25c0 96 50 136 198 217l-20 24c-46 54 -88 99 -88 160v15c0 61 51 134 167 134c110 0 166 -73 166 -132v-19c0 -67 -37 -119 -165 -192l202 -236c38 60 58 136 59 214h39
c-2 -95 -27 -180 -72 -245l105 -122h-49zM261 0c90 0 160 37 209 96l-214 248c-109 -61 -182 -98 -182 -192v-18c0 -72 79 -134 187 -134zM163 559c0 -56 45 -99 103 -167c114 64 151 107 151 167v11c0 57 -49 99 -127 99c-76 0 -127 -39 -127 -99v-11z" />
    <glyph glyph-name="quotesingle" unicode="'" horiz-adv-x="232" vert-adv-y="1105" 
d="M134 488h-36l-8 238h52z" />
    <glyph glyph-name="parenleft" unicode="(" horiz-adv-x="289" vert-adv-y="1105" 
d="M113 324v-50c0 -152 36 -303 139 -444h-42c-99 118 -146 280 -146 449v40c0 169 47 329 146 447h42c-98 -132 -139 -282 -139 -442z" />
    <glyph glyph-name="parenright" unicode=")" horiz-adv-x="289" vert-adv-y="1105" 
d="M176 274v50c0 160 -41 310 -139 442h42c99 -118 146 -278 146 -447v-40c0 -169 -47 -331 -146 -449h-42c103 141 139 292 139 444z" />
    <glyph glyph-name="asterisk" unicode="*" horiz-adv-x="445" vert-adv-y="1105" 
d="M207 506l-141 -88l-21 37l150 79l-150 78l21 37l141 -88l-8 168h46l-7 -168l142 88l20 -37l-150 -78l150 -79l-20 -37l-142 88l7 -167h-46z" />
    <glyph glyph-name="plus" unicode="+" horiz-adv-x="600" vert-adv-y="1105" 
d="M278 565h44v-224h218v-42h-218v-238h-44v238h-218v42h218v224z" />
    <glyph glyph-name="comma" unicode="," horiz-adv-x="196" vert-adv-y="1105" 
d="M39 -175l36 223h67l-59 -223h-44z" />
    <glyph glyph-name="hyphen" unicode="-" horiz-adv-x="404" vert-adv-y="1105" 
d="M53 312v44h298v-44h-298z" />
    <glyph glyph-name="period" unicode="." horiz-adv-x="196" vert-adv-y="1105" 
d="M58 -44v86h80v-86h-80z" />
    <glyph glyph-name="slash" unicode="/" horiz-adv-x="344" vert-adv-y="1105" 
d="M300 757h44l-300 -879h-44z" />
    <glyph glyph-name="zero" unicode="0" horiz-adv-x="590" vert-adv-y="1105" 
d="M530 391v-112c0 -204 -67 -316 -237 -316c-168 0 -233 114 -233 316v112c0 202 68 315 233 315c167 0 237 -113 237 -315zM487 278v114c0 177 -52 274 -194 274c-138 0 -190 -98 -190 -274v-114c0 -178 52 -275 190 -275c142 0 194 96 194 275z" />
    <glyph glyph-name="one" unicode="1" horiz-adv-x="590" vert-adv-y="1105" 
d="M368 -26h-44v661l-202 -122l-20 35l240 147h26v-721z" />
    <glyph glyph-name="two" unicode="2" horiz-adv-x="590" vert-adv-y="1105" 
d="M85 11l304 356c65 76 70 108 70 155v8c0 84 -55 136 -158 136c-75 0 -134 -34 -181 -118l-36 21c37 69 102 137 215 137c121 0 203 -66 203 -174v-10c0 -66 -21 -108 -82 -181l-275 -325h384v-42h-444v37z" />
    <glyph glyph-name="three" unicode="3" horiz-adv-x="590" vert-adv-y="1105" 
d="M130 570l-35 24c31 54 99 112 204 112c125 0 208 -72 208 -180v-10c0 -57 -28 -130 -131 -164c101 -17 159 -82 159 -167v-15c0 -100 -60 -207 -237 -207c-84 0 -163 26 -231 80l25 37c69 -56 142 -76 206 -76c147 0 193 96 193 165v13c0 126 -119 148 -185 148h-80v40
h78c65 0 159 40 159 149v8c0 81 -60 138 -163 138c-60 0 -123 -21 -170 -95z" />
    <glyph glyph-name="four" unicode="4" horiz-adv-x="590" vert-adv-y="1105" 
d="M415 422h44v-238h112v-43h-112v-167h-44v167h-368v43l361 511h52l-362 -511h317v238z" />
    <glyph glyph-name="five" unicode="5" horiz-adv-x="590" vert-adv-y="1105" 
d="M493 174v17c0 125 -66 180 -180 180c-73 0 -119 -31 -154 -66h-50l23 390h360v-41h-320l-17 -305c34 34 95 63 163 63c128 0 219 -74 219 -218v-19c0 -97 -60 -212 -237 -212c-84 0 -163 26 -231 80l25 37c69 -56 142 -76 206 -76c147 0 193 101 193 170z" />
    <glyph glyph-name="six" unicode="6" horiz-adv-x="590" vert-adv-y="1105" 
d="M510 657l-19 -35c-47 29 -94 44 -156 44c-162 0 -212 -144 -223 -356c31 75 113 119 200 119c134 0 223 -83 223 -219v-22c0 -146 -103 -225 -228 -225c-123 0 -237 85 -237 298v18c0 303 95 427 262 427c75 0 138 -24 178 -49zM120 214v-6c0 -123 82 -205 187 -205
c103 0 184 64 184 186v13c0 120 -64 189 -182 189c-113 0 -189 -80 -189 -177z" />
    <glyph glyph-name="seven" unicode="7" horiz-adv-x="590" vert-adv-y="1105" 
d="M539 664l-304 -690h-49l304 680h-423v41h472v-31z" />
    <glyph glyph-name="eight" unicode="8" horiz-adv-x="590" vert-adv-y="1105" 
d="M129 524v-13c0 -85 62 -150 167 -150c104 0 165 65 165 150v13c0 80 -61 142 -166 142c-109 0 -166 -62 -166 -142zM108 165v-13c0 -80 67 -149 187 -149c122 0 187 69 187 149v13c0 96 -76 159 -187 159c-108 0 -187 -60 -187 -159zM66 153v17c0 79 51 148 144 172
c-69 30 -121 84 -121 170v18c0 103 88 176 206 176s206 -73 206 -176v-18c0 -86 -53 -142 -123 -170c96 -25 146 -93 146 -172v-17c0 -115 -96 -190 -229 -190s-229 75 -229 190z" />
    <glyph glyph-name="nine" unicode="9" horiz-adv-x="590" vert-adv-y="1105" 
d="M86 12l19 35c47 -29 94 -44 156 -44c162 0 217 117 223 353c-31 -75 -113 -119 -200 -119c-134 0 -223 83 -223 219v25c0 146 103 225 228 225c127 0 237 -83 237 -296v-25c0 -325 -99 -422 -262 -422c-75 0 -138 24 -178 49zM476 452v9c0 125 -78 205 -187 205
c-103 0 -184 -64 -184 -186v-16c0 -120 64 -189 182 -189c113 0 189 80 189 177z" />
    <glyph glyph-name="colon" unicode=":" horiz-adv-x="256" vert-adv-y="1105" 
d="M86 32v90h84v-90h-84zM86 470v90h84v-90h-84z" />
    <glyph glyph-name="semicolon" unicode=";" horiz-adv-x="256" vert-adv-y="1105" 
d="M86 470v90h84v-90h-84zM62 -95l36 223h67l-59 -223h-44z" />
    <glyph glyph-name="less" unicode="&#x3c;" horiz-adv-x="590" vert-adv-y="1105" 
d="M109 323v-2l424 -224v-47l-468 252v39l468 252v-47z" />
    <glyph glyph-name="equal" unicode="=" horiz-adv-x="590" vert-adv-y="1105" 
d="M74 403v45h442v-45h-442zM74 192v45h442v-45h-442z" />
    <glyph glyph-name="greater" unicode="&#x3e;" horiz-adv-x="590" vert-adv-y="1105" 
d="M481 321v2l-424 223v47l468 -252v-39l-468 -252v47z" />
    <glyph glyph-name="question" unicode="?" horiz-adv-x="498" vert-adv-y="1105" 
d="M247 141h-44v48c0 141 200 189 200 319v19c0 93 -74 137 -157 137c-72 0 -125 -27 -174 -79l-29 29c39 43 108 92 201 92c125 0 203 -69 203 -178v-20c0 -154 -200 -194 -200 -322v-45zM190 -50v84h70v-84h-70z" />
    <glyph glyph-name="at" unicode="@" horiz-adv-x="973" vert-adv-y="1105" 
d="M748 48c-53 0 -104 27 -123 87h-1c-28 -64 -109 -85 -156 -85c-113 0 -176 71 -176 192v77c0 122 74 191 179 191c60 0 120 -24 145 -64v56h45v-330c0 -56 45 -82 88 -82c66 0 128 50 128 204v14c0 229 -128 384 -400 384c-230 0 -382 -155 -382 -396v-17
c0 -247 139 -411 401 -411c105 0 210 22 294 67l17 -38c-83 -45 -189 -70 -308 -70c-273 0 -447 170 -447 451v19c0 252 160 436 425 436c291 0 443 -174 443 -422v-14c0 -108 -34 -249 -172 -249zM336 314v-67c0 -118 56 -156 139 -156c90 0 142 62 142 143v126
c0 54 -59 109 -142 109c-89 0 -139 -58 -139 -155z" />
    <glyph glyph-name="A" unicode="A" horiz-adv-x="625" vert-adv-y="1105" 
d="M562 -26l-86 233h-326l-88 -233h-48l278 721h44l275 -721h-49zM254 479l-89 -233h296l-86 233c-21 58 -44 113 -61 169c-16 -56 -38 -111 -60 -169z" />
    <glyph glyph-name="B" unicode="B" horiz-adv-x="606" vert-adv-y="1105" 
d="M88 -26v721h223c151 0 220 -57 220 -175v-23c0 -63 -32 -123 -118 -144c96 -13 151 -63 151 -163v-27c0 -118 -64 -189 -220 -189h-256zM131 332v-318h217c114 0 171 48 171 149v24c0 94 -54 145 -198 145h-190zM315 655h-184v-284h189c100 0 167 39 167 129v20
c0 85 -46 135 -172 135z" />
    <glyph glyph-name="C" unicode="C" horiz-adv-x="611" vert-adv-y="1105" 
d="M545 78l26 -33c-29 -26 -105 -82 -228 -82c-202 0 -283 137 -283 343v77c0 198 92 323 271 323c93 0 169 -28 222 -67l-24 -34c-59 40 -112 59 -198 59c-145 0 -226 -105 -226 -269v-100c0 -189 83 -290 240 -290c95 0 166 43 200 73z" />
    <glyph glyph-name="D" unicode="D" horiz-adv-x="648" vert-adv-y="1105" 
d="M88 695h213c185 0 287 -110 287 -309v-103c0 -199 -115 -309 -287 -309h-213v721zM132 653v-637h174c130 0 237 89 237 267v98c0 182 -87 272 -238 272h-173z" />
    <glyph glyph-name="E" unicode="E" horiz-adv-x="585" vert-adv-y="1105" 
d="M88 695h421v-41h-377v-290h356v-40h-356v-309h384v-41h-428v721z" />
    <glyph glyph-name="F" unicode="F" horiz-adv-x="554" vert-adv-y="1105" 
d="M88 695h412v-41h-368v-309h347v-40h-347v-331h-44v721z" />
    <glyph glyph-name="G" unicode="G" horiz-adv-x="636" vert-adv-y="1105" 
d="M533 50v257h-180v42h223v-324c-29 -26 -111 -62 -228 -62c-202 0 -288 137 -288 343v77c0 198 97 323 276 323c93 0 172 -28 225 -67l-24 -34c-59 40 -115 59 -201 59c-145 0 -231 -105 -231 -269v-100c0 -189 88 -290 245 -290c69 0 142 16 183 45z" />
    <glyph glyph-name="H" unicode="H" horiz-adv-x="667" vert-adv-y="1105" 
d="M535 695h44v-721h-44v358h-403v-358h-44v721h44v-322h403v322z" />
    <glyph glyph-name="I" unicode="I" horiz-adv-x="220" vert-adv-y="1105" 
d="M88 695h44v-721h-44v721z" />
    <glyph glyph-name="J" unicode="J" horiz-adv-x="434" vert-adv-y="1105" 
d="M352 695v-545c0 -134 -76 -187 -177 -187c-61 0 -117 17 -161 51l22 35c43 -33 89 -46 137 -46c92 0 135 50 135 148v544h44z" />
    <glyph glyph-name="K" unicode="K" horiz-adv-x="627" vert-adv-y="1105" 
d="M575 695l-298 -305l316 -416h-54l-293 385l-114 -117v-268h-44v721h44v-397l383 397h60z" />
    <glyph glyph-name="L" unicode="L" horiz-adv-x="530" vert-adv-y="1105" 
d="M88 695h44v-680h374v-41h-418v721z" />
    <glyph glyph-name="M" unicode="M" horiz-adv-x="816" vert-adv-y="1105" 
d="M390 94l-203 413c-21 41 -40 81 -56 118v-651h-43v721h50l272 -551l266 551h52v-721h-43v643c-19 -44 -37 -80 -59 -123l-198 -400h-38z" />
    <glyph glyph-name="N" unicode="N" horiz-adv-x="669" vert-adv-y="1105" 
d="M88 695h60l359 -611c8 -13 23 -44 31 -61v672h43v-721h-60l-359 611c-11 19 -23 44 -31 61v-672h-43v721z" />
    <glyph glyph-name="O" unicode="O" horiz-adv-x="674" vert-adv-y="1105" 
d="M614 380v-91c0 -190 -93 -326 -277 -326s-277 136 -277 326v91c0 190 93 326 277 326s277 -136 277 -326zM569 290v89c0 186 -89 286 -232 286s-232 -100 -232 -286v-89c0 -186 89 -286 232 -286s232 100 232 286z" />
    <glyph glyph-name="P" unicode="P" horiz-adv-x="579" vert-adv-y="1105" 
d="M88 -26v721h225c151 0 232 -71 232 -204v-22c0 -135 -84 -205 -235 -205h-178v-290h-44zM313 654h-181v-349h173c144 0 195 64 195 165v19c0 99 -51 165 -187 165z" />
    <glyph glyph-name="Q" unicode="Q" horiz-adv-x="669" vert-adv-y="1105" 
d="M608 380v-91c0 -98 -24 -182 -73 -240l85 -84l-30 -31l-85 85c-43 -36 -100 -56 -171 -56c-184 0 -274 136 -274 326v91c0 190 90 326 274 326s274 -136 274 -326zM563 290v89c0 186 -86 286 -229 286s-229 -100 -229 -286v-89c0 -186 86 -286 229 -286
c56 0 104 15 141 45l-108 109l30 31l108 -109c37 48 58 119 58 210z" />
    <glyph glyph-name="R" unicode="R" horiz-adv-x="611" vert-adv-y="1105" 
d="M88 -26v721h219c145 0 237 -53 237 -186v-22c0 -101 -53 -160 -141 -183l159 -330h-47l-156 321c-17 -2 -36 -3 -55 -3h-172v-318h-44zM307 654h-175v-321h167c138 0 200 54 200 155v19c0 99 -62 147 -192 147z" />
    <glyph glyph-name="S" unicode="S" horiz-adv-x="582" vert-adv-y="1105" 
d="M293 5c124 0 196 67 196 141v26c0 81 -27 114 -218 155c-184 40 -200 110 -200 180v25c0 120 117 174 225 174c95 0 166 -25 211 -58l-21 -36c-46 30 -109 52 -190 52c-85 0 -181 -40 -181 -133v-23c0 -63 20 -106 175 -141c194 -45 243 -79 243 -194v-28
c0 -94 -86 -182 -239 -182c-88 0 -172 26 -240 76l22 37c88 -62 160 -71 217 -71z" />
    <glyph glyph-name="T" unicode="T" horiz-adv-x="568" vert-adv-y="1105" 
d="M306 -26h-44v680h-240v41h524v-41h-240v-680z" />
    <glyph glyph-name="U" unicode="U" horiz-adv-x="666" vert-adv-y="1105" 
d="M333 4c113 0 207 61 207 257v434h44v-448c0 -186 -98 -284 -251 -284s-251 98 -251 284v448h44v-434c0 -196 94 -257 207 -257z" />
    <glyph glyph-name="V" unicode="V" horiz-adv-x="614" vert-adv-y="1105" 
d="M18 695h49l242 -668l240 668h47l-263 -721h-51z" />
    <glyph glyph-name="W" unicode="W" horiz-adv-x="950" vert-adv-y="1105" 
d="M870 695h44l-202 -721h-52l-186 665l-184 -665h-52l-202 721h47l181 -663l186 663h50l187 -662z" />
    <glyph glyph-name="X" unicode="X" horiz-adv-x="603" vert-adv-y="1105" 
d="M565 695l-228 -346l242 -375h-54l-219 346l-230 -346h-52l254 373l-241 348h52l219 -321l207 321h50z" />
    <glyph glyph-name="Y" unicode="Y" horiz-adv-x="584" vert-adv-y="1105" 
d="M560 695l-243 -422v-299h-44v299l-249 422h47l225 -382l216 382h48z" />
    <glyph glyph-name="Z" unicode="Z" horiz-adv-x="594" vert-adv-y="1105" 
d="M535 695v-35l-449 -646h468v-40h-522v35l449 646h-424v40h478z" />
    <glyph glyph-name="bracketleft" unicode="[" horiz-adv-x="323" vert-adv-y="1105" 
d="M286 -132v-38h-206v936h206v-38h-165v-860h165z" />
    <glyph glyph-name="backslash" unicode="\" horiz-adv-x="935" vert-adv-y="1105" 
d="M45 353v38h109l-76 304h44l73 -304h178l77 304h48l77 -304h180l74 304h41l-76 -304h112v-38h-122l-94 -379h-49l-96 379h-144l-94 -379h-49l-95 379h-118zM585 353l82 -322l78 322h-160zM204 353l78 -323l81 323h-159zM473 641l-62 -250h125z" />
    <glyph glyph-name="bracketright" unicode="]" horiz-adv-x="323" vert-adv-y="1105" 
d="M37 -170v38h165v860h-165v38h206v-936h-206z" />
    <glyph glyph-name="asciicircum" unicode="^" horiz-adv-x="524" vert-adv-y="1105" 
d="M470 401h-46l-162 281l-162 -281h-46l189 323h39z" />
    <glyph glyph-name="underscore" unicode="_" horiz-adv-x="460" vert-adv-y="1105" 
d="M460 -75v-43h-460v43h460z" />
    <glyph glyph-name="grave" unicode="`" horiz-adv-x="590" vert-adv-y="1105" 
d="M371 571h-42l-112 134h53z" />
    <glyph glyph-name="a" unicode="a" horiz-adv-x="520" vert-adv-y="1105" 
d="M228 -34c-99 0 -174 53 -174 154v15c0 81 56 145 181 145h163v65c0 87 -48 134 -142 134c-58 0 -109 -21 -158 -54l-21 33c47 33 109 60 182 60c111 0 182 -61 182 -171v-373h-43v75h-1c-10 -19 -29 -41 -56 -56c-29 -16 -64 -27 -113 -27zM398 129v114h-162
c-102 0 -137 -49 -137 -107v-16c0 -87 69 -116 132 -116c35 0 66 5 97 21c42 21 70 61 70 104z" />
    <glyph glyph-name="b" unicode="b" horiz-adv-x="566" vert-adv-y="1105" 
d="M129 730v-310c27 54 90 98 172 98c127 0 205 -80 205 -227v-98c0 -148 -87 -227 -212 -227c-64 0 -134 27 -166 76v-68h-42v756h43zM128 315v-181c0 -69 68 -129 168 -129s167 69 167 194v86c0 126 -55 194 -166 194c-78 0 -169 -59 -169 -164z" />
    <glyph glyph-name="c" unicode="c" horiz-adv-x="488" vert-adv-y="1105" 
d="M273 518c62 0 125 -16 170 -50l-19 -33c-49 33 -98 44 -151 44c-113 0 -170 -80 -170 -196v-76c0 -120 56 -202 174 -202c75 0 128 23 164 53l21 -33c-37 -31 -100 -59 -186 -59c-130 0 -216 80 -216 242v72c0 144 78 238 213 238z" />
    <glyph glyph-name="d" unicode="d" horiz-adv-x="566" vert-adv-y="1105" 
d="M438 -26v90c-27 -54 -92 -98 -174 -98c-128 0 -204 80 -204 227v98c0 148 88 227 212 227c64 0 133 -27 165 -76v288h43v-756h-42zM438 169v181c0 69 -68 129 -168 129s-167 -69 -167 -194v-86c0 -126 55 -194 166 -194c78 0 169 59 169 164z" />
    <glyph glyph-name="e" unicode="e" horiz-adv-x="545" vert-adv-y="1105" 
d="M274 480c-106 0 -172 -77 -172 -203v-10h342c0 140 -59 213 -170 213zM281 4c75 0 136 23 172 53l21 -32c-37 -31 -106 -59 -192 -59c-152 0 -222 103 -222 240v76c0 140 82 236 214 236c141 0 212 -99 212 -246v-40h-384v-19c0 -137 68 -209 179 -209z" />
    <glyph glyph-name="f" unicode="f" horiz-adv-x="341" vert-adv-y="1105" 
d="M116 -26v497h-92v36h92v80c0 124 73 149 138 149c26 0 56 -5 73 -11l-6 -35c-21 6 -40 9 -66 9c-69 0 -95 -39 -95 -114v-78h151v-36h-151v-497h-44z" />
    <glyph glyph-name="g" unicode="g" horiz-adv-x="568" vert-adv-y="1105" 
d="M440 179v171c0 69 -68 129 -168 129s-167 -69 -167 -194v-76c0 -126 55 -194 166 -194c78 0 169 59 169 164zM439 74c-27 -54 -91 -98 -173 -98c-128 0 -204 80 -204 227v88c0 148 88 227 212 227c64 0 134 -27 166 -76v65h42v-537c0 -158 -90 -217 -198 -217
c-75 0 -126 19 -176 54l22 35c52 -36 96 -50 149 -50c86 0 160 46 160 178v104z" />
    <glyph glyph-name="h" unicode="h" horiz-adv-x="569" vert-adv-y="1105" 
d="M489 341v-367h-43v354c0 93 -40 151 -149 151c-115 0 -168 -95 -168 -143v-362h-43v756h43v-305c19 37 75 93 175 93c134 0 185 -85 185 -177z" />
    <glyph glyph-name="i" unicode="i" horiz-adv-x="219" vert-adv-y="1105" 
d="M88 507h43v-533h-43v533zM84 682h51v-59h-51v59z" />
    <glyph glyph-name="j" unicode="j" horiz-adv-x="216" vert-adv-y="1105" 
d="M128 507v-609c0 -124 -53 -145 -126 -145c-23 0 -54 5 -77 13l8 36c26 -8 49 -12 72 -12c64 0 80 30 80 112v605h43zM81 682h51v-59h-51v59z" />
    <glyph glyph-name="k" unicode="k" horiz-adv-x="516" vert-adv-y="1105" 
d="M470 507l-207 -200l233 -333h-51l-212 303l-104 -100v-203h-43v756h43v-498l282 275h59z" />
    <glyph glyph-name="l" unicode="l" horiz-adv-x="215" vert-adv-y="1105" 
d="M86 730h43v-756h-43v756z" />
    <glyph glyph-name="m" unicode="m" horiz-adv-x="859" vert-adv-y="1105" 
d="M779 341v-367h-43v354c0 92 -30 151 -131 151c-107 0 -151 -91 -151 -139v-366h-43v354c0 92 -31 151 -132 151c-107 0 -150 -95 -150 -143v-362h-43v533h42v-82c19 37 65 93 158 93c90 0 137 -44 156 -103c26 56 85 103 170 103c125 0 167 -86 167 -177z" />
    <glyph glyph-name="n" unicode="n" horiz-adv-x="569" vert-adv-y="1105" 
d="M489 341v-367h-43v354c0 93 -40 151 -149 151c-115 0 -168 -95 -168 -143v-362h-43v533h42v-82c19 37 76 93 176 93c134 0 185 -85 185 -177z" />
    <glyph glyph-name="o" unicode="o" horiz-adv-x="558" vert-adv-y="1105" 
d="M279 518c138 0 219 -89 219 -241v-70c0 -152 -81 -241 -219 -241s-219 89 -219 241v70c0 153 81 241 219 241zM279 3c108 0 176 66 176 204v70c0 138 -68 204 -176 204s-176 -66 -176 -204v-70c0 -138 68 -204 176 -204z" />
    <glyph glyph-name="p" unicode="p" horiz-adv-x="566" vert-adv-y="1105" 
d="M128 507v-87c27 54 91 98 173 98c127 0 205 -80 205 -227v-98c0 -148 -87 -227 -212 -227c-64 0 -133 27 -165 76v-282h-43v747h42zM127 315v-181c0 -69 69 -129 169 -129s167 69 167 194v86c0 126 -55 194 -166 194c-78 0 -170 -59 -170 -164z" />
    <glyph glyph-name="q" unicode="q" horiz-adv-x="566" vert-adv-y="1105" 
d="M437 -240v304c-27 -54 -91 -98 -173 -98c-128 0 -204 80 -204 227v98c0 148 88 227 212 227c64 0 134 -27 166 -76v65h42v-747h-43zM439 169v181c0 69 -69 129 -169 129s-167 -69 -167 -194v-86c0 -126 55 -194 166 -194c78 0 170 59 170 164z" />
    <glyph glyph-name="r" unicode="r" horiz-adv-x="375" vert-adv-y="1105" 
d="M359 506l-13 -40c-17 6 -38 10 -64 10c-102 0 -153 -86 -153 -202v-300h-43v533h42v-103c19 57 71 114 157 114c30 0 53 -4 74 -12z" />
    <glyph glyph-name="s" unicode="s" horiz-adv-x="493" vert-adv-y="1105" 
d="M248 4c102 0 158 49 158 103v13c0 71 -40 89 -168 113c-100 19 -171 52 -171 136v16c0 73 63 133 185 133c84 0 145 -24 178 -49l-18 -31c-54 33 -98 42 -164 42c-90 0 -140 -37 -140 -96v-13c0 -65 65 -85 150 -101c132 -25 186 -52 186 -147v-18
c0 -91 -92 -139 -192 -139c-82 0 -153 28 -198 62l21 34c49 -35 114 -58 173 -58z" />
    <glyph glyph-name="t" unicode="t" horiz-adv-x="364" vert-adv-y="1105" 
d="M117 116v355h-93v36h93v138h43v-138h151v-36h-151v-344c0 -79 14 -120 82 -120c31 0 54 4 79 11l7 -35c-20 -7 -58 -13 -82 -13c-74 0 -129 22 -129 146z" />
    <glyph glyph-name="u" unicode="u" horiz-adv-x="564" vert-adv-y="1105" 
d="M80 143v364h43v-352c0 -62 15 -151 139 -151c119 0 173 96 173 136v367h43v-533h-42v84c-13 -29 -80 -92 -172 -92c-140 0 -184 85 -184 177z" />
    <glyph glyph-name="v" unicode="v" horiz-adv-x="481" vert-adv-y="1105" 
d="M243 26l174 481h45l-199 -533h-42l-202 533h46z" />
    <glyph glyph-name="w" unicode="w" horiz-adv-x="741" vert-adv-y="1105" 
d="M547 26l128 481h42l-149 -533h-42l-155 481l-150 -481h-45l-152 533h44l131 -481l150 481h43z" />
    <glyph glyph-name="x" unicode="x" horiz-adv-x="485" vert-adv-y="1105" 
d="M453 507l-181 -258l194 -275h-54l-168 246l-172 -246h-53l196 271l-181 262h51l159 -233l158 233h51z" />
    <glyph glyph-name="y" unicode="y" horiz-adv-x="482" vert-adv-y="1105" 
d="M244 21l173 486h46l-278 -753l-40 14l75 199l-201 540h45z" />
    <glyph glyph-name="z" unicode="z" horiz-adv-x="491" vert-adv-y="1105" 
d="M434 507v-30l-342 -467h355v-36h-408v30l342 467h-322v36h375z" />
    <glyph glyph-name="braceleft" unicode="{" horiz-adv-x="389" vert-adv-y="1105" 
d="M142 -45v245c0 62 -41 87 -114 88v45c73 1 114 26 114 86v222c0 94 51 125 132 125h79v-38h-78c-57 0 -92 -16 -92 -84v-217c0 -53 -18 -101 -88 -117c68 -15 88 -61 88 -117v-241c0 -68 35 -84 92 -84h78v-38h-79c-81 0 -132 31 -132 125z" />
    <glyph glyph-name="bar" unicode="|" horiz-adv-x="268" vert-adv-y="1105" 
d="M153 765v-935h-38v935h38z" />
    <glyph glyph-name="braceright" unicode="}" horiz-adv-x="389" vert-adv-y="1105" 
d="M247 200v-245c0 -94 -51 -125 -132 -125h-79v38h78c57 0 92 16 92 84v241c0 56 20 102 88 117c-70 16 -88 64 -88 117v217c0 68 -35 84 -92 84h-78v38h79c81 0 132 -31 132 -125v-222c0 -60 41 -85 114 -86v-45c-73 -1 -114 -26 -114 -88z" />
    <glyph glyph-name="asciitilde" unicode="~" horiz-adv-x="600" vert-adv-y="1105" 
d="M397 247c-92 0 -118 112 -196 112c-69 0 -90 -77 -95 -115h-38c9 68 46 151 134 151c97 0 124 -112 196 -112c75 0 93 72 97 115h38c-6 -61 -36 -151 -136 -151z" />
    <glyph glyph-name="uni20A9" unicode="&#x20a9;" horiz-adv-x="935" vert-adv-y="1105" 
d="M45 353v38h109l-76 304h44l73 -304h178l77 304h48l77 -304h180l74 304h41l-76 -304h112v-38h-122l-94 -379h-49l-96 379h-144l-94 -379h-49l-95 379h-118zM585 353l82 -322l78 322h-160zM204 353l78 -323l81 323h-159zM473 641l-62 -250h125z" />
    <glyph glyph-name="uni2010" unicode="&#x2010;" horiz-adv-x="417" vert-adv-y="1105" 
d="M38 266v49h341v-49h-341z" />
    <glyph glyph-name="copyright" unicode="&#xa9;" horiz-adv-x="856" vert-adv-y="1105" 
d="M430 545c55 0 100 -15 135 -42l-21 -33c-36 26 -76 34 -114 34c-81 0 -125 -57 -125 -142v-52c0 -91 44 -147 126 -147c56 0 93 18 122 40l21 -34c-29 -22 -70 -47 -142 -47c-105 0 -172 68 -172 187v50c0 119 71 186 170 186zM420 3c184 0 322 142 322 332
c0 188 -138 330 -322 330s-322 -142 -322 -330c0 -190 138 -332 322 -332zM420 -33c-209 0 -360 162 -360 368c0 204 151 366 360 366s360 -162 360 -366c0 -206 -151 -368 -360 -368z" />
    <glyph glyph-name="Korea1.99" horiz-adv-x="717" vert-adv-y="1105" 
d="M341 369v326h56l105 -222h1l102 222h57v-326h-37v286h-1l-102 -220h-39l-105 220h-1v-286h-36zM143 369v290h-113v36h264v-36h-113v-290h-38z" />
    <glyph glyph-name="Korea1.100" vert-adv-y="1105" 
d="M147 -47v90h84v-90h-84zM679 -47v90h84v-90h-84zM413 -47v90h84v-90h-84z" />
    <glyph glyph-name="uni3164" unicode="&#x3164;" vert-adv-y="1105" 
 />
    <glyph glyph-name="uni3001" unicode="&#x3001;" vert-adv-y="1105" 
d="M317 -58l-53 -46c-67 91 -108 136 -188 199l46 38c85 -64 125 -103 195 -191z" />
    <glyph glyph-name="uni3002" unicode="&#x3002;" vert-adv-y="1105" 
d="M174 173c78 0 137 -56 137 -137c0 -80 -59 -138 -137 -138s-137 58 -137 138c0 81 59 137 137 137zM174 -64c66 0 97 45 97 100c0 53 -31 99 -97 99s-97 -46 -97 -99c0 -55 31 -100 97 -100z" />
    <glyph glyph-name="uni30FB" unicode="&#x30fb;" horiz-adv-x="421" vert-adv-y="1105" 
d="M169 259v90h84v-90h-84z" />
    <glyph glyph-name="twodotenleader" unicode="&#x2025;" vert-adv-y="1105" 
d="M267 259v90h84v-90h-84zM558 259v90h84v-90h-84z" />
    <glyph glyph-name="uni22EF" unicode="&#x22ef;" vert-adv-y="1105" 
d="M147 259v90h84v-90h-84zM679 259v90h84v-90h-84zM413 259v90h84v-90h-84z" />
    <glyph glyph-name="dieresis" unicode="&#xa8;" horiz-adv-x="691" vert-adv-y="1105" 
d="M242 602v60h54v-60h-54zM395 602v60h54v-60h-54z" />
    <glyph glyph-name="uni3003" unicode="&#x3003;" vert-adv-y="1105" 
d="M448 140l134 304h55l-149 -304h-40zM408 444h55l-150 -304h-40z" />
    <glyph glyph-name="endash" unicode="&#x2013;" horiz-adv-x="399" vert-adv-y="1105" 
d="M399 333v-46h-399v46h399z" />
    <glyph glyph-name="emdash" unicode="&#x2014;" horiz-adv-x="798" vert-adv-y="1105" 
d="M798 333v-46h-798v46h798z" />
    <glyph glyph-name="uni2016" unicode="&#x2016;" vert-adv-y="1105" 
d="M395 780v-960h-56v960h56zM571 780v-960h-57v960h57z" />
    <glyph glyph-name="uniFF3C" unicode="&#xff3c;" vert-adv-y="1105" 
d="M72 758l796 -881l-31 -31l-795 879z" />
    <glyph glyph-name="uniFF5E" unicode="&#xff5e;" vert-adv-y="1105" 
d="M701 366l41 -27c-30 -49 -93 -94 -151 -94c-57 0 -93 12 -136 35c-34 18 -83 41 -136 41c-49 0 -85 -26 -110 -63l-41 27c30 49 93 94 151 94c57 0 94 -12 136 -35s83 -41 136 -41c49 0 85 26 110 63z" />
    <glyph glyph-name="quoteleft" unicode="&#x2018;" horiz-adv-x="200" vert-adv-y="1105" 
d="M162 769l-43 -220h-56l65 220h34z" />
    <glyph glyph-name="quoteright" unicode="&#x2019;" horiz-adv-x="200" vert-adv-y="1105" 
d="M38 536l43 220h56l-65 -220h-34z" />
    <glyph glyph-name="quotedblleft" unicode="&#x201c;" horiz-adv-x="350" vert-adv-y="1105" 
d="M305 769l-42 -220h-59l65 220h36zM169 769l-42 -220h-59l65 220h36z" />
    <glyph glyph-name="quotedblright" unicode="&#x201d;" horiz-adv-x="350" vert-adv-y="1105" 
d="M45 536l42 220h59l-65 -220h-36zM181 536l42 220h59l-65 -220h-36z" />
    <glyph glyph-name="uni3014" unicode="&#x3014;" horiz-adv-x="344" vert-adv-y="1105" 
d="M96 14l207 -117l-24 -43l-236 132v630l236 131l24 -43l-207 -116v-574z" />
    <glyph glyph-name="uni3015" unicode="&#x3015;" horiz-adv-x="358" vert-adv-y="1105" 
d="M309 616v-630l-237 -132l-24 43l208 118v573l-208 116l24 43z" />
    <glyph glyph-name="uni3008" unicode="&#x3008;" horiz-adv-x="467" vert-adv-y="1105" 
d="M100 301l321 -407l-33 -25l-341 432l340 432l34 -26z" />
    <glyph glyph-name="uni3009" unicode="&#x3009;" horiz-adv-x="477" vert-adv-y="1105" 
d="M84 733l341 -432l-340 -432l-33 25l321 407l-321 406z" />
    <glyph glyph-name="uni300A" unicode="&#x300a;" horiz-adv-x="459" vert-adv-y="1105" 
d="M74 301l250 -431l-34 -21l-261 452l261 451l34 -20zM174 301l249 -431l-35 -21l-260 452l260 451l35 -20z" />
    <glyph glyph-name="uni300B" unicode="&#x300b;" horiz-adv-x="458" vert-adv-y="1105" 
d="M62 752l261 -451l-261 -452l-34 21l248 431l-248 431zM161 752l260 -451l-260 -452l-35 21l250 431l-250 431z" />
    <glyph glyph-name="uni300C" unicode="&#x300c;" horiz-adv-x="351" vert-adv-y="1105" 
d="M322 769v-54h-226v-375h-67v429h293z" />
    <glyph glyph-name="uni300D" unicode="&#x300d;" horiz-adv-x="351" vert-adv-y="1105" 
d="M322 262v-429h-293v54h226v375h67z" />
    <glyph glyph-name="uni300E" unicode="&#x300e;" horiz-adv-x="341" vert-adv-y="1105" 
d="M107 713h169v26h-208v-368h39v342zM314 769v-87h-172v-342h-110v429h282z" />
    <glyph glyph-name="uni300F" unicode="&#x300f;" horiz-adv-x="346" vert-adv-y="1105" 
d="M239 -112h-169v-26h208v368h-39v-342zM32 -168v87h172v342h110v-429h-282z" />
    <glyph glyph-name="uni3010" unicode="&#x3010;" horiz-adv-x="374" vert-adv-y="1105" 
d="M377 -128h-357v858h356c-150 -98 -249 -259 -249 -430c0 -172 99 -331 250 -428z" />
    <glyph glyph-name="uni3011" unicode="&#x3011;" horiz-adv-x="382" vert-adv-y="1105" 
d="M358 731v-859h-358c152 97 251 257 251 428c0 172 -99 333 -250 431h357z" />
    <glyph glyph-name="plusminus" unicode="&#xb1;" horiz-adv-x="590" vert-adv-y="1105" 
d="M62 104h467v-36h-467v36zM279 646h42v-224h217v-40h-217v-219h-42v219h-217v40h217v224z" />
    <glyph glyph-name="multiply" unicode="&#xd7;" horiz-adv-x="590" vert-adv-y="1105" 
d="M120 546l180 -189l181 189l35 -36l-181 -189l181 -189l-35 -36l-181 189l-180 -189l-35 36l181 189l-181 189z" />
    <glyph glyph-name="divide" unicode="&#xf7;" horiz-adv-x="590" vert-adv-y="1105" 
d="M60 298v44h480v-44h-480zM266 486v67h69v-67h-69zM266 87v67h69v-67h-69z" />
    <glyph glyph-name="notequal" unicode="&#x2260;" horiz-adv-x="590" vert-adv-y="1105" 
d="M74 403v45h282l95 144h42l-95 -144h118v-45h-146l-110 -166h256v-45h-284l-93 -142h-42l93 142h-116v45h144l110 166h-254z" />
    <glyph glyph-name="lessequal" unicode="&#x2264;" horiz-adv-x="590" vert-adv-y="1105" 
d="M529 216v-42l-465 201v37l465 198v-42l-416 -175zM529 60h-468v37h468v-37z" />
    <glyph glyph-name="greaterequal" unicode="&#x2265;" horiz-adv-x="590" vert-adv-y="1105" 
d="M61 174v42l416 177l-416 175v42l465 -198v-37zM529 60h-468v37h468v-37z" />
    <glyph glyph-name="infinity" unicode="&#x221e;" horiz-adv-x="590" vert-adv-y="1105" 
d="M450 166c-84 0 -117 68 -155 116c-50 -63 -90 -116 -166 -116c-74 0 -123 50 -123 140c0 81 56 138 131 138c72 0 125 -76 156 -116c51 62 84 116 165 116c77 0 127 -50 127 -138c0 -84 -60 -140 -135 -140zM450 202c58 0 98 42 98 104c0 66 -39 103 -93 103
c-63 0 -98 -55 -137 -105c29 -40 65 -102 132 -102zM132 202c55 0 93 41 139 103c-33 44 -79 104 -135 104c-55 0 -92 -42 -92 -103c0 -70 32 -104 88 -104z" />
    <glyph glyph-name="therefore" unicode="&#x2234;" horiz-adv-x="590" vert-adv-y="1105" 
d="M538 114c0 -27 -20 -47 -47 -47c-26 0 -47 20 -47 47s21 46 47 46c27 0 47 -19 47 -46zM146 114c0 -27 -22 -47 -47 -47c-28 0 -47 20 -47 47s19 46 47 46c25 0 47 -19 47 -46zM346 523c0 -28 -18 -48 -46 -48s-48 20 -48 48c0 24 20 46 48 46s46 -22 46 -46z" />
    <glyph glyph-name="degree" unicode="&#xb0;" horiz-adv-x="292" vert-adv-y="1105" 
d="M254 609c0 -60 -43 -108 -108 -108s-108 48 -108 108s43 108 108 108s108 -48 108 -108zM215 609c0 40 -26 72 -69 72s-69 -32 -69 -72s26 -72 69 -72s69 32 69 72z" />
    <glyph glyph-name="minute" unicode="&#x2032;" horiz-adv-x="486" vert-adv-y="1105" 
d="M160 491l102 236h64l-131 -236h-35z" />
    <glyph glyph-name="second" unicode="&#x2033;" horiz-adv-x="585" vert-adv-y="1105" 
d="M274 491l102 236h59l-131 -236h-30zM150 491l102 236h59l-131 -236h-30z" />
    <glyph glyph-name="uni2103" unicode="&#x2103;" horiz-adv-x="767" vert-adv-y="1105" 
d="M145 565c36 0 56 24 56 58c0 33 -20 57 -56 57s-56 -24 -56 -57c0 -34 20 -58 56 -58zM145 535c-56 0 -89 38 -89 87s33 87 89 87s89 -38 89 -87s-33 -87 -89 -87zM716 79l26 -34c-29 -26 -101 -82 -221 -82c-199 0 -277 137 -277 343v77c0 198 89 323 265 323
c90 0 162 -28 215 -67l-24 -35c-59 40 -108 59 -191 59c-142 0 -220 -104 -220 -268v-100c0 -189 80 -289 234 -289c92 0 159 43 193 73z" />
    <glyph glyph-name="uni212B" unicode="&#x212b;" horiz-adv-x="643" vert-adv-y="1105" 
d="M412 740c0 -38 -20 -69 -54 -81l262 -685h-49l-86 233h-326l-88 -233h-48l264 685c-34 12 -53 43 -53 81c0 49 33 87 89 87s89 -38 89 -87zM263 479l-89 -233h296l-86 233c-21 58 -44 113 -61 169c-16 -56 -38 -111 -60 -169zM323 683c36 0 56 24 56 58
c0 33 -20 57 -56 57s-56 -24 -56 -57c0 -34 20 -58 56 -58z" />
    <glyph glyph-name="uniFFE0" unicode="&#xffe0;" horiz-adv-x="487" vert-adv-y="1105" 
d="M266 -26v99c-122 6 -203 86 -203 242v45c0 139 75 232 203 238v97h40v-98c53 -4 105 -20 144 -49l-19 -33c-41 27 -82 39 -125 43v-446c63 5 110 26 142 53l21 -33c-34 -28 -90 -53 -163 -58v-100h-40zM105 314c0 -115 53 -195 161 -202v447c-106 -6 -161 -84 -161 -196
v-49z" />
    <glyph glyph-name="uniFFE1" unicode="&#xffe1;" horiz-adv-x="569" vert-adv-y="1105" 
d="M68 322v40h102v121c0 149 84 210 188 210c59 0 103 -14 136 -31l-14 -35c-38 17 -70 26 -117 26c-80 0 -149 -41 -149 -172v-119h208v-40h-208v-122c0 -92 -13 -144 -70 -183v-2h382v-41h-441v40c65 38 85 91 85 187v121h-102z" />
    <glyph glyph-name="uniFFE5" unicode="&#xffe5;" horiz-adv-x="624" vert-adv-y="1105" 
d="M295 -26v163h-180v39h180v89h-180v39h167l-230 384h50l213 -367h1l205 367h51l-220 -384h167v-39h-180v-89h180v-39h-180v-163h-44z" />
    <glyph glyph-name="male" unicode="&#x2642;" horiz-adv-x="776" vert-adv-y="1105" 
d="M49 262c0 153 122 277 277 277c65 0 124 -23 172 -60l127 126h-113v58h216v-215h-59v114l-127 -128c37 -47 61 -107 61 -172c0 -153 -124 -277 -277 -277c-155 0 -277 124 -277 277zM101 262c0 -125 97 -230 225 -230c127 0 225 105 225 230c0 127 -98 230 -225 230
c-128 0 -225 -103 -225 -230z" />
    <glyph glyph-name="female" unicode="&#x2640;" horiz-adv-x="652" vert-adv-y="1105" 
d="M294 55v132c-138 20 -245 131 -245 275c0 153 122 277 277 277c153 0 277 -124 277 -277c0 -144 -106 -256 -244 -275v-132h143v-59h-143v-145h-65v145h-145v59h145zM101 462c0 -125 97 -230 225 -230c127 0 225 105 225 230c0 127 -98 230 -225 230
c-128 0 -225 -103 -225 -230z" />
    <glyph glyph-name="angle" unicode="&#x2220;" vert-adv-y="1105" 
d="M760 56v-56h-609v41l473 551l46 -37l-431 -499h521z" />
    <glyph glyph-name="perpendicular" unicode="&#x22a5;" vert-adv-y="1105" 
d="M774 59v-59h-638v59h290v514h59v-514h289z" />
    <glyph glyph-name="uni2312" unicode="&#x2312;" vert-adv-y="1105" 
d="M712 576h-60c-35 61 -100 116 -196 116c-97 0 -163 -55 -197 -116h-62c53 96 132 160 257 160c127 0 206 -64 258 -160z" />
    <glyph glyph-name="partialdiff" unicode="&#x2202;" horiz-adv-x="500" vert-adv-y="1105" 
d="M80 640l-16 33c39 27 95 50 159 50c130 0 244 -102 244 -349c0 -258 -120 -385 -256 -385c-124 0 -182 93 -182 203c0 145 101 242 215 242c89 0 153 -54 177 -97h1c1 14 1 30 1 44c0 213 -97 301 -201 301c-61 0 -106 -20 -142 -42zM216 31c106 0 182 114 198 250
c-24 61 -88 111 -169 111c-92 0 -169 -76 -169 -197c0 -104 54 -164 140 -164z" />
    <glyph glyph-name="gradient" unicode="&#x2207;" vert-adv-y="1105" 
d="M455 69l300 481h-599zM69 593h772l-386 -612z" />
    <glyph glyph-name="equivalence" unicode="&#x2261;" horiz-adv-x="590" vert-adv-y="1105" 
d="M530 157h-470v41h470v-41zM530 439h-470v41h470v-41zM530 298h-470v40h470v-40z" />
    <glyph glyph-name="uni2252" unicode="&#x2252;" horiz-adv-x="590" vert-adv-y="1105" 
d="M54 207v51h482v-51h-482zM54 369v50h482v-50h-482zM147 532c0 34 29 63 64 63c34 0 63 -29 63 -63s-29 -64 -63 -64c-35 0 -64 30 -64 64zM333 92c0 34 29 65 63 65s64 -31 64 -65s-30 -63 -64 -63s-63 29 -63 63z" />
    <glyph glyph-name="section" unicode="&#xa7;" horiz-adv-x="510" vert-adv-y="1105" 
d="M471 260c0 -66 -47 -115 -111 -138c36 -23 61 -59 61 -126c0 -87 -69 -147 -184 -147c-61 0 -125 16 -161 38v38c38 -18 93 -36 161 -36c87 0 139 39 139 105c0 60 -20 89 -90 113c-42 14 -83 24 -116 36c-79 29 -129 63 -129 147c0 65 46 114 111 137
c-36 23 -61 59 -61 127c0 87 63 147 178 147c63 0 110 -14 141 -29v-37c-31 14 -79 26 -141 26c-87 0 -133 -39 -133 -105c0 -60 20 -89 90 -113c42 -14 83 -24 116 -36c79 -29 129 -63 129 -147zM207 403c-5 1 -10 3 -15 5c-62 -19 -106 -62 -106 -115
c0 -69 45 -92 122 -117c30 -10 67 -20 97 -29l15 -5c62 19 106 62 106 115c0 69 -45 92 -122 117c-30 10 -67 20 -97 29z" />
    <glyph glyph-name="uni203B" unicode="&#x203b;" vert-adv-y="1105" 
d="M804 645l-319 -323l320 -323c-11 -12 -23 -22 -34 -34l-316 325c-105 -108 -212 -216 -317 -325l-30 31l318 325l-316 321l31 33c104 -108 210 -215 314 -323l320 323zM93 322c0 34 26 61 60 61s60 -27 60 -61s-26 -61 -60 -61s-60 27 -60 61zM396 26c0 34 26 61 60 61
s60 -27 60 -61s-26 -61 -60 -61s-60 27 -60 61zM396 616c0 34 26 61 60 61s60 -27 60 -61s-26 -61 -60 -61s-60 27 -60 61zM699 322c0 34 26 61 60 61s60 -27 60 -61s-26 -61 -60 -61s-60 27 -60 61z" />
    <glyph glyph-name="uni2606" unicode="&#x2606;" vert-adv-y="1105" 
d="M457 770l107 -316h334l-270 -201l100 -319l-271 194l-276 -194l104 319l-272 201h338zM547 429l-91 265l-88 -265h-283l227 -169l-89 -268l233 163l228 -163l-84 268l227 169h-280z" />
    <glyph glyph-name="uni2605" unicode="&#x2605;" vert-adv-y="1105" 
d="M457 770l107 -316h334l-270 -201l100 -319l-271 194l-276 -194l104 319l-272 201h338z" />
    <glyph glyph-name="circle" unicode="&#x25cb;" vert-adv-y="1105" 
d="M99 354c0 195 158 356 354 356c197 0 356 -161 356 -356c0 -197 -159 -355 -356 -355c-196 0 -354 158 -354 355zM136 354c0 -175 142 -317 317 -317c177 0 319 142 319 317s-142 319 -319 319c-175 0 -317 -144 -317 -319z" />
    <glyph glyph-name="H18533" unicode="&#x25cf;" vert-adv-y="1105" 
d="M99 354c0 195 158 356 354 356c197 0 356 -161 356 -356c0 -197 -159 -355 -356 -355c-196 0 -354 158 -354 355z" />
    <glyph glyph-name="uni25CE" unicode="&#x25ce;" vert-adv-y="1105" 
d="M99 354c0 195 158 356 354 356c197 0 356 -161 356 -356c0 -197 -159 -355 -356 -355c-196 0 -354 158 -354 355zM138 354c0 -174 141 -315 315 -315c176 0 316 141 316 315c0 173 -140 316 -316 316c-174 0 -315 -143 -315 -316zM238 354c0 118 96 215 215 215
s215 -97 215 -215c0 -119 -96 -215 -215 -215s-215 96 -215 215zM285 354c0 -92 76 -168 168 -168c94 0 170 76 170 168s-76 170 -170 170c-92 0 -168 -78 -168 -170z" />
    <glyph glyph-name="uni25C7" unicode="&#x25c7;" vert-adv-y="1105" 
d="M70 353l385 385l384 -385l-384 -385zM776 353l-321 322l-321 -321l321 -322z" />
    <glyph glyph-name="uni25C6" unicode="&#x25c6;" vert-adv-y="1105" 
d="M456 -32l-386 386l385 384l385 -385z" />
    <glyph glyph-name="H22073" unicode="&#x25a1;" vert-adv-y="1105" 
d="M114 14v680h680v-680h-680zM755 655h-603v-602h603v602z" />
    <glyph glyph-name="filledbox" unicode="&#x25a0;" vert-adv-y="1105" 
d="M796 14h-681v680h681v-680z" />
    <glyph glyph-name="uni25B3" unicode="&#x25b3;" vert-adv-y="1105" 
d="M820 -90h-729l364 724zM162 -47h583l-292 582z" />
    <glyph glyph-name="triagup" unicode="&#x25b2;" vert-adv-y="1105" 
d="M819 -85h-727l363 724z" />
    <glyph glyph-name="uni25BD" unicode="&#x25bd;" vert-adv-y="1105" 
d="M91 641h729l-365 -724zM747 597h-583l291 -582z" />
    <glyph glyph-name="triagdn" unicode="&#x25bc;" vert-adv-y="1105" 
d="M92 641h727l-364 -724z" />
    <glyph glyph-name="arrowright" unicode="&#x2192;" vert-adv-y="1105" 
d="M104 314v59h553l-75 127l15 17l208 -173l-208 -173l-15 17l75 126h-553z" />
    <glyph glyph-name="arrowleft" unicode="&#x2190;" vert-adv-y="1105" 
d="M805 373v-59h-553l75 -126l-15 -17l-208 173l208 173l15 -17l-75 -127h553z" />
    <glyph glyph-name="arrowup" unicode="&#x2191;" vert-adv-y="1105" 
d="M484 0h-58v553l-127 -75l-17 15l173 208l173 -208l-17 -15l-127 75v-553z" />
    <glyph glyph-name="arrowdown" unicode="&#x2193;" vert-adv-y="1105" 
d="M426 687h58v-552l127 74l17 -15l-173 -208l-173 208l17 15l127 -74v552z" />
    <glyph glyph-name="arrowboth" unicode="&#x2194;" vert-adv-y="1105" 
d="M207 314l75 -126l-15 -17l-208 173l208 173l15 -17l-75 -127h496l-75 127l15 17l208 -173l-208 -173l-15 17l75 126h-496z" />
    <glyph glyph-name="uni3013" unicode="&#x3013;" vert-adv-y="1105" 
d="M779 233v-38h-648v38h648zM779 429v-38h-648v38h648z" />
    <glyph glyph-name="guillemotleft" unicode="&#xab;" vert-adv-y="1105" 
d="M372 303l444 -290l-29 -47l-482 314v45l474 322l33 -45zM161 302l443 -292l-30 -48l-480 318v45l473 328l34 -47z" />
    <glyph glyph-name="guillemotright" unicode="&#xbb;" vert-adv-y="1105" 
d="M604 325v-45l-482 -314l-28 47l444 291l-441 298l33 45zM816 325v-45l-480 -318l-31 48l444 292l-440 304l33 47z" />
    <glyph glyph-name="radical" unicode="&#x221a;" horiz-adv-x="538" vert-adv-y="1105" 
d="M556 800l-232 -924h-36c-55 146 -108 293 -163 439l-71 -33c-6 12 -9 22 -15 34l112 46l152 -415h1l210 853h42z" />
    <glyph glyph-name="uni223D" unicode="&#x223d;" vert-adv-y="1105" 
d="M829 316c0 -100 -75 -188 -181 -188c-43 0 -83 16 -122 43l34 46c28 -22 54 -30 88 -30c70 0 120 56 120 129c0 64 -48 127 -119 127c-74 0 -120 -50 -164 -135c-33 -63 -92 -179 -225 -179c-88 0 -179 64 -179 187c0 120 88 187 178 187c44 0 86 -18 123 -42l-31 -47
c-28 15 -57 27 -85 27c-74 0 -123 -52 -123 -125c0 -75 45 -126 122 -126c102 0 149 101 178 159c40 80 103 154 204 154c107 0 182 -89 182 -187z" />
    <glyph glyph-name="proportional" unicode="&#x221d;" vert-adv-y="1105" 
d="M301 190c84 0 132 67 160 125c-28 56 -81 126 -160 126c-75 0 -122 -53 -122 -125c0 -76 43 -126 122 -126zM795 460l-34 -49c-27 18 -54 32 -80 32c-75 0 -116 -45 -160 -128c45 -84 85 -128 160 -128c24 0 59 9 82 22l15 -56c-34 -18 -66 -25 -97 -25
c-86 0 -152 64 -191 129c-34 -60 -82 -128 -188 -128c-90 0 -188 63 -188 187c0 120 95 187 187 187c101 0 153 -70 189 -131c40 72 100 131 191 131c39 0 77 -16 114 -43z" />
    <glyph glyph-name="uni2235" unicode="&#x2235;" horiz-adv-x="586" vert-adv-y="1105" 
d="M54 504c0 29 20 49 49 49c24 0 48 -20 48 -49c0 -28 -24 -47 -48 -47c-29 0 -49 19 -49 47zM450 504c0 29 19 49 48 49c24 0 49 -20 49 -49c0 -28 -25 -47 -49 -47c-29 0 -48 19 -48 47zM251 94c0 24 21 50 49 50c25 0 48 -26 48 -50c0 -28 -23 -47 -48 -47
c-28 0 -49 19 -49 47z" />
    <glyph glyph-name="integral" unicode="&#x222b;" horiz-adv-x="288" vert-adv-y="1105" 
d="M135 79c0 139 -9 352 -9 489c0 155 47 216 125 216c16 0 28 -3 37 -7l-9 -37c-7 2 -16 4 -25 4c-54 0 -83 -40 -83 -178c0 -142 10 -351 10 -489c0 -155 -45 -216 -125 -216c-16 0 -30 3 -39 7l9 37c7 -2 18 -4 27 -4c54 0 82 40 82 178z" />
    <glyph glyph-name="uni222C" unicode="&#x222c;" horiz-adv-x="487" vert-adv-y="1105" 
d="M135 79c0 139 -9 352 -9 489c0 155 47 216 125 216c16 0 28 -3 37 -7l-9 -37c-7 2 -16 4 -25 4c-54 0 -83 -40 -83 -178c0 -142 10 -351 10 -489c0 -155 -45 -216 -125 -216c-16 0 -30 3 -39 7l9 37c7 -2 18 -4 27 -4c54 0 82 40 82 178zM354 79c0 139 -9 352 -9 489
c0 155 47 216 125 216c16 0 28 -3 37 -7l-9 -37c-7 2 -16 4 -25 4c-54 0 -83 -40 -83 -178c0 -142 10 -351 10 -489c0 -155 -45 -216 -125 -216c-16 0 -30 3 -39 7l9 37c7 -2 18 -4 27 -4c54 0 82 40 82 178z" />
    <glyph glyph-name="element" unicode="&#x2208;" vert-adv-y="1105" 
d="M795 351v-47h-632c9 -99 76 -170 228 -170h406v-47h-400c-196 0 -285 107 -285 242c0 125 82 227 279 227h406v-47h-406c-153 0 -217 -70 -227 -158h631z" />
    <glyph glyph-name="suchthat" unicode="&#x220b;" vert-adv-y="1105" 
d="M114 304v47h630c-9 88 -72 159 -227 159h-405v46h405c197 0 280 -101 280 -227c0 -136 -89 -242 -285 -242h-400v46h405c154 0 220 71 228 171h-631z" />
    <glyph glyph-name="reflexsubset" unicode="&#x2286;" vert-adv-y="1105" 
d="M797 619v-46h-406c-168 0 -229 -79 -229 -178c0 -110 66 -189 229 -189h406v-46h-400c-196 0 -285 101 -285 235c0 125 82 224 279 224h406zM795 47v-46h-645v46h645z" />
    <glyph glyph-name="reflexsuperset" unicode="&#x2287;" vert-adv-y="1105" 
d="M112 573v46h406c197 0 279 -99 279 -224c0 -134 -89 -235 -285 -235h-400v46h406c163 0 229 79 229 189c0 99 -61 178 -229 178h-406zM114 1v46h645v-46h-645z" />
    <glyph glyph-name="propersubset" unicode="&#x2282;" vert-adv-y="1105" 
d="M797 549v-46h-406c-168 0 -228 -86 -228 -187c0 -112 65 -196 228 -196h406v-46h-400c-196 0 -285 109 -285 245c0 126 82 230 279 230h406z" />
    <glyph glyph-name="propersuperset" unicode="&#x2283;" vert-adv-y="1105" 
d="M112 523v46h405c197 0 280 -104 280 -230c0 -136 -89 -245 -285 -245h-400v46h405c164 0 229 84 229 196c0 101 -61 187 -229 187h-405z" />
    <glyph glyph-name="union" unicode="&#x222a;" vert-adv-y="1105" 
d="M214 634h50v-405c0 -169 86 -233 187 -233c112 0 196 69 196 233v405h50v-400c0 -196 -113 -285 -249 -285c-126 0 -234 83 -234 280v405z" />
    <glyph glyph-name="intersection" unicode="&#x2229;" vert-adv-y="1105" 
d="M455 634c137 0 241 -89 241 -285v-400h-50v405c0 164 -79 236 -191 236c-111 0 -190 -72 -190 -236v-405h-50v400c0 196 104 285 240 285z" />
    <glyph glyph-name="logicaland" unicode="&#x2227;" vert-adv-y="1105" 
d="M482 591l294 -570l-51 -24l-270 526l-269 -526l-51 24l294 570h53z" />
    <glyph glyph-name="logicalor" unicode="&#x2228;" vert-adv-y="1105" 
d="M776 573l-294 -570h-53l-294 570l51 24l269 -526l270 526z" />
    <glyph glyph-name="uniFFE2" unicode="&#xffe2;" vert-adv-y="1105" 
d="M884 155v-311h-56v258h-801v53h857z" />
    <glyph glyph-name="arrowdblright" unicode="&#x21d2;" vert-adv-y="1105" 
d="M651 550l249 -249l-249 -250l-27 26l118 117h-732v36h767l72 71l-72 72h-767v36h731l-117 114z" />
    <glyph glyph-name="arrowdblboth" unicode="&#x21d4;" vert-adv-y="1105" 
d="M653 550l248 -249l-248 -250l-28 26l118 117h-578l118 -117l-28 -26l-248 250l248 249l28 -27l-117 -114h576l-117 114zM778 230l72 71l-72 72h-648l-72 -72l72 -71h648z" />
    <glyph glyph-name="universal" unicode="&#x2200;" vert-adv-y="1105" 
d="M157 695h45l89 -234h330l87 234h46l-276 -721h-42zM521 190l86 234h-302l89 -234c22 -58 47 -119 63 -170c17 51 43 112 64 170z" />
    <glyph glyph-name="existential" unicode="&#x2203;" vert-adv-y="1105" 
d="M248 695h421v-721h-428v41h384v309h-356v40h356v290h-377v41z" />
    <glyph glyph-name="acute" unicode="&#xb4;" horiz-adv-x="590" vert-adv-y="1105" 
d="M261 571h-41l101 134h52z" />
    <glyph glyph-name="tilde" unicode="&#x2dc;" horiz-adv-x="590" vert-adv-y="1105" 
d="M193 595h-32c8 50 40 77 75 77c50 0 82 -42 119 -42c31 0 42 17 45 42h30c-6 -50 -39 -77 -75 -77c-50 0 -82 42 -119 42c-20 0 -38 -18 -43 -42z" />
    <glyph glyph-name="caron" unicode="&#x2c7;" horiz-adv-x="590" vert-adv-y="1105" 
d="M275 566l-97 130h38l81 -96l76 96h40l-99 -130h-39z" />
    <glyph glyph-name="breve" unicode="&#x2d8;" horiz-adv-x="590" vert-adv-y="1105" 
d="M295 559c-70 0 -121 50 -124 121h35c5 -51 42 -80 89 -80c48 0 83 29 89 80h35c-3 -71 -55 -121 -124 -121z" />
    <glyph glyph-name="hungarumlaut" unicode="&#x2dd;" horiz-adv-x="590" vert-adv-y="1105" 
d="M182 576l56 133h46l-65 -133h-37zM307 576l57 133h47l-65 -133h-39z" />
    <glyph glyph-name="ring" unicode="&#x2da;" horiz-adv-x="590" vert-adv-y="1105" 
d="M296 564c-54 0 -88 40 -88 87c0 42 34 83 88 83c51 0 87 -41 87 -83c0 -47 -36 -87 -87 -87zM296 595c30 0 48 25 48 56c0 28 -18 49 -48 49c-33 0 -51 -21 -51 -49c0 -31 18 -56 51 -56z" />
    <glyph glyph-name="dotaccent" unicode="&#x2d9;" horiz-adv-x="590" vert-adv-y="1105" 
d="M268 602v60h54v-60h-54z" />
    <glyph glyph-name="cedilla" unicode="&#xb8;" horiz-adv-x="590" vert-adv-y="1105" 
d="M217 -194v34c79 6 115 19 115 52c0 31 -27 36 -93 36v77h38v-46c54 -2 97 -15 97 -61c0 -56 -43 -86 -157 -92z" />
    <glyph glyph-name="ogonek" unicode="&#x2db;" horiz-adv-x="590" vert-adv-y="1105" 
d="M326 -192c-64 0 -101 24 -101 70c0 51 45 86 84 108h42c-51 -36 -85 -59 -85 -103c0 -31 23 -45 59 -45c20 0 35 3 49 8v-30c-10 -4 -28 -8 -48 -8z" />
    <glyph glyph-name="exclamdown" unicode="&#xa1;" horiz-adv-x="260" vert-adv-y="1105" 
d="M165 706v-84h-70v84h70zM112 511h36l8 -560h-52z" />
    <glyph glyph-name="questiondown" unicode="&#xbf;" horiz-adv-x="498" vert-adv-y="1105" 
d="M256 515h42v-48c0 -141 -199 -189 -199 -319v-19c0 -93 74 -137 157 -137c72 0 125 27 174 79l29 -29c-39 -43 -108 -92 -201 -92c-125 0 -203 69 -203 178v20c0 154 201 194 201 322v45zM312 706v-84h-70v84h70z" />
    <glyph glyph-name="uni2236" unicode="&#x2236;" vert-adv-y="1105" 
d="M454 169l79 -94h-155zM378 541h155l-79 -95z" />
    <glyph glyph-name="uni222E" unicode="&#x222e;" vert-adv-y="1105" 
d="M664 649l-47 -21c-11 25 -27 40 -50 40c-29 0 -58 -82 -74 -224c67 -8 122 -53 122 -131c0 -92 -68 -148 -141 -158c-18 -148 -59 -267 -136 -267c-40 0 -71 19 -92 59l44 26c12 -25 28 -41 51 -41c29 0 60 81 74 224c-62 10 -113 54 -113 128c0 89 62 142 131 157
c18 150 60 271 137 271c42 0 73 -21 94 -63zM566 299v12c0 51 -28 93 -76 103c-6 -68 -5 -160 -13 -229c49 12 84 55 89 114zM430 410c-46 -17 -79 -63 -79 -125c0 -51 26 -87 67 -99c6 66 6 154 12 224z" />
    <glyph glyph-name="summation" unicode="&#x2211;" horiz-adv-x="587" vert-adv-y="1105" 
d="M96 695h414v-39h-358l213 -324l-218 -319h370v-39h-421v30l221 327l-221 337v27z" />
    <glyph glyph-name="product" unicode="&#x220f;" horiz-adv-x="621" vert-adv-y="1105" 
d="M585 658h-112v-678h-41v678h-243v-678h-41v678h-112v37h549v-37z" />
    <glyph glyph-name="currency" unicode="&#xa4;" vert-adv-y="1105" 
d="M114 46l110 98c-35 47 -55 105 -55 170c0 64 20 123 55 170l-110 99l24 27l110 -99c52 53 124 85 205 85c82 0 155 -33 207 -87l112 101l24 -27l-113 -101c35 -46 55 -105 55 -168c0 -64 -20 -121 -55 -168l113 -100l-24 -27l-112 100c-52 -54 -125 -86 -207 -86
s-154 32 -205 84l-110 -98zM204 314c0 -142 107 -251 249 -251s250 109 250 251s-108 252 -250 252s-249 -110 -249 -252z" />
    <glyph glyph-name="uni2109" unicode="&#x2109;" horiz-adv-x="815" vert-adv-y="1105" 
d="M155 565c36 0 56 24 56 58c0 33 -20 57 -56 57s-56 -24 -56 -57c0 -34 20 -58 56 -58zM326 695h412v-41h-368v-309h347v-40h-347v-331h-44v721zM155 535c-56 0 -89 38 -89 87s33 87 89 87s89 -38 89 -87s-33 -87 -89 -87z" />
    <glyph glyph-name="perthousand" unicode="&#x2030;" horiz-adv-x="1195" vert-adv-y="1105" 
d="M226 -25h-44l437 720h43zM220 700c94 0 150 -58 150 -163v-48c0 -105 -56 -163 -150 -163s-150 58 -150 163v48c0 105 56 163 150 163zM220 363c59 0 110 29 110 128v44c0 98 -51 128 -110 128s-110 -30 -110 -128v-44c0 -99 51 -128 110 -128zM622 340
c94 0 150 -58 150 -163v-48c0 -105 -56 -163 -150 -163s-150 58 -150 163v48c0 105 56 163 150 163zM622 3c59 0 110 29 110 128v44c0 98 -51 128 -110 128s-110 -30 -110 -128v-44c0 -99 51 -128 110 -128zM975 340c94 0 150 -58 150 -163v-48c0 -105 -56 -163 -150 -163
s-150 58 -150 163v48c0 105 56 163 150 163zM975 3c59 0 110 29 110 128v44c0 98 -51 128 -110 128s-110 -30 -110 -128v-44c0 -99 51 -128 110 -128z" />
    <glyph glyph-name="uni25C1" unicode="&#x25c1;" vert-adv-y="1105" 
d="M185 300l561 -351v704zM761 686v-770l-612 384z" />
    <glyph glyph-name="uni25C0" unicode="&#x25c0;" vert-adv-y="1105" 
d="M761 686v-770l-612 384z" />
    <glyph glyph-name="uni25B7" unicode="&#x25b7;" vert-adv-y="1105" 
d="M165 -51l561 351l-561 353v-704zM149 686l612 -386l-612 -384v770z" />
    <glyph glyph-name="uni25B6" unicode="&#x25b6;" vert-adv-y="1105" 
d="M149 686l612 -386l-612 -384v770z" />
    <glyph glyph-name="uni2664" unicode="&#x2664;" vert-adv-y="1105" 
d="M752 201c0 106 -174 327 -297 475c-123 -148 -297 -369 -297 -475c0 -50 27 -121 100 -121c62 0 113 51 138 51c29 0 27 -8 24 -42c-3 -47 -17 -98 -37 -161c-3 -13 9 -19 26 -20c13 -1 31 -2 46 -2c16 0 34 1 46 2c17 1 28 7 25 20c-20 63 -33 114 -36 161
c-4 34 -4 42 24 42c25 0 77 -51 139 -51c72 0 99 71 99 121zM779 202c0 -86 -54 -149 -138 -149c-38 0 -71 18 -121 46c3 -49 24 -135 51 -186c6 -13 1 -20 -14 -22c-27 -3 -67 -5 -102 -5c-38 0 -74 2 -102 5c-15 2 -20 9 -14 22c27 56 47 134 52 186
c-51 -28 -83 -46 -122 -46c-83 0 -137 63 -137 149c0 116 173 327 323 515c151 -188 324 -399 324 -515z" />
    <glyph glyph-name="spade" unicode="&#x2660;" vert-adv-y="1105" 
d="M779 202c0 -86 -54 -149 -138 -149c-38 0 -71 18 -121 46c3 -49 24 -135 51 -186c6 -13 1 -20 -14 -22c-27 -3 -67 -5 -102 -5c-38 0 -74 2 -102 5c-15 2 -20 9 -14 22c27 56 47 134 52 186c-51 -28 -83 -46 -122 -46c-83 0 -137 63 -137 149c0 116 173 327 323 515
c151 -188 324 -399 324 -515z" />
    <glyph glyph-name="uni2661" unicode="&#x2661;" vert-adv-y="1105" 
d="M776 479c0 92 -61 169 -160 169c-66 0 -117 -76 -134 -131c-7 -24 -3 -50 -27 -50s-23 23 -30 50c-14 49 -64 131 -131 131c-90 0 -159 -76 -159 -169c0 -165 185 -391 320 -530c136 139 321 365 321 530zM802 475c0 -189 -204 -427 -347 -565
c-142 138 -346 376 -346 565c0 111 78 194 175 194c84 0 143 -51 171 -178c29 127 87 178 172 178c97 0 175 -83 175 -194z" />
    <glyph glyph-name="heart" unicode="&#x2665;" vert-adv-y="1105" 
d="M802 475c0 -189 -204 -427 -347 -565c-142 138 -346 376 -346 565c0 111 78 194 175 194c84 0 143 -51 171 -178c29 127 87 178 172 178c97 0 175 -83 175 -194z" />
    <glyph glyph-name="uni2667" unicode="&#x2667;" vert-adv-y="1105" 
d="M815 210c0 66 -43 150 -118 150c-73 0 -117 -61 -156 -61c-35 0 -53 25 -53 59c0 64 112 68 112 201c0 77 -76 122 -145 122c-67 0 -145 -45 -145 -122c0 -133 113 -137 113 -201c0 -34 -19 -59 -54 -59c-39 0 -82 61 -155 61c-75 0 -119 -84 -119 -150
c0 -73 44 -150 124 -150c108 0 139 98 186 98c16 0 18 -9 18 -25c0 -58 -32 -97 -32 -204c0 -20 40 -17 64 -17c25 0 65 -3 65 17c0 107 -33 146 -33 204c0 16 2 25 18 25c46 0 80 -98 187 -98c80 0 123 77 123 150zM850 212c0 -96 -66 -184 -168 -184
c-69 0 -129 49 -158 81c18 -44 38 -129 38 -201c0 -23 -44 -19 -107 -19c-30 0 -107 -6 -107 19c0 72 18 157 39 201c-30 -32 -89 -81 -158 -81c-102 0 -169 88 -169 184c0 92 69 177 164 177c43 0 82 -17 120 -36c4 -2 9 -3 14 -3c12 0 18 7 18 15c0 7 -6 14 -11 19
c-63 56 -89 94 -89 166c0 98 85 160 179 160s179 -62 179 -160c0 -72 -25 -110 -89 -166c-5 -5 -11 -12 -11 -19c0 -8 6 -15 18 -15c4 0 9 1 14 3c39 19 77 36 121 36c95 0 163 -85 163 -177z" />
    <glyph glyph-name="club" unicode="&#x2663;" vert-adv-y="1105" 
d="M850 212c0 -96 -66 -184 -168 -184c-69 0 -129 49 -158 81c18 -44 38 -129 38 -201c0 -23 -44 -19 -107 -19c-30 0 -107 -6 -107 19c0 72 18 157 39 201c-30 -32 -89 -81 -158 -81c-102 0 -169 88 -169 184c0 92 69 177 164 177c43 0 82 -17 120 -36c4 -2 9 -3 14 -3
c12 0 18 7 18 15c0 7 -6 14 -11 19c-63 56 -89 94 -89 166c0 98 85 160 179 160s179 -62 179 -160c0 -72 -25 -110 -89 -166c-5 -5 -11 -12 -11 -19c0 -8 6 -15 18 -15c4 0 9 1 14 3c39 19 77 36 121 36c95 0 163 -85 163 -177z" />
    <glyph glyph-name="uni25C9" unicode="&#x25c9;" vert-adv-y="1105" 
d="M610 299c0 -86 -69 -155 -155 -155c-84 0 -155 69 -155 155s71 155 155 155c86 0 155 -69 155 -155zM819 299c0 199 -165 364 -364 364c-198 0 -362 -165 -362 -364c0 -198 164 -362 362 -362c199 0 364 164 364 362zM841 299c0 -214 -172 -386 -386 -386
c-211 0 -386 172 -386 386s175 386 386 386c214 0 386 -172 386 -386z" />
    <glyph glyph-name="uni25C8" unicode="&#x25c8;" vert-adv-y="1105" 
d="M455 568l271 -271l-271 -270l-271 270zM454 -91l389 389l-388 387l-389 -388zM455 728l430 -430l-431 -429l-428 428z" />
    <glyph glyph-name="uni25A3" unicode="&#x25a3;" vert-adv-y="1105" 
d="M688 530v-465h-465v465h465zM118 -39h675v674h-675v-674zM824 666v-736h-737v736h737z" />
    <glyph glyph-name="uni25D0" unicode="&#x25d0;" vert-adv-y="1105" 
d="M806 299c0 192 -159 351 -351 351v-701c192 0 351 158 351 350zM845 299c0 -216 -174 -390 -390 -390c-213 0 -390 174 -390 390s177 390 390 390c216 0 390 -174 390 -390z" />
    <glyph glyph-name="uni25D1" unicode="&#x25d1;" vert-adv-y="1105" 
d="M455 -51v701c-192 0 -351 -159 -351 -351s159 -350 351 -350zM845 299c0 -216 -177 -390 -390 -390c-216 0 -390 174 -390 390s174 390 390 390c213 0 390 -174 390 -390z" />
    <glyph glyph-name="shade" unicode="&#x2592;" vert-adv-y="1105" 
d="M199 19c0 -15 -9 -26 -24 -26s-26 11 -26 26s11 25 26 25c16 0 24 -8 24 -25zM293 19c0 -15 -12 -26 -25 -26c-15 0 -26 11 -26 26s11 25 26 25c13 0 25 -10 25 -25zM199 113c0 -15 -9 -26 -24 -26s-26 11 -26 26c0 13 11 24 26 24s24 -11 24 -24zM293 113
c0 -15 -12 -26 -25 -26c-15 0 -26 11 -26 26c0 13 11 24 26 24c13 0 25 -11 25 -24zM387 19c0 -15 -11 -26 -26 -26s-25 11 -25 26c0 17 8 25 25 25c15 0 26 -10 26 -25zM199 206c0 -15 -9 -26 -24 -26s-26 11 -26 26s11 26 26 26s24 -11 24 -26zM387 113
c0 -15 -11 -26 -26 -26s-25 11 -25 26c0 13 10 24 25 24s26 -11 26 -24zM293 206c0 -15 -12 -26 -25 -26c-15 0 -26 11 -26 26s11 26 26 26c13 0 25 -11 25 -26zM480 19c0 -15 -10 -26 -25 -26c-13 0 -25 11 -25 26s12 25 25 25c17 0 25 -8 25 -25zM199 300
c0 -13 -9 -25 -24 -25s-26 12 -26 25c0 15 11 25 26 25c16 0 24 -8 24 -25zM480 113c0 -15 -10 -26 -25 -26c-13 0 -25 11 -25 26c0 13 12 24 25 24c15 0 25 -11 25 -24zM387 206c0 -15 -11 -26 -26 -26s-25 11 -25 26s10 26 25 26s26 -11 26 -26zM293 300
c0 -13 -12 -25 -25 -25c-15 0 -26 12 -26 25c0 15 11 25 26 25c13 0 25 -10 25 -25zM575 19c0 -15 -11 -26 -26 -26s-26 11 -26 26s11 25 26 25s26 -10 26 -25zM199 394c0 -15 -9 -26 -24 -26s-26 11 -26 26s11 26 26 26s24 -11 24 -26zM575 113c0 -15 -11 -26 -26 -26
s-26 11 -26 26c0 13 11 24 26 24s26 -11 26 -24zM480 206c0 -15 -10 -26 -25 -26c-13 0 -25 11 -25 26s12 26 25 26c15 0 25 -11 25 -26zM387 300c0 -13 -11 -25 -26 -25s-25 12 -25 25c0 17 8 25 25 25c15 0 26 -10 26 -25zM293 394c0 -15 -12 -26 -25 -26
c-15 0 -26 11 -26 26s11 26 26 26c13 0 25 -11 25 -26zM668 19c0 -15 -10 -26 -25 -26s-25 11 -25 26c0 17 8 25 25 25s25 -8 25 -25zM199 487c0 -13 -9 -24 -24 -24s-26 11 -26 24c0 15 11 26 26 26s24 -11 24 -26zM762 19c0 -15 -11 -26 -26 -26s-25 11 -25 26
c0 17 8 25 25 25c15 0 26 -10 26 -25zM668 113c0 -15 -10 -26 -25 -26s-25 11 -25 26c0 13 10 24 25 24s25 -11 25 -24zM575 206c0 -15 -11 -26 -26 -26s-26 11 -26 26s11 26 26 26s26 -11 26 -26zM480 300c0 -13 -10 -25 -25 -25c-13 0 -25 12 -25 25c0 15 12 25 25 25
c17 0 25 -8 25 -25zM387 394c0 -15 -11 -26 -26 -26s-25 11 -25 26s10 26 25 26s26 -11 26 -26zM293 487c0 -13 -12 -24 -25 -24c-15 0 -26 11 -26 24c0 15 11 26 26 26c13 0 25 -11 25 -26zM199 581c0 -17 -8 -25 -24 -25c-15 0 -26 10 -26 25s11 26 26 26s24 -11 24 -26z
M762 113c0 -15 -11 -26 -26 -26s-25 11 -25 26c0 13 10 24 25 24s26 -11 26 -24zM293 581c0 -15 -12 -25 -25 -25c-15 0 -26 10 -26 25s11 26 26 26c13 0 25 -11 25 -26zM668 206c0 -15 -10 -26 -25 -26s-25 11 -25 26s10 26 25 26s25 -11 25 -26zM575 300
c0 -13 -11 -25 -26 -25s-26 12 -26 25c0 15 11 25 26 25s26 -10 26 -25zM480 394c0 -15 -10 -26 -25 -26c-13 0 -25 11 -25 26s12 26 25 26c15 0 25 -11 25 -26zM387 487c0 -13 -11 -24 -26 -24s-25 11 -25 24c0 15 10 26 25 26s26 -11 26 -26zM762 206
c0 -15 -11 -26 -26 -26s-25 11 -25 26s10 26 25 26s26 -11 26 -26zM387 581c0 -15 -11 -25 -26 -25c-17 0 -25 8 -25 25c0 15 10 26 25 26s26 -11 26 -26zM668 300c0 -13 -10 -25 -25 -25s-25 12 -25 25c0 17 8 25 25 25s25 -8 25 -25zM575 394c0 -15 -11 -26 -26 -26
s-26 11 -26 26s11 26 26 26s26 -11 26 -26zM480 487c0 -13 -10 -24 -25 -24c-13 0 -25 11 -25 24c0 15 12 26 25 26c15 0 25 -11 25 -26zM762 300c0 -13 -11 -25 -26 -25s-25 12 -25 25c0 17 8 25 25 25c15 0 26 -10 26 -25zM480 581c0 -17 -8 -25 -25 -25
c-13 0 -25 10 -25 25s12 26 25 26c15 0 25 -11 25 -26zM668 394c0 -15 -10 -26 -25 -26s-25 11 -25 26s10 26 25 26s25 -11 25 -26zM575 487c0 -13 -11 -24 -26 -24s-26 11 -26 24c0 15 11 26 26 26s26 -11 26 -26zM762 394c0 -15 -11 -26 -26 -26s-25 11 -25 26
s10 26 25 26s26 -11 26 -26zM575 581c0 -15 -11 -25 -26 -25s-26 10 -26 25s11 26 26 26s26 -11 26 -26zM668 487c0 -13 -10 -24 -25 -24s-25 11 -25 24c0 15 10 26 25 26s25 -11 25 -26zM762 487c0 -13 -11 -24 -26 -24s-25 11 -25 24c0 15 10 26 25 26s26 -11 26 -26z
M668 581c0 -17 -8 -25 -25 -25s-25 8 -25 25c0 15 10 26 25 26s25 -11 25 -26zM762 581c0 -15 -11 -25 -26 -25c-17 0 -25 8 -25 25c0 15 10 26 25 26s26 -11 26 -26zM116 -41h678v677h-678v-677zM827 669v-743h-744v743h744z" />
    <glyph glyph-name="uni25A4" unicode="&#x25a4;" vert-adv-y="1105" 
d="M116 -41h678v67h-678v-67zM116 58h678v68h-678v-68zM116 158h678v72h-678v-72zM116 262h678v71h-678v-71zM116 365h678v66h-678v-66zM116 463h678v73h-678v-73zM116 568h678v68h-678v-68zM827 669v-743h-744v743h744z" />
    <glyph glyph-name="uni25A5" unicode="&#x25a5;" vert-adv-y="1105" 
d="M116 -41h68v677h-68v-677zM216 -41h73v677h-73v-677zM321 -41h66v677h-66v-677zM419 -41h71v677h-71v-677zM522 -41h72v677h-72v-677zM626 -41h68v677h-68v-677zM726 -41h68v677h-68v-677zM827 669v-743h-744v743h744z" />
    <glyph glyph-name="uni25A8" unicode="&#x25a8;" vert-adv-y="1105" 
d="M116 -17l653 653h-117l-536 -535v-118zM116 149l488 487h-118l-370 -369v-118zM116 315l322 321h-119l-203 -202v-119zM116 482l155 154h-155v-154zM638 -41h156v156zM590 -41l204 204v118l-322 -322h118zM424 -41l370 370v118l-488 -488h118zM258 -41l536 536v118
l-654 -654h118zM827 669v-743h-744v743h744z" />
    <glyph glyph-name="uni25A7" unicode="&#x25a7;" vert-adv-y="1105" 
d="M116 -41h156l-156 156v-156zM320 -41h118l-322 322v-118zM486 -41h118l-488 488v-118zM652 -41h118l-654 654v-118zM141 636l653 -653v118l-536 535h-117zM306 636l488 -487v118l-370 369h-118zM472 636l322 -321v119l-203 202h-119zM639 636l155 -154v154h-155zM827 669
v-743h-744v743h744z" />
    <glyph glyph-name="uni25A6" unicode="&#x25a6;" vert-adv-y="1105" 
d="M116 -41h71v71h-71v-71zM116 60h71v71h-71v-71zM217 -41h71v71h-71v-71zM217 60h71v71h-71v-71zM116 161h71v71h-71v-71zM318 -41h71v71h-71v-71zM318 60h71v71h-71v-71zM217 161h71v71h-71v-71zM116 262h71v71h-71v-71zM419 -41h71v71h-71v-71zM419 60h71v71h-71v-71z
M318 161h71v71h-71v-71zM217 262h71v71h-71v-71zM116 363h71v71h-71v-71zM520 -41h71v71h-71v-71zM520 60h71v71h-71v-71zM419 161h71v71h-71v-71zM318 262h71v71h-71v-71zM217 363h71v71h-71v-71zM116 464h71v71h-71v-71zM621 -41h71v71h-71v-71zM621 60h71v71h-71v-71z
M520 161h71v71h-71v-71zM419 262h71v71h-71v-71zM318 363h71v71h-71v-71zM217 464h71v71h-71v-71zM116 565h71v71h-71v-71zM723 -41h71v71h-71v-71zM621 161h71v71h-71v-71zM520 262h71v71h-71v-71zM419 363h71v71h-71v-71zM318 464h71v71h-71v-71zM217 565h71v71h-71v-71z
M723 60h71v71h-71v-71zM621 262h71v71h-71v-71zM520 363h71v71h-71v-71zM419 464h71v71h-71v-71zM318 565h71v71h-71v-71zM723 161h71v71h-71v-71zM621 363h71v71h-71v-71zM520 464h71v71h-71v-71zM419 565h71v71h-71v-71zM723 262h71v71h-71v-71zM621 464h71v71h-71v-71z
M520 565h71v71h-71v-71zM723 363h71v71h-71v-71zM621 565h71v71h-71v-71zM723 464h71v71h-71v-71zM723 565h71v71h-71v-71zM827 669v-743h-744v743h744z" />
    <glyph glyph-name="uni25A9" unicode="&#x25a9;" vert-adv-y="1105" 
d="M137 -41h135l-68 68zM116 -13l64 64l-64 64v-128zM296 -17l58 60l-67 67l-59 -59zM204 75l59 59l-64 64l-59 -59zM319 -41h119l-59 59zM116 164l59 58l-59 59v-117zM462 -17l59 59l-59 59l-59 -59zM378 66l60 59l-67 68l-60 -59zM287 158l59 59l-64 64l-59 -59zM199 246
l59 59l-59 59l-59 -59zM116 329l59 59l-59 59v-118zM486 -41h118l-59 59zM628 -17l59 59l-59 59l-59 -59zM545 66l59 59l-59 59l-59 -59zM371 241l58 58l-64 65l-59 -59zM282 329l59 59l-59 59l-59 -59zM199 412l59 59l-59 59l-59 -59zM461 150l60 58l-67 68l-59 -60z
M116 495l59 59l-59 59v-118zM652 -41h118l-59 59zM735 42l59 -59v118zM199 578l59 58h-117zM366 411l58 59l-60 59l-58 -58zM711 66l59 59l-59 59l-59 -59zM628 149l59 59l-60 59l-58 -58zM454 323l58 59l-64 64l-58 -59zM282 495l59 58l-60 60l-58 -59zM544 233l60 58
l-68 67l-58 -59zM735 208l59 -59v118zM365 577l59 59h-118zM711 232l59 59l-60 59l-59 -59zM627 315l59 60l-66 66l-59 -59zM537 406l59 59l-65 63l-59 -58zM448 494l60 59l-60 59l-59 -59zM734 374l60 -60v120zM532 576l60 60h-120zM620 488l59 60l-64 64l-60 -59zM710 398
l60 60l-66 67l-61 -60zM703 572l65 64h-129zM727 548l67 -66v133zM827 669v-743h-744v743h744z" />
    <glyph glyph-name="uni2668" unicode="&#x2668;" vert-adv-y="1105" 
d="M853 101c0 -123 -183 -209 -393 -209c-211 0 -404 75 -404 182s153 160 208 176c15 5 19 -12 2 -18c-11 -5 -137 -58 -137 -138c0 -68 172 -102 332 -102c159 0 331 47 331 123c0 55 -79 99 -115 110c-16 5 -9 19 4 16c39 -5 172 -51 172 -140zM383 261
c4 -40 -22 -101 -55 -165c-17 -32 -23 -50 -24 -62c-1 -11 -10 -12 -17 0c-8 17 -16 54 -1 97c14 38 37 141 7 214c-38 91 -18 176 22 250c11 19 19 41 23 60c3 11 11 9 14 1c7 -20 13 -70 -10 -150c-16 -58 30 -145 41 -245zM525 286c11 -59 -43 -151 -62 -189
c-20 -37 -29 -60 -30 -73c-1 -12 -13 -10 -17 -1c-9 21 -15 67 8 123c40 93 9 195 -1 217c-53 123 -6 188 21 244c19 39 23 72 23 93c0 15 10 13 15 2c13 -29 27 -98 3 -164c-34 -97 19 -148 40 -252zM657 298c8 -100 -50 -154 -72 -197c-17 -33 -25 -61 -28 -73
c-3 -7 -10 -12 -14 0c-8 19 -9 68 4 99c24 60 55 152 26 221c-45 101 -29 164 0 233c9 23 13 52 13 69c0 12 7 17 14 2c11 -21 23 -67 12 -143c-13 -92 34 -111 45 -211z" />
    <glyph glyph-name="uni260F" unicode="&#x260f;" vert-adv-y="1105" 
d="M619 210c0 90 -74 164 -164 164s-164 -74 -164 -164s74 -163 164 -163s164 73 164 163zM633 210c0 -97 -80 -178 -178 -178c-97 0 -178 81 -178 178c0 98 81 178 178 178c98 0 178 -80 178 -178zM110 -9h690c9 0 13 52 -11 65c0 35 -8 111 -45 146
c-65 62 -91 83 -111 135c-26 70 -31 131 -27 175h-53v-82h-196v82h-52c4 -44 -2 -105 -28 -175c-20 -52 -45 -73 -110 -135c-37 -35 -45 -111 -45 -146c-24 -13 -20 -65 -12 -65zM859 330c17 4 27 113 -49 177c-60 50 -249 86 -355 86c-139 0 -294 -36 -354 -86
c-78 -63 -64 -173 -49 -177c52 -5 133 23 176 43c16 10 -24 67 -9 104c11 30 36 47 126 47c14 0 29 -1 46 -4c24 -5 41 -8 64 -8c24 0 41 3 64 8c17 3 33 4 47 4c90 0 111 -18 125 -47c15 -37 -25 -94 -8 -104c42 -22 126 -48 176 -43zM369 442h172v71
c-21 -5 -54 -10 -86 -10s-65 5 -86 10v-71zM878 328c-16 -27 -80 -10 -131 3c-41 12 -80 30 -85 54c-6 20 21 60 18 79c-5 27 -32 37 -57 42c-4 -31 -8 -69 11 -132c19 -69 50 -96 92 -130c67 -56 70 -130 70 -169c21 -8 24 -53 21 -80c-1 -12 -14 -16 -34 -16h-656
c-20 0 -33 4 -34 16c-3 27 0 72 21 80c0 39 3 113 70 169c42 34 73 61 92 130c17 63 15 101 11 132c-25 -5 -52 -15 -57 -42c-5 -19 24 -59 18 -79c-5 -24 -44 -42 -85 -54c-51 -13 -115 -30 -131 -3s-9 110 28 157c65 84 235 120 395 120s330 -36 395 -120
c37 -47 44 -130 28 -157z" />
    <glyph glyph-name="uni260E" unicode="&#x260e;" vert-adv-y="1105" 
d="M602 208c0 81 -66 147 -147 147s-147 -66 -147 -147s66 -146 147 -146s147 65 147 146zM377 439h156v65c-19 -5 -49 -10 -78 -10s-59 5 -78 10v-65zM878 328c-16 -27 -80 -10 -131 3c-41 12 -80 30 -85 54c-6 20 19 60 16 79c-5 27 -30 33 -55 37c-4 -31 -8 -64 11 -127
c19 -69 50 -96 92 -130c67 -56 70 -130 70 -169c21 -8 24 -53 21 -80c-1 -12 -14 -16 -34 -16h-656c-20 0 -33 4 -34 16c-3 27 0 72 21 80c0 39 3 113 70 169c42 34 73 61 92 130c17 63 15 96 11 127c-25 -4 -50 -10 -55 -37c-5 -19 22 -59 16 -79c-5 -24 -44 -42 -85 -54
c-51 -13 -115 -30 -131 -3s-9 109 28 156c65 84 235 121 395 121s330 -37 395 -121c37 -47 44 -129 28 -156z" />
    <glyph glyph-name="uni261C" unicode="&#x261c;" vert-adv-y="1105" 
d="M847 420v-236h-76v21h-29c-35 -21 -82 -41 -168 -55c-49 -7 -150 -6 -193 0c-24 4 -50 11 -55 33c-3 16 4 25 15 32c-18 0 -37 13 -38 33c-1 15 4 23 11 30c-18 2 -36 10 -36 33c0 29 24 40 82 40l-3 8c-63 2 -97 3 -171 7c-57 3 -124 2 -124 43c0 34 52 35 118 39
c37 3 176 5 287 5c85 0 176 4 245 -59c21 -5 44 -7 60 -6v32h75zM752 217h20v154c-10 -1 -32 0 -44 3l2 -8c2 -13 0 -13 -7 -5c-11 13 -30 30 -58 49c-41 27 -149 32 -185 27c-19 -2 -47 -12 -66 -24c-10 -6 -16 -16 -22 -27c-5 -11 -11 -19 -19 -24c-5 -7 3 -16 31 -5
c27 10 42 39 48 32c4 -4 1 -10 -4 -15c10 -4 31 -6 41 -4c27 7 40 21 42 16c2 -6 -4 -16 -14 -23c8 -12 37 -38 79 -52c53 -18 92 -10 92 -22c0 -9 -55 -4 -87 5c-55 18 -89 52 -100 67c-6 -4 -16 -4 -23 -4c-19 1 -35 5 -42 7l-15 -13c35 0 61 -9 65 -25
c5 -18 -1 -33 -11 -41c19 -5 29 -14 31 -28c2 -18 -5 -25 -15 -32c18 -4 30 -13 32 -28c2 -20 -12 -32 -13 -33c9 -2 22 -2 35 0c104 9 160 35 202 62c4 4 8 4 7 -1zM429 437c-65 0 -158 -2 -248 -4c-64 -2 -102 -4 -102 -24c0 -21 28 -22 102 -27c83 -4 132 -7 187 -8
l21 32c10 14 22 25 40 31zM787 200h44v203h-44v-203zM490 247c1 20 -8 25 -28 28c-18 2 -95 1 -119 0c-13 -1 -23 -12 -23 -25c0 -9 7 -17 25 -20c14 -3 112 -4 114 -3c13 0 30 6 31 20zM507 194c-1 14 -19 18 -31 18c-36 1 -84 1 -113 -1c-14 -1 -20 -13 -18 -24
c1 -8 7 -16 18 -18c35 -7 81 -7 114 -4c22 1 32 11 30 29zM467 316c0 8 -5 16 -20 17c-49 3 -92 5 -134 0c-13 -2 -20 -12 -19 -22c0 -9 7 -19 20 -19c41 -2 104 -1 134 2c11 2 19 7 19 22z" />
    <glyph glyph-name="uni261E" unicode="&#x261e;" vert-adv-y="1105" 
d="M847 409c0 -41 -67 -40 -124 -43c-74 -4 -108 -5 -171 -7l-3 -8c58 0 82 -11 82 -40c0 -23 -18 -31 -36 -33c7 -7 12 -15 11 -30c-1 -20 -20 -33 -38 -33c11 -7 18 -16 15 -32c-5 -22 -31 -29 -55 -33c-43 -6 -144 -7 -193 0c-86 14 -133 34 -168 55h-29v-21h-76v236h75
v-32c16 -1 39 1 60 6c69 63 160 59 245 59c111 0 250 -2 287 -5c66 -4 118 -5 118 -39zM536 362c-8 5 -14 13 -19 24c-6 11 -12 21 -22 27c-19 12 -47 22 -66 24c-36 5 -144 0 -185 -27c-28 -19 -47 -36 -58 -49c-7 -8 -9 -8 -7 5l2 8c-12 -3 -34 -4 -44 -3v-154h20l-2 8
c-2 7 3 4 7 1c42 -27 98 -53 202 -62c12 -2 25 -2 34 0c-2 0 -16 12 -12 33c2 15 14 24 32 28c-10 7 -17 14 -15 32c3 14 12 23 31 28c-10 8 -16 23 -11 41c5 16 30 25 65 25l-15 13c-7 -2 -23 -6 -42 -7c-7 0 -17 0 -23 4c-11 -15 -45 -49 -100 -67c-32 -9 -87 -14 -87 -5
c0 12 39 4 92 22c42 14 71 40 79 52c-10 7 -16 17 -14 23c2 5 15 -9 42 -16c10 -2 31 0 41 4c-5 5 -8 11 -4 15c6 7 21 -22 48 -32c28 -11 36 -2 31 5zM830 409c0 20 -38 22 -102 24c-90 2 -183 4 -248 4c18 -6 30 -17 40 -31l21 -32c55 1 104 4 187 8c74 5 102 6 102 27z
M78 200h44v203h-44v-203zM589 250c0 13 -10 24 -23 25c-24 1 -101 2 -119 0c-19 -3 -29 -8 -28 -28c1 -14 18 -20 31 -20c2 -1 100 0 114 3c18 3 25 11 25 20zM564 187c2 11 -4 23 -18 24c-29 2 -77 2 -113 1c-12 0 -30 -4 -31 -18c-2 -18 8 -28 30 -29c33 -3 79 -3 114 4
c11 2 17 10 18 18zM615 311c1 10 -6 20 -19 22c-42 5 -85 3 -134 0c-15 -1 -20 -9 -20 -17c0 -15 8 -20 19 -22c30 -3 93 -4 134 -2c13 0 20 10 20 19z" />
    <glyph glyph-name="paragraph" unicode="&#xb6;" horiz-adv-x="574" vert-adv-y="1105" 
d="M298 -122v477h-60c-98 0 -194 55 -194 180c0 99 49 181 210 181h228v-838h-33v809h-116v-809h-35z" />
    <glyph glyph-name="dagger" unicode="&#x2020;" horiz-adv-x="495" vert-adv-y="1105" 
d="M225 -91v540h-159v37h159v206h43v-206h161v-37h-161v-540h-43z" />
    <glyph glyph-name="daggerdbl" unicode="&#x2021;" horiz-adv-x="495" vert-adv-y="1105" 
d="M66 115v37h159v297h-159v37h159v206h43v-206h161v-37h-161v-297h161v-37h-161v-206h-43v206h-159z" />
    <glyph glyph-name="arrowupdn" unicode="&#x2195;" vert-adv-y="1105" 
d="M611 478l-127 75v-418l127 74l17 -15l-173 -208l-173 208l17 15l127 -74v418l-127 -75l-17 15l173 208l173 -208z" />
    <glyph glyph-name="uni2197" unicode="&#x2197;" vert-adv-y="1105" 
d="M142 -11l-41 42l581 581l-142 36l-1 23l269 25l-25 -269l-23 1l-36 142z" />
    <glyph glyph-name="uni2199" unicode="&#x2199;" vert-adv-y="1105" 
d="M768 698l41 -41l-582 -581l142 -37l2 -23l-270 -25l25 270l23 -2l37 -142z" />
    <glyph glyph-name="uni2196" unicode="&#x2196;" vert-adv-y="1105" 
d="M808 31l-41 -42l-582 581l-36 -142l-23 -1l-25 269l269 -25l-1 -23l-142 -36z" />
    <glyph glyph-name="uni2198" unicode="&#x2198;" vert-adv-y="1105" 
d="M101 657l41 41l582 -581l37 142l23 2l25 -270l-270 25l2 23l142 37z" />
    <glyph glyph-name="uni266D" unicode="&#x266d;" horiz-adv-x="517" vert-adv-y="1105" 
d="M344 229c0 71 -29 127 -73 127c-75 0 -109 -71 -109 -118v-214c79 6 182 59 182 205zM418 266c0 -226 -185 -284 -319 -291v665h63v-328c15 42 50 95 140 95c64 0 116 -55 116 -141z" />
    <glyph glyph-name="uni2669" unicode="&#x2669;" horiz-adv-x="388" vert-adv-y="1105" 
d="M288 662v-547c0 -57 -6 -91 -35 -125c-36 -43 -103 -78 -139 -37s2 106 51 135c26 15 53 24 85 29v545h38z" />
    <glyph glyph-name="musicalnote" unicode="&#x266a;" horiz-adv-x="539" vert-adv-y="1105" 
d="M479 339c0 -40 -11 -82 -39 -125c-26 -40 -71 -82 -107 -103c-15 -9 -20 2 -10 12c35 34 99 102 99 193c0 87 -115 121 -174 139v-340c0 -57 -6 -91 -35 -125c-36 -43 -103 -78 -139 -37s2 106 51 135c26 15 53 24 85 29v500c0 17 0 40 9 40s15 -6 31 -24
c17 -20 34 -40 70 -71c115 -99 159 -162 159 -223z" />
    <glyph glyph-name="uni266C" unicode="&#x266c;" horiz-adv-x="693" vert-adv-y="1105" 
d="M251 412l347 74v58l-347 -74v-58zM638 645v-454c0 -46 -29 -87 -67 -119c-35 -29 -91 -52 -121 -13c-23 30 8 87 43 113c38 28 69 33 105 38v182l-347 -75v-223c0 -46 -29 -87 -67 -119c-35 -29 -91 -52 -121 -13c-23 30 8 87 43 113c38 28 69 33 105 38v446z" />
    <glyph glyph-name="uni327F" unicode="&#x327f;" vert-adv-y="1105" 
d="M880 301c0 -232 -171 -425 -426 -425c-215 0 -370 140 -414 331l78 1c40 -153 157 -261 336 -261c206 0 343 147 353 333h-175v72h245c2 -17 3 -34 3 -51zM853 442h-79c-54 126 -160 213 -320 213c-193 0 -321 -130 -349 -303h122v-72h-197v21c0 231 172 424 424 424
c199 0 336 -114 399 -283zM670 532l-178 -182l186 -267h-100l-141 210l-64 -65v-145h-80v449h80v-207l194 207h103z" />
    <glyph glyph-name="uni321C" unicode="&#x321c;" vert-adv-y="1105" 
d="M80 324v-50c0 -152 34 -303 137 -444h-43c-99 118 -147 271 -147 449v40c0 178 48 329 147 447h43c-98 -132 -137 -282 -137 -442zM830 274v50c0 160 -39 310 -137 442h43c99 -118 147 -269 147 -447v-40c0 -178 -48 -331 -147 -449h-43c103 141 137 292 137 444z
M234 590h441v-42h-195v-15c0 -90 87 -112 224 -169l-19 -40c-125 52 -218 99 -229 126c-12 -30 -106 -71 -233 -126c-6 13 -28 56 -19 40c134 57 224 82 224 169v15h-194v42zM161 263h587v-42h-269v-228h-49v228h-269v42z" />
    <glyph glyph-name="afii61352" unicode="&#x2116;" horiz-adv-x="920" vert-adv-y="1105" 
d="M682 510c111 0 157 -72 157 -187v-38c0 -115 -46 -186 -157 -186c-112 0 -158 71 -158 186v38c0 117 46 187 158 187zM90 695h56l248 -615c3 -9 7 -22 10 -35v650h44v-721h-56l-248 615c-3 7 -8 22 -10 35v-650h-44v721zM682 140c80 0 113 51 113 150v29
c0 99 -33 148 -113 148c-81 0 -114 -49 -114 -148v-29c0 -99 33 -150 114 -150zM540 -26v51h285v-51h-285z" />
    <glyph glyph-name="uni33C7" unicode="&#x33c7;" horiz-adv-x="920" vert-adv-y="1105" 
d="M838 -26v58h41v-58h-41zM645 -37c-151 0 -191 124 -191 330v83c0 208 43 330 191 330c149 0 191 -122 191 -330v-83c0 -206 -40 -330 -191 -330zM645 665c-116 0 -145 -115 -145 -290v-81c0 -175 29 -290 145 -290c115 0 145 115 145 290v81c0 175 -30 290 -145 290z
M404 75l33 -31c-32 -41 -89 -81 -170 -81c-171 0 -223 125 -223 337v88c0 194 62 318 214 318c96 0 146 -46 166 -65l-30 -38c-38 37 -73 58 -134 58c-146 0 -170 -149 -170 -273v-85c0 -184 42 -295 179 -295c46 0 103 23 135 67z" />
    <glyph glyph-name="trademark" unicode="&#x2122;" horiz-adv-x="717" vert-adv-y="1105" 
d="M341 369v326h56l105 -222h1l102 222h57v-326h-37v286h-1l-102 -220h-39l-105 220h-1v-286h-36zM143 369v290h-113v36h264v-36h-113v-290h-38z" />
    <glyph glyph-name="uni33C2" unicode="&#x33c2;" vert-adv-y="1105" 
d="M250 374v-400h-36v50c-13 -29 -40 -57 -90 -57c-55 0 -100 44 -100 144v29c0 100 63 143 134 143h48v79c0 109 -32 118 -67 118c-29 0 -53 -11 -81 -39l-27 32c27 26 65 50 108 50c59 0 111 -27 111 -149zM207 88v158h-54c-47 0 -84 -25 -84 -110v-18
c0 -95 33 -114 62 -114c55 0 76 43 76 84zM366 -26v539h43v-56c18 40 62 66 99 66c35 0 78 -11 94 -70c17 41 54 70 104 70c59 0 102 -39 102 -135v-414h-44v396c0 69 -13 111 -70 111c-62 0 -85 -61 -85 -107v-400h-44v405c0 70 -13 102 -67 102c-59 0 -88 -59 -88 -113
v-394h-44zM840 -26v58h41v-58h-41zM294 -26v58h41v-58h-41z" />
    <glyph glyph-name="uni33D8" unicode="&#x33d8;" vert-adv-y="1105" 
d="M91 43v-283h-44v753h38v-56c17 42 52 66 93 66c79 0 109 -70 109 -221v-115c0 -171 -43 -221 -105 -221c-40 0 -77 22 -91 77zM243 191v111c0 88 -14 179 -70 179c-74 0 -82 -82 -82 -147v-171c0 -63 28 -155 82 -155c57 0 70 48 70 183zM297 -26v58h41v-58h-41zM838 -26
v58h41v-58h-41zM378 -26v539h43v-56c18 40 59 66 96 66c35 0 75 -11 91 -70c17 41 51 70 101 70c58 0 99 -39 99 -135v-414h-44v396c0 61 -8 111 -67 111c-62 0 -82 -61 -82 -107v-400h-44v405c0 68 -10 102 -64 102c-59 0 -85 -59 -85 -113v-394h-44z" />
    <glyph glyph-name="uni2121" unicode="&#x2121;" horiz-adv-x="1048" vert-adv-y="1105" 
d="M405 513h273v-40h-229v-200h208v-40h-208v-219h236v-40h-280v539zM250 -26h-43v681h-195v40h437v-40h-199v-681zM771 513h44v-499h221v-40h-265v539z" />
    <glyph glyph-name="uniFF01" unicode="&#xff01;" vert-adv-y="1105" 
d="M420 -50v84h70v-84h-70zM473 145h-36l-8 560h52z" />
    <glyph glyph-name="uniFF02" unicode="&#xff02;" vert-adv-y="1105" 
d="M411 488h-36l-8 238h52zM535 488h-36l-8 238h52z" />
    <glyph glyph-name="uniFF03" unicode="&#xff03;" vert-adv-y="1105" 
d="M558 248h113v-38h-117l-34 -236h-38l34 236h-157l-33 -236h-39l34 236h-113v38h117l25 178h-111v38h116l33 231h38l-33 -231h156l33 231h39l-34 -231h115v-38h-119zM520 248l25 178h-157l-25 -178h157z" />
    <glyph glyph-name="uniFF04" unicode="&#xff04;" vert-adv-y="1105" 
d="M442 -93v78c-84 3 -164 28 -228 76l24 34c76 -57 150 -70 204 -71v301l-10 3c-184 43 -201 99 -201 169v23c0 114 112 159 211 163v68h36v-68c82 -4 148 -29 190 -59l-23 -32c-42 27 -97 49 -167 52v-285c171 -45 217 -81 217 -176v-26c0 -89 -79 -164 -217 -171v-79h-36
zM654 182c0 65 -27 95 -176 134v-291c109 7 176 63 176 133v24zM272 498c0 -62 23 -92 170 -130v276c-75 -4 -170 -38 -170 -125v-21z" />
    <glyph glyph-name="uniFF05" unicode="&#xff05;" vert-adv-y="1105" 
d="M260 -25h-44l437 720h43zM254 700c94 0 150 -58 150 -163v-48c0 -105 -56 -163 -150 -163s-150 58 -150 163v48c0 105 56 163 150 163zM254 363c59 0 110 29 110 128v44c0 98 -51 128 -110 128s-110 -30 -110 -128v-44c0 -99 51 -128 110 -128zM656 340
c94 0 150 -58 150 -163v-48c0 -105 -56 -163 -150 -163s-150 58 -150 163v48c0 105 56 163 150 163zM656 3c59 0 110 29 110 128v44c0 98 -51 128 -110 128s-110 -30 -110 -128v-44c0 -99 51 -128 110 -128z" />
    <glyph glyph-name="uniFF06" unicode="&#xff06;" vert-adv-y="1105" 
d="M711 -26l-80 92c-56 -64 -135 -103 -232 -103h-6c-121 0 -224 71 -224 168v25c0 96 50 136 198 217l-20 24c-46 54 -88 99 -88 160v15c0 61 51 134 167 134c110 0 166 -73 166 -132v-19c0 -67 -37 -119 -165 -192l202 -236c38 60 58 136 59 214h39
c-2 -95 -27 -180 -72 -245l105 -122h-49zM397 0c90 0 160 37 209 96l-214 248c-109 -61 -182 -98 -182 -192v-18c0 -72 79 -134 187 -134zM299 559c0 -56 45 -99 103 -167c114 64 151 107 151 167v11c0 57 -49 99 -127 99c-76 0 -127 -39 -127 -99v-11z" />
    <glyph glyph-name="uniFF07" unicode="&#xff07;" vert-adv-y="1105" 
d="M473 488h-36l-8 238h52z" />
    <glyph glyph-name="uniFF08" unicode="&#xff08;" vert-adv-y="1105" 
d="M744 324v-50c0 -152 36 -303 139 -444h-42c-99 118 -146 280 -146 449v40c0 169 47 329 146 447h42c-98 -132 -139 -282 -139 -442z" />
    <glyph glyph-name="uniFF09" unicode="&#xff09;" vert-adv-y="1105" 
d="M166 274v50c0 160 -41 310 -139 442h42c99 -118 146 -278 146 -447v-40c0 -169 -47 -331 -146 -449h-42c103 141 139 292 139 444z" />
    <glyph glyph-name="uniFF0A" unicode="&#xff0a;" vert-adv-y="1105" 
d="M439 506l-141 -88l-21 37l150 79l-150 78l21 37l141 -88l-8 168h46l-7 -168l142 88l20 -37l-150 -78l150 -79l-20 -37l-142 88l7 -167h-46z" />
    <glyph glyph-name="uniFF0B" unicode="&#xff0b;" vert-adv-y="1105" 
d="M433 565h44v-224h218v-42h-218v-238h-44v238h-218v42h218v224z" />
    <glyph glyph-name="uniFF0C" unicode="&#xff0c;" vert-adv-y="1105" 
d="M403 -175l36 223h67l-59 -223h-44z" />
    <glyph glyph-name="uniFF0D" unicode="&#xff0d;" vert-adv-y="1105" 
d="M306 312v44h298v-44h-298z" />
    <glyph glyph-name="uniFF0E" unicode="&#xff0e;" vert-adv-y="1105" 
d="M413 -47v90h84v-90h-84z" />
    <glyph glyph-name="uniFF0F" unicode="&#xff0f;" vert-adv-y="1105" 
d="M583 757h44l-300 -879h-44z" />
    <glyph glyph-name="uniFF10" unicode="&#xff10;" vert-adv-y="1105" 
d="M690 391v-112c0 -204 -67 -316 -237 -316c-168 0 -233 114 -233 316v112c0 202 68 315 233 315c167 0 237 -113 237 -315zM647 278v114c0 177 -52 274 -194 274c-138 0 -190 -98 -190 -274v-114c0 -178 52 -275 190 -275c142 0 194 96 194 275z" />
    <glyph glyph-name="uniFF11" unicode="&#xff11;" vert-adv-y="1105" 
d="M588 -26h-44v661l-202 -122l-20 35l240 147h26v-721z" />
    <glyph glyph-name="uniFF12" unicode="&#xff12;" vert-adv-y="1105" 
d="M233 11l304 356c65 76 70 108 70 155v8c0 84 -55 136 -158 136c-75 0 -134 -34 -181 -118l-36 21c37 69 102 137 215 137c121 0 203 -66 203 -174v-10c0 -66 -21 -108 -82 -181l-275 -325h384v-42h-444v37z" />
    <glyph glyph-name="uniFF13" unicode="&#xff13;" vert-adv-y="1105" 
d="M284 570l-35 24c31 54 99 112 204 112c125 0 208 -72 208 -180v-10c0 -57 -28 -130 -131 -164c101 -17 159 -82 159 -167v-15c0 -100 -60 -207 -237 -207c-84 0 -163 26 -231 80l25 37c69 -56 142 -76 206 -76c147 0 193 96 193 165v13c0 126 -119 148 -185 148h-80v40
h78c65 0 159 40 159 149v8c0 81 -60 138 -163 138c-60 0 -123 -21 -170 -95z" />
    <glyph glyph-name="uniFF14" unicode="&#xff14;" vert-adv-y="1105" 
d="M561 422h44v-238h112v-43h-112v-167h-44v167h-368v43l361 511h52l-362 -511h317v238z" />
    <glyph glyph-name="uniFF15" unicode="&#xff15;" vert-adv-y="1105" 
d="M645 174v17c0 125 -66 180 -180 180c-73 0 -119 -31 -154 -66h-50l23 390h360v-41h-320l-17 -305c34 34 95 63 163 63c128 0 219 -74 219 -218v-19c0 -97 -60 -212 -237 -212c-84 0 -163 26 -231 80l25 37c69 -56 142 -76 206 -76c147 0 193 101 193 170z" />
    <glyph glyph-name="uniFF16" unicode="&#xff16;" vert-adv-y="1105" 
d="M662 657l-19 -35c-47 29 -94 44 -156 44c-162 0 -212 -144 -223 -356c31 75 113 119 200 119c134 0 223 -83 223 -219v-22c0 -146 -103 -225 -228 -225c-123 0 -237 85 -237 298v18c0 303 95 427 262 427c75 0 138 -24 178 -49zM272 214v-6c0 -123 82 -205 187 -205
c103 0 184 64 184 186v13c0 120 -64 189 -182 189c-113 0 -189 -80 -189 -177z" />
    <glyph glyph-name="uniFF17" unicode="&#xff17;" vert-adv-y="1105" 
d="M691 664l-304 -690h-49l304 680h-423v41h472v-31z" />
    <glyph glyph-name="uniFF18" unicode="&#xff18;" vert-adv-y="1105" 
d="M289 524v-13c0 -85 62 -150 167 -150c104 0 165 65 165 150v13c0 80 -61 142 -166 142c-109 0 -166 -62 -166 -142zM268 165v-13c0 -80 67 -149 187 -149c122 0 187 69 187 149v13c0 96 -76 159 -187 159c-108 0 -187 -60 -187 -159zM226 153v17c0 79 51 148 144 172
c-69 30 -121 84 -121 170v18c0 103 88 176 206 176s206 -73 206 -176v-18c0 -86 -53 -142 -123 -170c96 -25 146 -93 146 -172v-17c0 -115 -96 -190 -229 -190s-229 75 -229 190z" />
    <glyph glyph-name="uniFF19" unicode="&#xff19;" vert-adv-y="1105" 
d="M247 12l19 35c47 -29 94 -44 156 -44c162 0 217 117 223 353c-31 -75 -113 -119 -200 -119c-134 0 -223 83 -223 219v25c0 146 103 225 228 225c127 0 237 -83 237 -296v-25c0 -325 -99 -422 -262 -422c-75 0 -138 24 -178 49zM637 452v9c0 125 -78 205 -187 205
c-103 0 -184 -64 -184 -186v-16c0 -120 64 -189 182 -189c113 0 189 80 189 177z" />
    <glyph glyph-name="uniFF1A" unicode="&#xff1a;" vert-adv-y="1105" 
d="M413 32v90h84v-90h-84zM413 470v90h84v-90h-84z" />
    <glyph glyph-name="uniFF1B" unicode="&#xff1b;" vert-adv-y="1105" 
d="M425 470v90h84v-90h-84zM401 -95l36 223h67l-59 -223h-44z" />
    <glyph glyph-name="uniFF1C" unicode="&#xff1c;" vert-adv-y="1105" 
d="M265 323v-2l424 -224v-47l-468 252v39l468 252v-47z" />
    <glyph glyph-name="uniFF1D" unicode="&#xff1d;" vert-adv-y="1105" 
d="M234 403v45h442v-45h-442zM234 192v45h442v-45h-442z" />
    <glyph glyph-name="uniFF1E" unicode="&#xff1e;" vert-adv-y="1105" 
d="M645 321v2l-424 223v47l468 -252v-39l-468 -252v47z" />
    <glyph glyph-name="uniFF1F" unicode="&#xff1f;" vert-adv-y="1105" 
d="M456 141h-42v48c0 141 199 189 199 319v19c0 93 -74 137 -157 137c-72 0 -125 -27 -174 -79l-29 29c39 43 108 92 201 92c125 0 203 -69 203 -178v-20c0 -154 -201 -194 -201 -322v-45zM400 -50v84h70v-84h-70z" />
    <glyph glyph-name="uniFF20" unicode="&#xff20;" vert-adv-y="1105" 
d="M717 48c-53 0 -104 27 -123 87h-1c-28 -64 -109 -85 -156 -85c-113 0 -176 71 -176 192v77c0 122 74 191 179 191c60 0 120 -24 145 -64v56h45v-330c0 -56 45 -82 88 -82c66 0 128 50 128 204v14c0 229 -128 384 -400 384c-230 0 -382 -155 -382 -396v-17
c0 -247 139 -411 401 -411c105 0 210 22 294 67l17 -38c-83 -45 -189 -70 -308 -70c-273 0 -447 170 -447 451v19c0 252 160 436 425 436c291 0 443 -174 443 -422v-14c0 -108 -34 -249 -172 -249zM305 314v-67c0 -118 56 -156 139 -156c90 0 142 62 142 143v126
c0 54 -59 109 -142 109c-89 0 -139 -58 -139 -155z" />
    <glyph glyph-name="uniFF21" unicode="&#xff21;" vert-adv-y="1105" 
d="M704 -26l-86 233h-326l-88 -233h-48l278 721h44l275 -721h-49zM396 479l-89 -233h296l-86 233c-21 58 -44 113 -61 169c-16 -56 -38 -111 -60 -169z" />
    <glyph glyph-name="uniFF22" unicode="&#xff22;" vert-adv-y="1105" 
d="M217 -26v721h223c151 0 220 -57 220 -175v-23c0 -63 -32 -123 -118 -144c96 -13 151 -63 151 -163v-27c0 -118 -64 -189 -220 -189h-256zM260 332v-318h217c114 0 171 48 171 149v24c0 94 -54 145 -198 145h-190zM444 655h-184v-284h189c100 0 167 39 167 129v20
c0 85 -46 135 -172 135z" />
    <glyph glyph-name="uniFF23" unicode="&#xff23;" vert-adv-y="1105" 
d="M684 78l26 -33c-29 -26 -105 -82 -228 -82c-202 0 -283 137 -283 343v77c0 198 92 323 271 323c93 0 169 -28 222 -67l-24 -34c-59 40 -112 59 -198 59c-145 0 -226 -105 -226 -269v-100c0 -189 83 -290 240 -290c95 0 166 43 200 73z" />
    <glyph glyph-name="uniFF24" unicode="&#xff24;" vert-adv-y="1105" 
d="M205 695h213c185 0 287 -110 287 -309v-103c0 -199 -115 -309 -287 -309h-213v721zM249 653v-637h174c130 0 237 89 237 267v98c0 182 -87 272 -238 272h-173z" />
    <glyph glyph-name="uniFF25" unicode="&#xff25;" vert-adv-y="1105" 
d="M241 695h421v-41h-377v-290h356v-40h-356v-309h384v-41h-428v721z" />
    <glyph glyph-name="uniFF26" unicode="&#xff26;" vert-adv-y="1105" 
d="M249 695h412v-41h-368v-309h347v-40h-347v-331h-44v721z" />
    <glyph glyph-name="uniFF27" unicode="&#xff27;" vert-adv-y="1105" 
d="M670 50v257h-180v42h223v-324c-29 -26 -111 -62 -228 -62c-202 0 -288 137 -288 343v77c0 198 97 323 276 323c93 0 172 -28 225 -67l-24 -34c-59 40 -115 59 -201 59c-145 0 -231 -105 -231 -269v-100c0 -189 88 -290 245 -290c69 0 142 16 183 45z" />
    <glyph glyph-name="uniFF28" unicode="&#xff28;" vert-adv-y="1105" 
d="M656 695h44v-721h-44v358h-403v-358h-44v721h44v-322h403v322z" />
    <glyph glyph-name="uniFF29" unicode="&#xff29;" vert-adv-y="1105" 
d="M433 695h44v-721h-44v721z" />
    <glyph glyph-name="uniFF2A" unicode="&#xff2a;" vert-adv-y="1105" 
d="M624 695v-545c0 -134 -76 -187 -177 -187c-61 0 -117 17 -161 51l22 35c43 -33 89 -46 137 -46c92 0 135 50 135 148v544h44z" />
    <glyph glyph-name="uniFF2B" unicode="&#xff2b;" vert-adv-y="1105" 
d="M689 695l-298 -305l316 -416h-54l-293 385l-114 -117v-268h-44v721h44v-397l383 397h60z" />
    <glyph glyph-name="uniFF2C" unicode="&#xff2c;" vert-adv-y="1105" 
d="M246 695h44v-680h374v-41h-418v721z" />
    <glyph glyph-name="uniFF2D" unicode="&#xff2d;" vert-adv-y="1105" 
d="M437 94l-203 413c-21 41 -40 81 -56 118v-651h-43v721h50l272 -551l266 551h52v-721h-43v643c-19 -44 -37 -80 -59 -123l-198 -400h-38z" />
    <glyph glyph-name="uniFF2E" unicode="&#xff2e;" vert-adv-y="1105" 
d="M208 695h60l359 -611c8 -13 23 -44 31 -61v672h43v-721h-60l-359 611c-11 19 -23 44 -31 61v-672h-43v721z" />
    <glyph glyph-name="uniFF2F" unicode="&#xff2f;" vert-adv-y="1105" 
d="M732 380v-91c0 -190 -93 -326 -277 -326s-277 136 -277 326v91c0 190 93 326 277 326s277 -136 277 -326zM687 290v89c0 186 -89 286 -232 286s-232 -100 -232 -286v-89c0 -186 89 -286 232 -286s232 100 232 286z" />
    <glyph glyph-name="uniFF30" unicode="&#xff30;" vert-adv-y="1105" 
d="M226 -26v721h225c151 0 232 -71 232 -204v-22c0 -135 -84 -205 -235 -205h-178v-290h-44zM451 654h-181v-349h173c144 0 195 64 195 165v19c0 99 -51 165 -187 165z" />
    <glyph glyph-name="uniFF31" unicode="&#xff31;" vert-adv-y="1105" 
d="M723 380v-91c0 -98 -24 -182 -73 -240l85 -84l-30 -31l-85 85c-43 -36 -100 -56 -171 -56c-184 0 -274 136 -274 326v91c0 190 90 326 274 326s274 -136 274 -326zM678 290v89c0 186 -86 286 -229 286s-229 -100 -229 -286v-89c0 -186 86 -286 229 -286
c56 0 104 15 141 45l-108 109l30 31l108 -109c37 48 58 119 58 210z" />
    <glyph glyph-name="uniFF32" unicode="&#xff32;" vert-adv-y="1105" 
d="M218 -26v721h219c145 0 237 -53 237 -186v-22c0 -101 -53 -160 -141 -183l159 -330h-47l-156 321c-17 -2 -36 -3 -55 -3h-172v-318h-44zM437 654h-175v-321h167c138 0 200 54 200 155v19c0 99 -62 147 -192 147z" />
    <glyph glyph-name="uniFF33" unicode="&#xff33;" vert-adv-y="1105" 
d="M454 5c124 0 196 67 196 141v26c0 81 -27 114 -218 155c-184 40 -200 110 -200 180v25c0 120 117 174 225 174c95 0 166 -25 211 -58l-21 -36c-46 30 -109 52 -190 52c-85 0 -181 -40 -181 -133v-23c0 -63 20 -106 175 -141c194 -45 243 -79 243 -194v-28
c0 -94 -86 -182 -239 -182c-88 0 -172 26 -240 76l22 37c88 -62 160 -71 217 -71z" />
    <glyph glyph-name="uniFF34" unicode="&#xff34;" vert-adv-y="1105" 
d="M477 -26h-44v680h-240v41h524v-41h-240v-680z" />
    <glyph glyph-name="uniFF35" unicode="&#xff35;" vert-adv-y="1105" 
d="M455 4c113 0 207 61 207 257v434h44v-448c0 -186 -98 -284 -251 -284s-251 98 -251 284v448h44v-434c0 -196 94 -257 207 -257z" />
    <glyph glyph-name="uniFF36" unicode="&#xff36;" vert-adv-y="1105" 
d="M166 695h49l242 -668l240 668h47l-263 -721h-51z" />
    <glyph glyph-name="uniFF37" unicode="&#xff37;" vert-adv-y="1105" 
d="M850 695h44l-202 -721h-52l-186 665l-184 -665h-52l-202 721h47l181 -663l186 663h50l187 -662z" />
    <glyph glyph-name="uniFF38" unicode="&#xff38;" vert-adv-y="1105" 
d="M718 695l-228 -346l242 -375h-54l-219 346l-230 -346h-52l254 373l-241 348h52l219 -321l207 321h50z" />
    <glyph glyph-name="uniFF39" unicode="&#xff39;" vert-adv-y="1105" 
d="M723 695l-243 -422v-299h-44v299l-249 422h47l225 -382l216 382h48z" />
    <glyph glyph-name="uniFF3A" unicode="&#xff3a;" vert-adv-y="1105" 
d="M697 695v-35l-449 -646h468v-40h-522v35l449 646h-424v40h478z" />
    <glyph glyph-name="uniFF3B" unicode="&#xff3b;" vert-adv-y="1105" 
d="M870 -132v-38h-206v936h206v-38h-165v-860h165z" />
    <glyph glyph-name="uniFFE6" unicode="&#xffe6;" vert-adv-y="1105" 
d="M24 353v38h109l-76 304h44l73 -304h178l77 304h48l77 -304h180l74 304h41l-76 -304h112v-38h-122l-94 -379h-49l-96 379h-144l-94 -379h-49l-95 379h-118zM564 353l82 -322l78 322h-160zM183 353l78 -323l81 323h-159zM452 641l-62 -250h125z" />
    <glyph glyph-name="uniFF3D" unicode="&#xff3d;" vert-adv-y="1105" 
d="M40 -170v38h165v860h-165v38h206v-936h-206z" />
    <glyph glyph-name="uniFF3E" unicode="&#xff3e;" vert-adv-y="1105" 
d="M663 401h-46l-162 281l-162 -281h-46l189 323h39z" />
    <glyph glyph-name="uniFF3F" unicode="&#xff3f;" vert-adv-y="1105" 
d="M685 -75v-43h-460v43h460z" />
    <glyph glyph-name="uniFF40" unicode="&#xff40;" vert-adv-y="1105" 
d="M532 571h-42l-112 134h53z" />
    <glyph glyph-name="uniFF41" unicode="&#xff41;" vert-adv-y="1105" 
d="M435 -34c-99 0 -174 53 -174 154v15c0 81 56 145 181 145h163v65c0 87 -48 134 -142 134c-58 0 -109 -21 -158 -54l-21 33c47 33 109 60 182 60c111 0 182 -61 182 -171v-373h-43v75h-1c-10 -19 -29 -41 -56 -56c-29 -16 -64 -27 -113 -27zM605 129v114h-162
c-102 0 -137 -49 -137 -107v-16c0 -87 69 -116 132 -116c35 0 66 5 97 21c42 21 70 61 70 104z" />
    <glyph glyph-name="uniFF42" unicode="&#xff42;" vert-adv-y="1105" 
d="M288 730v-310c27 54 90 98 172 98c127 0 205 -80 205 -227v-98c0 -148 -87 -227 -212 -227c-64 0 -134 27 -166 76v-68h-42v756h43zM287 315v-181c0 -69 68 -129 168 -129s167 69 167 194v86c0 126 -55 194 -166 194c-78 0 -169 -59 -169 -164z" />
    <glyph glyph-name="uniFF43" unicode="&#xff43;" vert-adv-y="1105" 
d="M467 518c62 0 125 -16 170 -50l-19 -33c-49 33 -98 44 -151 44c-113 0 -170 -80 -170 -196v-76c0 -120 56 -202 174 -202c75 0 128 23 164 53l21 -33c-37 -31 -100 -59 -186 -59c-130 0 -216 80 -216 242v72c0 144 78 238 213 238z" />
    <glyph glyph-name="uniFF44" unicode="&#xff44;" vert-adv-y="1105" 
d="M623 -26v90c-27 -54 -92 -98 -174 -98c-128 0 -204 80 -204 227v98c0 148 88 227 212 227c64 0 133 -27 165 -76v288h43v-756h-42zM623 169v181c0 69 -68 129 -168 129s-167 -69 -167 -194v-86c0 -126 55 -194 166 -194c78 0 169 59 169 164z" />
    <glyph glyph-name="uniFF45" unicode="&#xff45;" vert-adv-y="1105" 
d="M456 480c-106 0 -172 -77 -172 -203v-10h342c0 140 -59 213 -170 213zM463 4c75 0 136 23 172 53l21 -32c-37 -31 -106 -59 -192 -59c-152 0 -222 103 -222 240v76c0 140 82 236 214 236c141 0 212 -99 212 -246v-40h-384v-19c0 -137 68 -209 179 -209z" />
    <glyph glyph-name="uniFF46" unicode="&#xff46;" vert-adv-y="1105" 
d="M395 -26v497h-92v36h92v80c0 124 73 149 138 149c26 0 56 -5 73 -11l-6 -35c-21 6 -40 9 -66 9c-69 0 -95 -39 -95 -114v-78h151v-36h-151v-497h-44z" />
    <glyph glyph-name="uniFF47" unicode="&#xff47;" vert-adv-y="1105" 
d="M623 179v171c0 69 -68 129 -168 129s-167 -69 -167 -194v-76c0 -126 55 -194 166 -194c78 0 169 59 169 164zM622 74c-27 -54 -91 -98 -173 -98c-128 0 -204 80 -204 227v88c0 148 88 227 212 227c64 0 134 -27 166 -76v65h42v-537c0 -158 -90 -217 -198 -217
c-75 0 -126 19 -176 54l22 35c52 -36 96 -50 149 -50c86 0 160 46 160 178v104z" />
    <glyph glyph-name="uniFF48" unicode="&#xff48;" vert-adv-y="1105" 
d="M656 341v-367h-43v354c0 93 -40 151 -149 151c-115 0 -168 -95 -168 -143v-362h-43v756h43v-305c19 37 75 93 175 93c134 0 185 -85 185 -177z" />
    <glyph glyph-name="uniFF49" unicode="&#xff49;" vert-adv-y="1105" 
d="M433 507h43v-533h-43v533zM429 682h51v-59h-51v59z" />
    <glyph glyph-name="uniFF4A" unicode="&#xff4a;" vert-adv-y="1105" 
d="M554 507v-609c0 -124 -53 -145 -126 -145c-23 0 -54 5 -77 13l8 36c26 -8 49 -12 72 -12c64 0 80 30 80 112v605h43zM507 682h51v-59h-51v59z" />
    <glyph glyph-name="uniFF4B" unicode="&#xff4b;" vert-adv-y="1105" 
d="M634 507l-207 -200l233 -333h-51l-212 303l-104 -100v-203h-43v756h43v-498l282 275h59z" />
    <glyph glyph-name="uniFF4C" unicode="&#xff4c;" vert-adv-y="1105" 
d="M433 730h43v-756h-43v756z" />
    <glyph glyph-name="uniFF4D" unicode="&#xff4d;" vert-adv-y="1105" 
d="M801 341v-367h-43v354c0 92 -30 151 -131 151c-107 0 -151 -91 -151 -139v-366h-43v354c0 92 -31 151 -132 151c-107 0 -150 -95 -150 -143v-362h-43v533h42v-82c19 37 65 93 158 93c90 0 137 -44 156 -103c26 56 85 103 170 103c125 0 167 -86 167 -177z" />
    <glyph glyph-name="uniFF4E" unicode="&#xff4e;" vert-adv-y="1105" 
d="M656 341v-367h-43v354c0 93 -40 151 -149 151c-115 0 -168 -95 -168 -143v-362h-43v533h42v-82c19 37 76 93 176 93c134 0 185 -85 185 -177z" />
    <glyph glyph-name="uniFF4F" unicode="&#xff4f;" vert-adv-y="1105" 
d="M455 518c138 0 219 -89 219 -241v-70c0 -152 -81 -241 -219 -241s-219 89 -219 241v70c0 153 81 241 219 241zM455 3c108 0 176 66 176 204v70c0 138 -68 204 -176 204s-176 -66 -176 -204v-70c0 -138 68 -204 176 -204z" />
    <glyph glyph-name="uniFF50" unicode="&#xff50;" vert-adv-y="1105" 
d="M287 507v-87c27 54 91 98 173 98c127 0 205 -80 205 -227v-98c0 -148 -87 -227 -212 -227c-64 0 -133 27 -165 76v-282h-43v747h42zM286 315v-181c0 -69 69 -129 169 -129s167 69 167 194v86c0 126 -55 194 -166 194c-78 0 -170 -59 -170 -164z" />
    <glyph glyph-name="uniFF51" unicode="&#xff51;" vert-adv-y="1105" 
d="M622 -240v304c-27 -54 -91 -98 -173 -98c-128 0 -204 80 -204 227v98c0 148 88 227 212 227c64 0 134 -27 166 -76v65h42v-747h-43zM624 169v181c0 69 -69 129 -169 129s-167 -69 -167 -194v-86c0 -126 55 -194 166 -194c78 0 170 59 170 164z" />
    <glyph glyph-name="uniFF52" unicode="&#xff52;" vert-adv-y="1105" 
d="M591 506l-13 -40c-17 6 -38 10 -64 10c-102 0 -153 -86 -153 -202v-300h-43v533h42v-103c19 57 71 114 157 114c30 0 53 -4 74 -12z" />
    <glyph glyph-name="uniFF53" unicode="&#xff53;" vert-adv-y="1105" 
d="M454 4c102 0 158 49 158 103v13c0 71 -40 89 -168 113c-100 19 -171 52 -171 136v16c0 73 63 133 185 133c84 0 145 -24 178 -49l-18 -31c-54 33 -98 42 -164 42c-90 0 -140 -37 -140 -96v-13c0 -65 65 -85 150 -101c132 -25 186 -52 186 -147v-18
c0 -91 -92 -139 -192 -139c-82 0 -153 28 -198 62l21 34c49 -35 114 -58 173 -58z" />
    <glyph glyph-name="uniFF54" unicode="&#xff54;" vert-adv-y="1105" 
d="M396 116v355h-93v36h93v138h43v-138h151v-36h-151v-344c0 -79 14 -120 82 -120c31 0 54 4 79 11l7 -35c-20 -7 -58 -13 -82 -13c-74 0 -129 22 -129 146z" />
    <glyph glyph-name="uniFF55" unicode="&#xff55;" vert-adv-y="1105" 
d="M256 143v364h43v-352c0 -62 15 -151 139 -151c119 0 173 96 173 136v367h43v-533h-42v84c-13 -29 -80 -92 -172 -92c-140 0 -184 85 -184 177z" />
    <glyph glyph-name="uniFF56" unicode="&#xff56;" vert-adv-y="1105" 
d="M457 26l174 481h45l-199 -533h-42l-202 533h46z" />
    <glyph glyph-name="uniFF57" unicode="&#xff57;" vert-adv-y="1105" 
d="M631 26l130 481h40l-151 -533h-40l-156 481l-152 -481h-40l-154 533h43l133 -481l152 481h38z" />
    <glyph glyph-name="uniFF58" unicode="&#xff58;" vert-adv-y="1105" 
d="M665 507l-181 -258l194 -275h-54l-168 246l-172 -246h-53l196 271l-181 262h51l159 -233l158 233h51z" />
    <glyph glyph-name="uniFF59" unicode="&#xff59;" vert-adv-y="1105" 
d="M458 21l173 486h46l-278 -753l-40 14l75 199l-201 540h45z" />
    <glyph glyph-name="uniFF5A" unicode="&#xff5a;" vert-adv-y="1105" 
d="M646 507v-30l-342 -467h355v-36h-408v30l342 467h-322v36h375z" />
    <glyph glyph-name="uniFF5B" unicode="&#xff5b;" vert-adv-y="1105" 
d="M657 -45v245c0 62 -41 87 -114 88v45c73 1 114 26 114 86v222c0 94 51 125 132 125h79v-38h-78c-57 0 -92 -16 -92 -84v-217c0 -53 -18 -101 -88 -117c68 -15 88 -61 88 -117v-241c0 -68 35 -84 92 -84h78v-38h-79c-81 0 -132 31 -132 125z" />
    <glyph glyph-name="uniFF5C" unicode="&#xff5c;" vert-adv-y="1105" 
d="M474 765v-935h-38v935h38z" />
    <glyph glyph-name="uniFF5D" unicode="&#xff5d;" vert-adv-y="1105" 
d="M253 200v-245c0 -94 -51 -125 -132 -125h-79v38h78c57 0 92 16 92 84v241c0 56 20 102 88 117c-70 16 -88 64 -88 117v217c0 68 -35 84 -92 84h-78v38h79c81 0 132 -31 132 -125v-222c0 -60 41 -85 114 -86v-45c-73 -1 -114 -26 -114 -88z" />
    <glyph glyph-name="uniFFE3" unicode="&#xffe3;" vert-adv-y="1105" 
d="M905 762v-39h-900v39h900z" />
    <glyph glyph-name="uni3131" unicode="&#x3131;" vert-adv-y="1105" 
d="M151 495v40h568v-473h-43v433h-525z" />
    <glyph glyph-name="uni3132" unicode="&#x3132;" vert-adv-y="1105" 
d="M467 495v40h299v-473h-43v433h-256zM114 495v40h289v-473h-43v433h-246z" />
    <glyph glyph-name="uni3133" unicode="&#x3133;" vert-adv-y="1105" 
d="M678 539v-160c0 -69 17 -104 53 -150c30 -39 60 -75 122 -143l-30 -30c-62 69 -102 116 -127 148c-30 38 -38 61 -39 69h-1c-1 -8 -9 -31 -39 -69c-25 -32 -65 -79 -127 -148l-31 30c62 68 93 104 123 143c36 46 52 81 52 150v160h44zM140 491v40h263v-469h-44v429h-219z
" />
    <glyph glyph-name="uni3134" unicode="&#x3134;" vert-adv-y="1105" 
d="M234 548v-442h534v-40h-577v482h43z" />
    <glyph glyph-name="uni3135" unicode="&#x3135;" vert-adv-y="1105" 
d="M207 540v-445h54c44 0 99 3 148 10l5 -39c-54 -8 -108 -11 -164 -11h-86v485h43zM634 498v-118c0 -69 13 -104 50 -156c29 -41 56 -77 112 -146l-30 -26c-58 71 -85 106 -111 141c-27 37 -39 61 -41 73h-1c-2 -12 -14 -36 -41 -73c-26 -35 -53 -70 -111 -141l-32 25
c56 69 85 106 113 146c37 52 48 78 48 147v128h-144v40h330v-40h-142z" />
    <glyph glyph-name="uni3136" unicode="&#x3136;" vert-adv-y="1105" 
d="M778 461v-40h-374v40h163v101h48v-101h163zM198 540v-441h70c44 0 99 3 148 10l3 -39c-54 -8 -106 -11 -162 -11h-102v481h43zM740 221v-34c0 -64 -44 -146 -149 -146c-107 0 -149 82 -149 146v34c0 67 42 149 149 149c105 0 149 -82 149 -149zM697 191v26
c0 65 -40 114 -106 114s-106 -49 -106 -114v-26c0 -62 40 -111 106 -111s106 49 106 111z" />
    <glyph glyph-name="uni3137" unicode="&#x3137;" vert-adv-y="1105" 
d="M745 64h-568v469h563v-40h-520v-389h525v-40z" />
    <glyph glyph-name="uni3138" unicode="&#x3138;" vert-adv-y="1105" 
d="M422 64h-253v469h249v-40h-206v-389h210v-40zM772 64h-276v469h273v-40h-230v-389h233v-40z" />
    <glyph glyph-name="uni3139" unicode="&#x3139;" vert-adv-y="1105" 
d="M767 51h-590v270h532v187h-532v39h574v-264h-532v-193h548v-39z" />
    <glyph glyph-name="uni313A" unicode="&#x313a;" vert-adv-y="1105" 
d="M441 63h-293v258h236v175h-238v39h280v-252h-236v-181h251v-39zM495 495v40h284v-473h-43v433h-241z" />
    <glyph glyph-name="uni313B" unicode="&#x313b;" vert-adv-y="1105" 
d="M418 64h-276v255h223v177h-227v39h269v-254h-223v-178h234v-39zM485 535h294v-471h-294v471zM528 495v-391h208v391h-208z" />
    <glyph glyph-name="uni313C" unicode="&#x313c;" vert-adv-y="1105" 
d="M420 64h-278v255h223v177h-224v39h266v-254h-223v-178h236v-39zM732 354v183h42v-473h-285v473h42v-183h201zM531 102h201v214h-201v-214z" />
    <glyph glyph-name="uni313D" unicode="&#x313d;" vert-adv-y="1105" 
d="M416 64h-270v255h223v177h-225v39h267v-254h-223v-178h228v-39zM661 539v-160c0 -69 17 -104 53 -150c30 -39 60 -75 122 -143l-30 -30c-62 69 -102 116 -127 148c-30 38 -38 61 -39 69h-1c-1 -8 -9 -31 -39 -69c-25 -32 -65 -79 -127 -148l-31 30c62 68 93 104 123 143
c36 46 52 81 52 150v160h44z" />
    <glyph glyph-name="uni313E" unicode="&#x313e;" vert-adv-y="1105" 
d="M417 64h-283v255h229v177h-233v39h275v-254h-229v-178h241v-39zM484 64v473h289v-39h-248v-179h239v-39h-239v-177h253v-39h-294z" />
    <glyph glyph-name="uni313F" unicode="&#x313f;" vert-adv-y="1105" 
d="M408 64h-269v255h218v177h-222v39h264v-254h-218v-178h227v-39zM453 100h71v398h-67v36h313v-36h-68v-398h72v-36h-321v36zM562 498v-398h102v398h-102z" />
    <glyph glyph-name="uni3140" unicode="&#x3140;" vert-adv-y="1105" 
d="M409 63h-273v256h207v177h-211v39h253v-254h-207v-179h231v-39zM788 461v-40h-360v40h152v101h48v-101h160zM753 221v-34c0 -64 -44 -146 -149 -146c-107 0 -149 82 -149 146v34c0 67 42 149 149 149c105 0 149 -82 149 -149zM710 191v26c0 65 -40 114 -106 114
s-106 -49 -106 -114v-26c0 -62 40 -111 106 -111s106 49 106 111z" />
    <glyph glyph-name="uni3141" unicode="&#x3141;" vert-adv-y="1105" 
d="M172 537h566v-475h-566v475zM215 497v-395h480v395h-480z" />
    <glyph glyph-name="uni3142" unicode="&#x3142;" vert-adv-y="1105" 
d="M694 549h43v-488h-564v488h43v-195h478v195zM216 100h478v215h-478v-215z" />
    <glyph glyph-name="uni3143" unicode="&#x3143;" vert-adv-y="1105" 
d="M372 548h43v-485h-270v485h43v-197h184v197zM188 102h184v210h-184v-210zM721 548h43v-485h-269v485h43v-197h183v197zM538 102h183v210h-183v-210z" />
    <glyph glyph-name="uni3144" unicode="&#x3144;" vert-adv-y="1105" 
d="M374 548h43v-485h-279v485h43v-197h193v197zM181 102h193v210h-193v-210zM661 547v-168c0 -69 17 -104 53 -150c30 -39 60 -75 122 -143l-30 -30c-62 69 -102 116 -127 148c-30 38 -38 61 -39 69h-1c-1 -8 -9 -31 -39 -69c-25 -32 -65 -79 -127 -148l-31 30
c62 68 93 104 123 143c36 46 52 81 52 150v168h44z" />
    <glyph glyph-name="uni3145" unicode="&#x3145;" vert-adv-y="1105" 
d="M476 554v-114c0 -92 6 -136 103 -209c45 -34 109 -78 195 -133l-26 -37c-87 58 -159 109 -195 135c-65 47 -83 74 -98 101h-2c-15 -27 -33 -54 -98 -101c-36 -26 -108 -77 -195 -135l-26 37c86 55 150 99 195 133c97 73 103 117 103 209v114h44z" />
    <glyph glyph-name="uni3146" unicode="&#x3146;" vert-adv-y="1105" 
d="M455 137c33 34 65 69 85 93c53 63 63 96 63 189v138h45v-156c0 -83 12 -117 61 -171c44 -48 82 -85 135 -134l-29 -30c-53 50 -91 88 -122 121c-43 46 -64 82 -67 100h-1c-2 -17 -23 -49 -66 -99c-25 -29 -59 -66 -104 -111c-45 45 -79 82 -104 111c-43 50 -64 82 -66 99
h-1c-3 -18 -24 -54 -67 -100c-31 -33 -68 -70 -122 -121l-29 30c54 50 91 86 135 134c49 54 61 88 61 171v156h45v-138c0 -93 10 -126 63 -189c20 -24 52 -59 85 -93z" />
    <glyph glyph-name="uni3147" unicode="&#x3147;" vert-adv-y="1105" 
d="M173 279v51c0 127 122 222 282 222c159 0 282 -95 282 -222v-51c0 -127 -123 -222 -282 -222c-160 0 -282 95 -282 222zM455 508c-144 0 -234 -81 -234 -183v-41c0 -102 90 -184 234 -184c143 0 236 82 236 184v41c0 102 -93 183 -236 183z" />
    <glyph glyph-name="uni3148" unicode="&#x3148;" vert-adv-y="1105" 
d="M746 546v-39h-269v-67c0 -92 5 -136 102 -209c45 -34 109 -78 195 -133l-26 -37c-87 58 -159 109 -195 135c-65 47 -83 74 -98 101h-2c-15 -27 -33 -54 -98 -101c-36 -26 -108 -77 -195 -135l-26 37c86 55 150 99 195 133c97 73 102 117 102 209v67h-267v39h582z" />
    <glyph glyph-name="uni3149" unicode="&#x3149;" vert-adv-y="1105" 
d="M781 546v-38h-142v-108c0 -83 10 -118 60 -171c45 -48 71 -73 125 -123l-29 -30c-54 51 -80 77 -112 110c-44 45 -64 82 -67 100h-1c-2 -17 -23 -49 -66 -99c-25 -29 -49 -55 -94 -100c-45 45 -69 71 -94 100c-43 50 -64 82 -66 99h-1c-3 -18 -23 -55 -67 -100
c-32 -33 -58 -59 -112 -110l-29 30c54 50 80 75 125 123c50 53 60 88 60 171v108h-142v38h652zM530 229c53 63 63 96 63 189v90h-276v-90c0 -93 10 -126 63 -189c20 -24 42 -48 75 -82c33 34 55 58 75 82z" />
    <glyph glyph-name="uni314A" unicode="&#x314a;" vert-adv-y="1105" 
d="M477 628v-142h281v-39h-281v-7c0 -92 5 -136 102 -209c45 -34 109 -78 195 -133l-26 -37c-87 58 -159 109 -195 135c-65 47 -83 74 -98 101h-2c-15 -27 -33 -54 -98 -101c-36 -26 -108 -77 -195 -135l-26 37c86 55 150 99 195 133c97 73 101 117 101 209v7h-278v39h278
v142h47z" />
    <glyph glyph-name="uni314B" unicode="&#x314b;" vert-adv-y="1105" 
d="M148 312l538 8v185h-526v40h569v-492h-43v228l-537 -12z" />
    <glyph glyph-name="uni314C" unicode="&#x314c;" vert-adv-y="1105" 
d="M738 280h-518v-178h539v-40h-582v479h574v-40h-531v-181h518v-40z" />
    <glyph glyph-name="uni314D" unicode="&#x314d;" vert-adv-y="1105" 
d="M135 62v39h152v394h-143v39h622v-39h-142v-394h151v-39h-640zM330 495v-394h251v394h-251z" />
    <glyph glyph-name="uni314E" unicode="&#x314e;" vert-adv-y="1105" 
d="M455 22c-146 0 -248 61 -248 158v40c0 96 102 158 248 158s248 -62 248 -158v-40c0 -97 -102 -158 -248 -158zM759 485v-38h-608v38h281v135h45v-135h282zM455 339c-128 0 -202 -51 -202 -124v-30c0 -73 74 -124 202 -124s202 51 202 124v30c0 73 -74 124 -202 124z" />
    <glyph glyph-name="uni314F" unicode="&#x314f;" vert-adv-y="1105" 
d="M656 388v-40h-211v-480h-43v906h43v-386h211z" />
    <glyph glyph-name="uni3150" unicode="&#x3150;" vert-adv-y="1105" 
d="M591 774v-906h-43v480h-186v-435h-43v842h43v-367h186v386h43z" />
    <glyph glyph-name="uni3151" unicode="&#x3151;" vert-adv-y="1105" 
d="M649 498v-40h-193v-190h193v-40h-193v-359h-42v906h42v-277h193z" />
    <glyph glyph-name="uni3152" unicode="&#x3152;" vert-adv-y="1105" 
d="M591 774v-906h-42v361h-188v-316h-42v842h42v-257h188v276h42zM361 458v-189h188v189h-188z" />
    <glyph glyph-name="uni3153" unicode="&#x3153;" vert-adv-y="1105" 
d="M343 348v40h207v386h43v-906h-43v480h-207z" />
    <glyph glyph-name="uni3154" unicode="&#x3154;" vert-adv-y="1105" 
d="M617 -132v906h43v-906h-43zM270 347v40h182v368h43v-842h-43l2 434h-184z" />
    <glyph glyph-name="uni3155" unicode="&#x3155;" vert-adv-y="1105" 
d="M354 458v40h197v276h42v-906h-42v360h-197v40h197v190h-197z" />
    <glyph glyph-name="uni3156" unicode="&#x3156;" vert-adv-y="1105" 
d="M617 -132v906h43v-906h-43zM270 235v39h181v190h-181v39h181v252h43v-842h-43v322h-181z" />
    <glyph glyph-name="uni3157" unicode="&#x3157;" vert-adv-y="1105" 
d="M476 124h396v-38h-834v38h395v358h43v-358z" />
    <glyph glyph-name="uni3158" unicode="&#x3158;" vert-adv-y="1105" 
d="M903 407v-40h-157v-499h-43v906h43v-367h157zM41 68v39c101 0 181 1 249 2v288h43v-287c109 3 188 9 285 19l4 -39c-161 -15 -257 -22 -581 -22z" />
    <glyph glyph-name="uni3159" unicode="&#x3159;" vert-adv-y="1105" 
d="M823 774v-906h-43v496h-141v-471h-43v865h43v-356h141v372h43zM531 140l2 -38c-114 -8 -234 -11 -486 -11v38c82 0 150 0 210 1v268h42v-267c92 1 162 4 232 9z" />
    <glyph glyph-name="uni315A" unicode="&#x315a;" vert-adv-y="1105" 
d="M786 -132h-44v906h44v-906zM53 69v39c106 0 192 1 266 2v287h43v-286c112 3 197 8 291 19l4 -39c-161 -17 -280 -22 -604 -22z" />
    <glyph glyph-name="uni315B" unicode="&#x315b;" vert-adv-y="1105" 
d="M570 482h42v-358h260v-38h-834v38h259v358h42v-358h231v358z" />
    <glyph glyph-name="uni315C" unicode="&#x315c;" vert-adv-y="1105" 
d="M38 309h834v-38h-395v-367h-43v367h-396v38z" />
    <glyph glyph-name="uni315D" unicode="&#x315d;" vert-adv-y="1105" 
d="M780 -132h-43v236h-240v41h240v629h43v-906zM44 273v39c321 1 444 4 608 22l4 -39c-100 -11 -179 -17 -307 -20v-378h-44v377c-70 -1 -154 -1 -261 -1z" />
    <glyph glyph-name="uni315E" unicode="&#x315e;" vert-adv-y="1105" 
d="M591 161v597h43v-866h-43v228h-183v41h183zM807 774v-906h-43v906h43zM514 313l2 -39c-65 -5 -133 -8 -226 -10v-337h-42v337c-62 -1 -134 -1 -221 -1v39c240 1 366 2 487 11z" />
    <glyph glyph-name="uni315F" unicode="&#x315f;" vert-adv-y="1105" 
d="M46 240v39c321 1 445 4 609 22l4 -39c-98 -11 -177 -17 -301 -20v-344h-44v343c-72 -1 -158 -1 -268 -1zM777 -132h-43v906h43v-906z" />
    <glyph glyph-name="uni3160" unicode="&#x3160;" vert-adv-y="1105" 
d="M612 -96h-42v367h-230v-367h-42v367h-260v38h834v-38h-260v-367z" />
    <glyph glyph-name="uni3161" unicode="&#x3161;" vert-adv-y="1105" 
d="M38 154h834v-38h-834v38z" />
    <glyph glyph-name="uni3162" unicode="&#x3162;" vert-adv-y="1105" 
d="M783 -132h-44v906h44v-906zM49 113v39c321 1 445 4 609 22l4 -39c-161 -17 -269 -22 -613 -22z" />
    <glyph glyph-name="uni3163" unicode="&#x3163;" vert-adv-y="1105" 
d="M476 -132h-43v906h43v-906z" />
    <glyph glyph-name="uni3165" unicode="&#x3165;" vert-adv-y="1105" 
d="M206 535v-429h209v-40h-252v469h43zM520 535v-429h231v-40h-274v469h43z" />
    <glyph glyph-name="uni3166" unicode="&#x3166;" vert-adv-y="1105" 
d="M207 535v-429h205v-40h-248v469h43zM747 65h-270v469h260v-40h-217v-389h227v-40z" />
    <glyph glyph-name="uni3167" unicode="&#x3167;" vert-adv-y="1105" 
d="M162 536v-431h221v-40h-264v471h43zM621 535v-156c0 -69 17 -104 53 -150c30 -39 60 -75 122 -143l-30 -30c-62 69 -102 116 -127 148c-30 38 -38 61 -39 69h-1c-1 -8 -9 -31 -39 -69c-25 -32 -65 -79 -127 -148l-31 30c62 68 93 104 123 143c36 46 52 81 52 150v156h44z
" />
    <glyph glyph-name="uni3168" unicode="&#x3168;" vert-adv-y="1105" 
d="M606 569l168 -502h-331zM506 106h203l-103 323zM184 536v-430h226v-40h-269v470h43z" />
    <glyph glyph-name="uni3169" unicode="&#x3169;" vert-adv-y="1105" 
d="M300 501v40h228v-455c50 66 82 111 104 146c30 47 36 85 36 142v165h44v-157c0 -57 8 -104 38 -151c22 -35 54 -80 106 -148l-32 -28c-55 73 -82 110 -105 145c-18 28 -24 45 -28 59c-4 -14 -10 -31 -28 -59c-23 -35 -50 -72 -105 -145l-30 25v-18h-44v439h-184zM302 65
h-249v255h169v180h-170v39h212v-257h-169v-178h207v-39z" />
    <glyph glyph-name="uni316A" unicode="&#x316a;" vert-adv-y="1105" 
d="M761 64h-270v472h260v-40h-217v-392h227v-40zM441 63h-289v258h234v175h-237v39h279v-252h-234v-181h247v-39z" />
    <glyph glyph-name="uni316B" unicode="&#x316b;" vert-adv-y="1105" 
d="M500 548h43v-485h-210v485h43v-197h124v197zM279 65h-204v255h148v180h-148v39h190v-257h-148v-178h162v-39zM721 182c-22 38 -30 56 -31 66c-2 -10 -9 -28 -31 -66c-20 -35 -42 -70 -79 -125l-33 25c35 52 64 98 90 146c25 46 31 76 31 141v175h44v-175
c0 -65 6 -95 31 -141c26 -48 55 -94 90 -146l-33 -25c-37 55 -59 90 -79 125zM376 102h124v210h-124v-210z" />
    <glyph glyph-name="uni316C" unicode="&#x316c;" vert-adv-y="1105" 
d="M431 64h-287v255h217v177h-219v39h261v-254h-217v-178h245v-39zM601 569l168 -502h-331zM501 106h203l-103 323z" />
    <glyph glyph-name="uni316D" unicode="&#x316d;" vert-adv-y="1105" 
d="M769 538v-39h-304v39h304zM769 216v-19c0 -86 -61 -155 -153 -155c-93 0 -151 69 -151 155v19c0 86 58 155 151 155c92 0 153 -69 153 -155zM725 195v23c0 64 -37 112 -109 112c-73 0 -107 -48 -107 -112v-23c0 -64 34 -112 107 -112c72 0 109 48 109 112zM445 64h-299
v255h226v177h-230v39h272v-254h-226v-178h257v-39z" />
    <glyph glyph-name="uni316E" unicode="&#x316e;" vert-adv-y="1105" 
d="M153 538h269v-474h-269v474zM196 498v-394h183v394h-183zM713 349v189h42v-473h-267v473h42v-189h183zM530 103h183v208h-183v-208z" />
    <glyph glyph-name="uni316F" unicode="&#x316f;" vert-adv-y="1105" 
d="M116 538h274v-474h-274v474zM159 498v-394h188v394h-188zM630 537v-158c0 -69 17 -104 53 -150c30 -39 60 -75 122 -143l-30 -30c-62 69 -102 116 -127 148c-30 38 -38 61 -39 69h-1c-1 -8 -9 -31 -39 -69c-25 -32 -65 -79 -127 -148l-31 30c62 68 93 104 123 143
c36 46 52 81 52 150v158h44z" />
    <glyph glyph-name="uni3170" unicode="&#x3170;" vert-adv-y="1105" 
d="M602 569l168 -502h-331zM502 106h203l-103 323zM145 538h265v-474h-265v474zM188 498v-394h179v394h-179z" />
    <glyph glyph-name="uni3171" unicode="&#x3171;" vert-adv-y="1105" 
d="M604 114v-26c0 -54 -56 -112 -149 -112c-92 0 -148 58 -148 112v26c0 54 56 112 148 112c93 0 149 -58 149 -112zM558 87v28c0 42 -45 72 -103 72c-57 0 -102 -30 -102 -72v-28c0 -42 45 -72 102 -72c58 0 103 30 103 72zM237 647h434v-345h-434v345zM280 607v-265h348
v265h-348z" />
    <glyph glyph-name="uni3172" unicode="&#x3172;" vert-adv-y="1105" 
d="M472 497v40h286v-477h-43v437h-243zM384 349v189h42v-473h-273v473h42v-189h189zM195 103h189v208h-189v-208z" />
    <glyph glyph-name="uni3173" unicode="&#x3173;" vert-adv-y="1105" 
d="M379 349v189h42v-473h-257v473h42v-189h173zM206 103h173v208h-173v-208zM746 65h-250v471h239v-40h-196v-391h207v-40z" />
    <glyph glyph-name="uni3174" unicode="&#x3174;" vert-adv-y="1105" 
d="M274 347v191h42v-474h-209v474h42v-191h125zM149 102h125v207h-125v-207zM583 498v40h225v-477h-43v437h-182zM507 539v-157c0 -57 8 -104 38 -151c22 -35 52 -77 104 -145l-32 -28c-55 73 -80 107 -103 142c-18 28 -24 45 -28 59c-4 -14 -10 -31 -28 -59
c-23 -35 -49 -70 -104 -143l-33 27c52 68 84 112 106 147c30 47 36 86 36 143v165h44z" />
    <glyph glyph-name="uni3175" unicode="&#x3175;" vert-adv-y="1105" 
d="M276 347v191h42v-474h-211v474h42v-191h127zM812 65h-197v471h186v-40h-143v-391h154v-40zM498 182c-22 38 -30 56 -31 66c-2 -10 -9 -28 -31 -66c-20 -35 -42 -70 -79 -125l-33 25c35 52 64 98 90 146c25 46 31 76 31 141v170h44v-170c0 -65 6 -95 31 -141
c26 -48 55 -94 90 -146l-33 -25c-37 55 -59 90 -79 125zM149 102h127v207h-127v-207z" />
    <glyph glyph-name="uni3176" unicode="&#x3176;" vert-adv-y="1105" 
d="M353 349v189h42v-473h-266v473h42v-189h182zM171 103h182v208h-182v-208zM628 498v-118c0 -69 13 -104 50 -156c29 -41 52 -73 108 -142l-30 -26c-58 71 -81 102 -107 137c-27 37 -39 61 -41 73h-1c-2 -12 -14 -36 -41 -73c-26 -35 -49 -65 -107 -136l-32 25
c56 69 81 101 109 141c37 52 48 78 48 147v128h-133v40h310v-40h-133z" />
    <glyph glyph-name="uni3177" unicode="&#x3177;" vert-adv-y="1105" 
d="M382 349v189h42v-471h-263v471h42v-189h179zM203 105h179v206h-179v-206zM493 64v472h242v-39h-201v-178h195v-39h-195v-177h212v-39h-253z" />
    <glyph glyph-name="uni3178" unicode="&#x3178;" vert-adv-y="1105" 
d="M604 114v-26c0 -54 -56 -112 -149 -112c-92 0 -148 58 -148 112v26c0 54 56 112 148 112c93 0 149 -58 149 -112zM558 87v28c0 42 -45 72 -103 72c-57 0 -102 -30 -102 -72v-28c0 -42 45 -72 102 -72c58 0 103 30 103 72zM633 538v124h42v-356h-441v356h42v-124h357z
M276 344h357v156h-357v-156z" />
    <glyph glyph-name="uni3179" unicode="&#x3179;" vert-adv-y="1105" 
d="M604 114v-26c0 -54 -56 -112 -149 -112c-92 0 -148 58 -148 112v26c0 54 56 112 148 112c93 0 149 -58 149 -112zM558 87v28c0 42 -45 72 -103 72c-57 0 -102 -30 -102 -72v-28c0 -42 45 -72 102 -72c58 0 103 30 103 72zM380 645h43v-351h-212v351h43v-134h126v134z
M254 333h126v139h-126v-139zM654 645h43v-351h-212v351h43v-134h126v134zM528 333h126v139h-126v-139z" />
    <glyph glyph-name="uni317A" unicode="&#x317a;" vert-adv-y="1105" 
d="M359 539v-160c0 -69 17 -104 53 -150c30 -39 60 -75 122 -143l-30 -30c-62 69 -102 116 -127 148c-30 38 -38 61 -39 69h-1c-1 -8 -9 -31 -39 -69c-25 -32 -65 -79 -127 -148l-31 30c62 68 93 104 123 143c36 46 52 81 52 150v160h44zM479 495v40h287v-473h-43v433h-244z
" />
    <glyph glyph-name="uni317B" unicode="&#x317b;" vert-adv-y="1105" 
d="M329 531v-152c0 -69 18 -102 51 -150c27 -39 54 -72 114 -143l-30 -30c-60 71 -96 116 -119 148c-28 39 -36 61 -37 69h-1c-1 -8 -11 -29 -39 -69c-25 -35 -55 -74 -117 -148l-31 30c62 74 83 101 113 143c34 48 52 81 52 150v152h44zM569 535v-429h228v-40h-271v469h43z
" />
    <glyph glyph-name="uni317C" unicode="&#x317c;" vert-adv-y="1105" 
d="M329 531v-152c0 -69 18 -102 51 -150c27 -39 54 -72 114 -143l-30 -30c-60 71 -96 116 -119 148c-28 39 -36 61 -37 69h-1c-1 -8 -11 -29 -39 -69c-25 -35 -55 -74 -117 -148l-31 30c62 74 83 101 113 143c34 48 52 81 52 150v152h44zM795 64h-267v469h256v-40h-213v-389
h224v-40z" />
    <glyph glyph-name="uni317D" unicode="&#x317d;" vert-adv-y="1105" 
d="M329 531v-152c0 -69 18 -102 51 -150c27 -39 54 -72 114 -143l-30 -30c-60 71 -96 116 -119 148c-28 39 -36 61 -37 69h-1c-1 -8 -11 -29 -39 -69c-25 -35 -55 -74 -117 -148l-31 30c62 74 83 101 113 143c34 48 52 81 52 150v152h44zM743 354v184h42v-476h-268v476h42
v-184h184zM559 100h184v216h-184v-216z" />
    <glyph glyph-name="uni317E" unicode="&#x317e;" vert-adv-y="1105" 
d="M798 85l-32 -28c-41 47 -73 88 -102 128c-28 39 -46 73 -50 89h-1c-4 -16 -13 -37 -39 -74c-37 -53 -69 -94 -111 -141c-41 47 -80 97 -117 145c-25 33 -36 58 -38 69h-1c-2 -9 -12 -33 -40 -71c-31 -42 -65 -84 -118 -147l-33 30c53 63 89 107 116 145
c37 52 51 76 51 143v158h46v-137c0 -66 5 -97 49 -160c22 -31 49 -65 85 -109c34 43 57 71 80 106c38 58 46 78 46 150v120h-143v37h330v-37h-140v-116c0 -72 17 -106 56 -163c24 -35 71 -95 106 -137z" />
    <glyph glyph-name="uni317F" unicode="&#x317f;" vert-adv-y="1105" 
d="M454 594l219 -523h-436zM307 112h295l-148 372z" />
    <glyph glyph-name="uni3180" unicode="&#x3180;" vert-adv-y="1105" 
d="M267 556c108 0 158 -91 158 -230v-51c0 -139 -49 -230 -158 -230c-107 0 -156 91 -156 230v51c0 139 49 230 156 230zM267 87c84 0 113 96 113 194v39c0 98 -29 195 -113 195c-82 0 -111 -97 -111 -195v-39c0 -98 29 -194 111 -194zM638 556c108 0 158 -91 158 -230v-51
c0 -139 -49 -230 -158 -230c-107 0 -156 91 -156 230v51c0 139 49 230 156 230zM638 87c84 0 113 96 113 194v39c0 98 -29 195 -113 195c-82 0 -111 -97 -111 -195v-39c0 -98 29 -194 111 -194z" />
    <glyph glyph-name="uni3181" unicode="&#x3181;" vert-adv-y="1105" 
d="M454 7c-148 0 -236 108 -236 204v61c0 91 79 191 212 204v181h48v-181c132 -13 213 -113 213 -204v-61c0 -96 -88 -204 -237 -204zM454 433c-104 0 -187 -70 -187 -160v-63c0 -91 83 -159 187 -159c105 0 188 68 188 159v63c0 90 -83 160 -188 160z" />
    <glyph glyph-name="uni3182" unicode="&#x3182;" vert-adv-y="1105" 
d="M422 274v-52c0 -106 -55 -170 -155 -170c-96 0 -151 66 -151 172v48c0 96 49 159 129 171v112h45v-112c83 -12 132 -73 132 -169zM379 228v40c0 88 -41 137 -110 137c-65 0 -110 -49 -110 -137v-40c0 -88 43 -137 108 -137c69 0 112 49 112 137zM626 537v-158
c0 -69 17 -104 53 -150c30 -39 60 -75 122 -143l-30 -30c-62 69 -102 116 -127 148c-30 38 -38 61 -39 69h-1c-1 -8 -9 -31 -39 -69c-25 -32 -65 -79 -127 -148l-31 30c62 68 93 104 123 143c36 46 52 81 52 150v158h44z" />
    <glyph glyph-name="uni3183" unicode="&#x3183;" vert-adv-y="1105" 
d="M443 274v-52c0 -106 -55 -170 -155 -170c-96 0 -151 66 -151 172v48c0 96 49 159 129 171v112h45v-112c83 -12 132 -73 132 -169zM400 228v40c0 88 -41 137 -110 137c-65 0 -110 -49 -110 -137v-40c0 -88 43 -137 108 -137c69 0 112 49 112 137zM612 568l168 -502h-331z
M512 105h203l-103 323z" />
    <glyph glyph-name="uni3184" unicode="&#x3184;" vert-adv-y="1105" 
d="M604 114v-26c0 -54 -56 -112 -149 -112c-92 0 -148 58 -148 112v26c0 54 56 112 148 112c93 0 149 -58 149 -112zM558 87v28c0 42 -45 72 -103 72c-57 0 -102 -30 -102 -72v-28c0 -42 45 -72 102 -72c58 0 103 30 103 72zM215 310v39h112v268h-104v39h464v-39h-103v-268
h112v-39h-481zM370 617v-268h171v268h-171z" />
    <glyph glyph-name="uni3185" unicode="&#x3185;" vert-adv-y="1105" 
d="M415 224v-39c0 -66 -35 -145 -131 -145s-131 79 -131 145v39c0 66 35 145 131 145s131 -79 131 -145zM771 463v-40h-300v40h125v99h49v-99h126zM199 224v-39c0 -62 31 -103 85 -103c60 0 85 41 85 103v39c0 62 -25 103 -85 103c-54 0 -85 -41 -85 -103zM751 224v-39
c0 -66 -35 -145 -131 -145s-131 79 -131 145v39c0 66 35 145 131 145s131 -79 131 -145zM535 224v-39c0 -62 31 -103 85 -103c60 0 85 41 85 103v39c0 62 -25 103 -85 103c-54 0 -85 -41 -85 -103zM435 463v-40h-300v40h125v99h49v-99h126z" />
    <glyph glyph-name="uni3186" unicode="&#x3186;" vert-adv-y="1105" 
d="M454 9c-156 0 -224 113 -224 196v61c0 80 68 192 224 192c157 0 226 -112 226 -192v-61c0 -83 -69 -196 -226 -196zM454 413c-94 0 -175 -58 -175 -153v-49c0 -98 81 -157 175 -157c95 0 177 59 177 157v49c0 95 -82 153 -177 153zM696 632v-40h-483v40h483z" />
    <glyph glyph-name="uni3187" unicode="&#x3187;" vert-adv-y="1105" 
d="M749 250v-382h-43v906h43v-255h154v-40h-154v-189h154v-40h-154zM41 68v39c61 0 113 0 161 1v289h43v-289c59 1 109 3 155 5v284h43v-283c59 3 113 8 175 15l4 -39c-161 -15 -257 -22 -581 -22z" />
    <glyph glyph-name="uni3188" unicode="&#x3188;" vert-adv-y="1105" 
d="M780 251h-141v-358h-43v865h43v-243h141v259h43v-906h-43v383zM531 140l2 -38c-114 -8 -234 -11 -486 -11v38h120v269h42v-269l146 2v267h42v-265c48 1 91 4 134 7zM780 289v188h-141v-188h141z" />
    <glyph glyph-name="uni3189" unicode="&#x3189;" vert-adv-y="1105" 
d="M50 69v39c67 0 126 0 179 1v288h43v-288c58 1 110 2 157 4v284h43v-282c62 3 118 8 178 15l4 -39c-161 -17 -280 -22 -604 -22zM775 -132h-44v906h44v-906z" />
    <glyph glyph-name="uni318A" unicode="&#x318a;" vert-adv-y="1105" 
d="M44 287v39c321 1 444 4 608 22l4 -39c-75 -8 -137 -13 -217 -17v-395h-44v393c-41 -1 -87 -2 -140 -2v-391h-44v390h-167zM737 61v108h-205v41h205v564h43v-906h-43v152h-205v41h205z" />
    <glyph glyph-name="uni318B" unicode="&#x318b;" vert-adv-y="1105" 
d="M607 53v106h-150v41h150v558h43v-866h-43v120h-150v41h150zM514 337l2 -39c-45 -3 -92 -6 -147 -8v-363h-42v362l-120 -2v-360h-42v360c-42 -1 -87 0 -138 0v39c240 1 366 2 487 11zM807 774v-906h-43v906h43z" />
    <glyph glyph-name="uni318C" unicode="&#x318c;" vert-adv-y="1105" 
d="M46 288v39c321 1 445 4 609 22l4 -39c-67 -7 -125 -12 -194 -16v-397h-44v395c-46 -1 -98 -3 -161 -3v-392h-44v391h-170zM780 -132h-43v906h43v-906z" />
    <glyph glyph-name="uni318D" unicode="&#x318d;" vert-adv-y="1105" 
d="M403 341c0 28 23 51 51 51s51 -23 51 -51s-23 -51 -51 -51s-51 23 -51 51z" />
    <glyph glyph-name="uni318E" unicode="&#x318e;" vert-adv-y="1105" 
d="M234 341c0 28 23 51 51 51s51 -23 51 -51s-23 -51 -51 -51s-51 23 -51 51zM534 -132h-43v906h43v-906z" />
    <glyph glyph-name="uni2170" unicode="&#x2170;" vert-adv-y="1105" 
d="M434 507h43v-533h-43v533zM430 682h51v-59h-51v59z" />
    <glyph glyph-name="uni2171" unicode="&#x2171;" vert-adv-y="1105" 
d="M306 507h43v-533h-43v533zM302 682h51v-59h-51v59zM561 507h43v-533h-43v533zM557 682h51v-59h-51v59z" />
    <glyph glyph-name="uni2172" unicode="&#x2172;" vert-adv-y="1105" 
d="M206 507h43v-533h-43v533zM202 682h51v-59h-51v59zM434 507h43v-533h-43v533zM430 682h51v-59h-51v59zM661 507h43v-533h-43v533zM657 682h51v-59h-51v59z" />
    <glyph glyph-name="uni2173" unicode="&#x2173;" vert-adv-y="1105" 
d="M238 507h43v-533h-43v533zM234 682h51v-59h-51v59zM556 26l136 481h43l-160 -533h-40l-163 533h44z" />
    <glyph glyph-name="uni2174" unicode="&#x2174;" vert-adv-y="1105" 
d="M457 26l174 481h45l-199 -533h-42l-202 533h46z" />
    <glyph glyph-name="uni2175" unicode="&#x2175;" vert-adv-y="1105" 
d="M632 507h43v-533h-43v533zM628 682h51v-59h-51v59zM359 26l136 481h43l-160 -533h-40l-163 533h44z" />
    <glyph glyph-name="uni2176" unicode="&#x2176;" vert-adv-y="1105" 
d="M552 507h43v-533h-43v533zM548 682h51v-59h-51v59zM279 26l136 481h43l-160 -533h-40l-163 533h44zM735 507h43v-533h-43v533zM731 682h51v-59h-51v59z" />
    <glyph glyph-name="uni2177" unicode="&#x2177;" vert-adv-y="1105" 
d="M477 507h43v-533h-43v533zM473 682h51v-59h-51v59zM236 26l123 481h43l-147 -533h-40l-150 533h44zM625 507h43v-533h-43v533zM621 682h51v-59h-51v59zM773 507h43v-533h-43v533zM769 682h51v-59h-51v59z" />
    <glyph glyph-name="uni2178" unicode="&#x2178;" vert-adv-y="1105" 
d="M247 507h43v-533h-43v533zM243 682h51v-59h-51v59zM742 507l-146 -258l159 -275h-49l-138 248l-141 -248h-49l161 271l-146 262h46l129 -235l127 235h47z" />
    <glyph glyph-name="uni2179" unicode="&#x2179;" vert-adv-y="1105" 
d="M663 507l-178 -258l191 -275h-52l-167 248l-171 -248h-52l194 271l-179 262h49l159 -235l156 235h50z" />
    <glyph glyph-name="uni2160" unicode="&#x2160;" vert-adv-y="1105" 
d="M433 695h44v-721h-44v721z" />
    <glyph glyph-name="uni2161" unicode="&#x2161;" vert-adv-y="1105" 
d="M313 695h44v-721h-44v721zM553 695h44v-721h-44v721z" />
    <glyph glyph-name="uni2162" unicode="&#x2162;" vert-adv-y="1105" 
d="M433 695h44v-721h-44v721zM666 695h44v-721h-44v721zM200 695h44v-721h-44v721z" />
    <glyph glyph-name="uni2163" unicode="&#x2163;" vert-adv-y="1105" 
d="M203 695h44v-721h-44v721zM337 695h48l193 -668l185 668h46l-207 -721h-51z" />
    <glyph glyph-name="uni2164" unicode="&#x2164;" vert-adv-y="1105" 
d="M165 695h49l242 -668l240 668h47l-263 -721h-51z" />
    <glyph glyph-name="uni2165" unicode="&#x2165;" vert-adv-y="1105" 
d="M662 695h44v-721h-44v721zM100 695h48l193 -668l185 668h46l-207 -721h-51z" />
    <glyph glyph-name="uni2166" unicode="&#x2166;" vert-adv-y="1105" 
d="M561 695h44v-721h-44v721zM53 695h47l169 -669l166 669h45l-187 -721h-51zM742 695h44v-721h-44v721z" />
    <glyph glyph-name="uni2167" unicode="&#x2167;" vert-adv-y="1105" 
d="M454 695h44v-721h-44v721zM60 695h45l125 -669l122 669h43l-139 -721h-55zM611 695h44v-721h-44v721zM768 695h44v-721h-44v721z" />
    <glyph glyph-name="uni2168" unicode="&#x2168;" vert-adv-y="1105" 
d="M216 695h44v-721h-44v721zM803 695l-188 -346l206 -375h-51l-185 347l-182 -347h-51l204 373l-195 348h49l175 -322l169 322h49z" />
    <glyph glyph-name="uni2169" unicode="&#x2169;" vert-adv-y="1105" 
d="M714 695l-228 -346l246 -375h-52l-224 347l-227 -347h-52l250 373l-241 348h50l220 -322l208 322h50z" />
    <glyph glyph-name="Alpha" unicode="&#x391;" horiz-adv-x="625" vert-adv-y="1105" 
d="M562 -26l-86 233h-326l-88 -233h-48l278 721h44l275 -721h-49zM254 479l-89 -233h296l-86 233c-21 58 -44 113 -61 169c-16 -56 -38 -111 -60 -169z" />
    <glyph glyph-name="Beta" unicode="&#x392;" horiz-adv-x="606" vert-adv-y="1105" 
d="M88 -26v721h223c151 0 220 -57 220 -175v-23c0 -63 -32 -123 -118 -144c96 -13 151 -63 151 -163v-27c0 -118 -64 -189 -220 -189h-256zM131 332v-318h217c114 0 171 48 171 149v24c0 94 -54 145 -198 145h-190zM315 655h-184v-284h189c100 0 167 39 167 129v20
c0 85 -46 135 -172 135z" />
    <glyph glyph-name="Gamma" unicode="&#x393;" horiz-adv-x="530" vert-adv-y="1105" 
d="M132 -26h-44v721h418v-41h-374v-680z" />
    <glyph glyph-name="Delta" unicode="&#x394;" horiz-adv-x="631" vert-adv-y="1105" 
d="M16 -26l265 721h49l263 -721h-577zM76 15h452l-223 635z" />
    <glyph glyph-name="Epsilon" unicode="&#x395;" horiz-adv-x="585" vert-adv-y="1105" 
d="M88 695h421v-41h-377v-290h356v-40h-356v-309h384v-41h-428v721z" />
    <glyph glyph-name="Zeta" unicode="&#x396;" horiz-adv-x="594" vert-adv-y="1105" 
d="M535 695v-35l-449 -646h468v-40h-522v35l449 646h-424v40h478z" />
    <glyph glyph-name="Eta" unicode="&#x397;" horiz-adv-x="667" vert-adv-y="1105" 
d="M535 695h44v-721h-44v358h-403v-358h-44v721h44v-322h403v322z" />
    <glyph glyph-name="Theta" unicode="&#x398;" horiz-adv-x="674" vert-adv-y="1105" 
d="M514 359v-45h-344v45h344zM614 380v-91c0 -190 -93 -326 -277 -326s-277 136 -277 326v91c0 190 93 326 277 326s277 -136 277 -326zM569 290v89c0 186 -89 286 -232 286s-232 -100 -232 -286v-89c0 -186 89 -286 232 -286s232 100 232 286z" />
    <glyph glyph-name="Iota" unicode="&#x399;" horiz-adv-x="220" vert-adv-y="1105" 
d="M88 695h44v-721h-44v721z" />
    <glyph glyph-name="Kappa" unicode="&#x39a;" horiz-adv-x="627" vert-adv-y="1105" 
d="M575 695l-298 -305l316 -416h-54l-293 385l-114 -117v-268h-44v721h44v-397l383 397h60z" />
    <glyph glyph-name="Lambda" unicode="&#x39b;" horiz-adv-x="614" vert-adv-y="1105" 
d="M596 -26h-49l-242 668l-240 -668h-47l263 721h51z" />
    <glyph glyph-name="Mu" unicode="&#x39c;" horiz-adv-x="816" vert-adv-y="1105" 
d="M390 94l-203 413c-21 41 -40 81 -56 118v-651h-43v721h50l272 -551l266 551h52v-721h-43v643c-19 -44 -37 -80 -59 -123l-198 -400h-38z" />
    <glyph glyph-name="Nu" unicode="&#x39d;" horiz-adv-x="669" vert-adv-y="1105" 
d="M88 695h60l359 -611c8 -13 23 -44 31 -61v672h43v-721h-60l-359 611c-11 19 -23 44 -31 61v-672h-43v721z" />
    <glyph glyph-name="Xi" unicode="&#x39e;" horiz-adv-x="525" vert-adv-y="1105" 
d="M50 13h425v-39h-425v39zM76 325v39h373v-39h-373zM471 656h-417v39h417v-39z" />
    <glyph glyph-name="Omicron" unicode="&#x39f;" horiz-adv-x="674" vert-adv-y="1105" 
d="M614 380v-91c0 -190 -93 -326 -277 -326s-277 136 -277 326v91c0 190 93 326 277 326s277 -136 277 -326zM569 290v89c0 186 -89 286 -232 286s-232 -100 -232 -286v-89c0 -186 89 -286 232 -286s232 100 232 286z" />
    <glyph glyph-name="Pi" unicode="&#x3a0;" horiz-adv-x="653" vert-adv-y="1105" 
d="M565 695v-721h-44v680h-389v-680h-44v721h477z" />
    <glyph glyph-name="Rho" unicode="&#x3a1;" horiz-adv-x="579" vert-adv-y="1105" 
d="M88 -26v721h225c151 0 232 -71 232 -204v-22c0 -135 -84 -205 -235 -205h-178v-290h-44zM313 654h-181v-349h173c144 0 195 64 195 165v19c0 99 -51 165 -187 165z" />
    <glyph glyph-name="Sigma" unicode="&#x3a3;" horiz-adv-x="597" vert-adv-y="1105" 
d="M106 695h414v-40h-358l213 -323l-217 -318h369v-40h-421v31l221 326l-221 336v28z" />
    <glyph glyph-name="Tau" unicode="&#x3a4;" horiz-adv-x="568" vert-adv-y="1105" 
d="M306 -26h-44v680h-240v41h524v-41h-240v-680z" />
    <glyph glyph-name="Upsilon" unicode="&#x3a5;" horiz-adv-x="584" vert-adv-y="1105" 
d="M560 695l-243 -422v-299h-44v299l-249 422h47l225 -382l216 382h48z" />
    <glyph glyph-name="Phi" unicode="&#x3a6;" horiz-adv-x="732" vert-adv-y="1105" 
d="M65 323v53c0 152 95 245 280 253v89h41v-89c183 -6 281 -101 281 -253v-53c0 -151 -98 -247 -281 -253v-96h-41v96c-185 6 -280 101 -280 253zM625 329v41c0 152 -106 215 -239 221v-483c133 6 239 68 239 221zM107 370v-41c0 -151 103 -215 238 -221v483
c-135 -6 -238 -69 -238 -221z" />
    <glyph glyph-name="Chi" unicode="&#x3a7;" horiz-adv-x="603" vert-adv-y="1105" 
d="M565 695l-228 -346l242 -375h-54l-219 346l-230 -346h-52l254 373l-241 348h52l219 -321l207 321h50z" />
    <glyph glyph-name="Psi" unicode="&#x3a8;" horiz-adv-x="696" vert-adv-y="1105" 
d="M369 675v-460c127 9 215 73 215 253v207h42v-215c0 -204 -121 -278 -257 -287v-199h-42v199c-136 9 -257 83 -257 287v215h42v-207c0 -180 88 -244 215 -253v460h42z" />
    <glyph glyph-name="Omega" unicode="&#x3a9;" horiz-adv-x="734" vert-adv-y="1105" 
d="M367 706c185 0 269 -134 269 -318v-89c0 -166 -47 -239 -129 -285h197v-40h-251v46c99 62 138 105 138 280v86c0 178 -80 278 -224 278s-224 -100 -224 -278v-86c0 -175 39 -218 138 -280v-46h-251v40h197c-82 46 -129 119 -129 285v89c0 184 84 318 269 318z" />
    <glyph glyph-name="alpha" unicode="&#x3b1;" horiz-adv-x="560" vert-adv-y="1105" 
d="M436 -26v90c-27 -54 -92 -98 -174 -98c-128 0 -204 80 -204 227v98c0 148 88 227 212 227c64 0 133 -27 165 -76v65h43v-533h-42zM436 169v181c0 69 -68 129 -168 129s-167 -69 -167 -194v-86c0 -126 55 -194 166 -194c78 0 169 59 169 164z" />
    <glyph glyph-name="beta" unicode="&#x3b2;" horiz-adv-x="541" vert-adv-y="1105" 
d="M457 567v-26c0 -98 -41 -147 -114 -170c102 -8 166 -65 166 -171v-43c0 -120 -86 -191 -200 -191c-94 0 -157 40 -184 81v-287h-43v784c0 141 92 192 190 192c132 0 185 -79 185 -169zM125 537v-407c0 -58 71 -123 184 -123c131 0 156 105 156 152v38
c0 116 -79 154 -203 149v41c127 2 151 74 151 157v18c0 88 -59 133 -139 133c-91 0 -149 -56 -149 -158z" />
    <glyph glyph-name="gamma" unicode="&#x3b3;" horiz-adv-x="483" vert-adv-y="1105" 
d="M20 507h50l173 -483l174 483h46l-198 -540v-207h-43v205z" />
    <glyph glyph-name="delta" unicode="&#x3b4;" horiz-adv-x="564" vert-adv-y="1105" 
d="M190 631v-5c0 -56 66 -76 157 -134c73 -47 157 -96 157 -238v-47c0 -152 -84 -241 -222 -241s-222 89 -222 241v37c0 175 106 236 215 236c12 0 19 0 32 -3c-120 56 -160 95 -160 146v12c0 49 48 101 152 101c54 0 98 -10 144 -35l-15 -35c-40 21 -81 31 -125 31
c-71 0 -113 -22 -113 -66zM282 5c111 0 179 64 179 202v61c0 102 -86 176 -173 176c-95 0 -185 -42 -185 -200v-37c0 -138 68 -202 179 -202z" />
    <glyph glyph-name="epsilon" unicode="&#x3b5;" horiz-adv-x="448" vert-adv-y="1105" 
d="M405 484l-15 -35c-44 20 -93 26 -136 26c-87 0 -145 -25 -145 -80v-8c0 -76 66 -106 141 -106h63v-43h-73c-85 0 -143 -37 -143 -111v-12c0 -57 42 -108 141 -108c64 0 123 12 179 49l22 -32c-52 -41 -128 -58 -192 -58c-121 0 -194 51 -194 151v11c0 77 47 119 128 132
c-75 19 -116 61 -116 124v9c0 86 83 122 187 122c60 0 99 -7 153 -31z" />
    <glyph glyph-name="zeta" unicode="&#x3b6;" horiz-adv-x="423" vert-adv-y="1105" 
d="M355 -167l-25 30c44 33 54 45 54 68c0 33 -54 50 -89 59c-134 34 -245 92 -245 229v16c0 180 118 334 284 455h-214v40h256l3 -44c-181 -142 -285 -262 -285 -453v-13c0 -117 96 -157 210 -193c92 -29 119 -47 119 -92c0 -55 -31 -74 -68 -102z" />
    <glyph glyph-name="eta" unicode="&#x3b7;" horiz-adv-x="563" vert-adv-y="1105" 
d="M485 341v-581h-43v568c0 93 -40 151 -149 151c-115 0 -168 -95 -168 -143v-362h-43v533h42v-82c19 37 76 93 176 93c134 0 185 -85 185 -177z" />
    <glyph glyph-name="theta" unicode="&#x3b8;" horiz-adv-x="532" vert-adv-y="1105" 
d="M266 -36c-117 0 -206 96 -206 305v162c0 208 87 305 206 305s206 -97 206 -305v-162c0 -209 -89 -305 -206 -305zM266 4c103 0 162 87 162 294v35h-324v-35c0 -207 59 -294 162 -294zM104 371h324v36c0 210 -60 289 -162 289s-162 -79 -162 -289v-36z" />
    <glyph glyph-name="iota" unicode="&#x3b9;" horiz-adv-x="230" vert-adv-y="1105" 
d="M211 13l9 -37c-15 -7 -33 -10 -53 -10c-49 0 -87 19 -87 92v449h44v-447c0 -39 12 -54 46 -54c17 0 28 2 41 7z" />
    <glyph glyph-name="kappa" unicode="&#x3ba;" horiz-adv-x="515" vert-adv-y="1105" 
d="M466 507l-215 -221l244 -312h-54l-220 281l-96 -99v-182h-43v533h43v-295l282 295h59z" />
    <glyph glyph-name="lambda" unicode="&#x3bb;" horiz-adv-x="484" vert-adv-y="1105" 
d="M418 -26l-173 486l-180 -486h-45l201 540l-54 148c-10 27 -19 35 -37 35c-9 0 -18 -2 -28 -7l-13 36c11 5 26 10 42 10c39 0 58 -18 72 -55l261 -707h-46z" />
    <glyph glyph-name="mu" unicode="&#x3bc;" horiz-adv-x="559" vert-adv-y="1105" 
d="M79 -240v747h42v-352c0 -95 36 -150 152 -150c68 0 162 56 162 153v349h42v-533h-42v82c-13 -28 -79 -89 -168 -89c-75 0 -131 32 -146 71v-278h-42z" />
    <glyph glyph-name="nu" unicode="&#x3bd;" horiz-adv-x="481" vert-adv-y="1105" 
d="M243 26l174 481h45l-199 -533h-42l-202 533h46z" />
    <glyph glyph-name="xi" unicode="&#x3be;" horiz-adv-x="446" vert-adv-y="1105" 
d="M95 221v-11c0 -117 97 -145 211 -181c92 -29 120 -43 120 -93c0 -52 -37 -78 -69 -102l-25 30c40 27 54 45 54 68c0 33 -54 50 -89 59c-134 34 -245 79 -245 217v18c0 111 74 157 162 171c-69 12 -136 63 -136 168v9c0 93 63 162 185 162c55 0 104 -5 161 -39l-19 -31
c-42 28 -92 33 -140 33c-72 0 -145 -33 -145 -123v-10c0 -88 67 -152 164 -152h66v-39h-69c-109 0 -186 -57 -186 -154z" />
    <glyph glyph-name="omicron" unicode="&#x3bf;" horiz-adv-x="558" vert-adv-y="1105" 
d="M279 518c138 0 219 -89 219 -241v-70c0 -152 -81 -241 -219 -241s-219 89 -219 241v70c0 153 81 241 219 241zM279 3c108 0 176 66 176 204v70c0 138 -68 204 -176 204s-176 -66 -176 -204v-70c0 -138 68 -204 176 -204z" />
    <glyph glyph-name="pi" unicode="&#x3c0;" horiz-adv-x="564" vert-adv-y="1105" 
d="M506 10l7 -35c-18 -7 -38 -9 -54 -9c-45 0 -83 21 -83 94v407h-188v-493h-43v493h-121v40h516v-40h-121v-406c0 -39 17 -57 44 -57c16 0 31 2 43 6z" />
    <glyph glyph-name="rho" unicode="&#x3c1;" horiz-adv-x="576" vert-adv-y="1105" 
d="M299 518c138 0 219 -89 219 -241v-70c0 -152 -81 -241 -219 -241c-79 0 -146 32 -177 93v-299h-42v517c0 153 81 241 219 241zM299 3c108 0 176 66 176 204v70c0 138 -68 204 -176 204s-176 -66 -176 -204v-70c0 -138 68 -204 176 -204z" />
    <glyph glyph-name="sigma" unicode="&#x3c3;" horiz-adv-x="544" vert-adv-y="1105" 
d="M277 507h257v-38h-130c62 -40 92 -110 92 -203v-59c0 -152 -81 -241 -219 -241s-219 89 -219 241v59c0 153 81 241 219 241zM277 3c108 0 176 66 176 204v59c0 138 -68 204 -176 204s-176 -66 -176 -204v-59c0 -138 68 -204 176 -204z" />
    <glyph glyph-name="tau" unicode="&#x3c4;" horiz-adv-x="524" vert-adv-y="1105" 
d="M231 467h-215v40h492v-40h-234v-386c0 -50 19 -77 61 -77c25 0 43 3 63 9l8 -35c-22 -8 -50 -12 -74 -12c-62 0 -101 35 -101 114v387z" />
    <glyph glyph-name="upsilon" unicode="&#x3c5;" horiz-adv-x="566" vert-adv-y="1105" 
d="M283 -34c-121 0 -203 72 -203 237v304h42v-291c0 -142 49 -210 161 -210s161 68 161 210v291h42v-304c0 -165 -82 -237 -203 -237z" />
    <glyph glyph-name="phi" unicode="&#x3c6;" horiz-adv-x="660" vert-adv-y="1105" 
d="M350 -240h-40v207c-144 7 -254 98 -254 242v66c0 152 122 243 274 243s274 -92 274 -243v-66c0 -143 -111 -234 -254 -242v-207zM564 213v58c0 122 -85 202 -214 211v-479c127 12 214 89 214 210zM96 271v-58c0 -123 85 -200 214 -210v479c-129 -8 -214 -88 -214 -211z
" />
    <glyph glyph-name="chi" unicode="&#x3c7;" horiz-adv-x="524" vert-adv-y="1105" 
d="M261 115l-171 -355h-46l191 388l-122 295c-9 23 -13 34 -31 34c-12 0 -23 -4 -32 -8l-13 34c15 7 32 12 47 12c40 0 56 -16 73 -58l111 -275l145 326h46l-166 -358l137 -321c9 -23 14 -36 32 -36c12 0 23 4 32 8l13 -34c-15 -7 -32 -12 -47 -12c-40 0 -56 16 -73 58z" />
    <glyph glyph-name="psi" unicode="&#x3c8;" horiz-adv-x="706" vert-adv-y="1105" 
d="M374 507v-502c131 9 209 76 209 232v270h43v-268c0 -168 -85 -266 -252 -274v-205h-42v205c-167 8 -252 106 -252 274v268h43v-270c0 -156 78 -223 209 -232v502h42z" />
    <glyph glyph-name="omega" unicode="&#x3c9;" horiz-adv-x="712" vert-adv-y="1105" 
d="M357 53h-1c-26 -53 -74 -87 -134 -87c-80 0 -167 52 -167 246v36c0 97 32 190 83 265l31 -17c-43 -77 -72 -137 -72 -252v-24c0 -193 78 -214 132 -214c59 0 106 51 106 117v251h42v-251c0 -66 47 -117 106 -117c54 0 132 21 132 214v24c0 115 -29 175 -72 252l31 17
c51 -75 83 -168 83 -265v-36c0 -194 -87 -246 -167 -246c-60 0 -107 34 -133 87z" />
    <glyph glyph-name="SF100000" unicode="&#x2500;" horiz-adv-x="920" vert-adv-y="1105" 
d="M920 315v-29h-920v29h920z" />
    <glyph glyph-name="SF110000" unicode="&#x2502;" horiz-adv-x="920" vert-adv-y="1105" 
d="M475 800v-1000h-29v1000h29z" />
    <glyph glyph-name="SF010000" unicode="&#x250c;" horiz-adv-x="920" vert-adv-y="1105" 
d="M920 315v-29h-445v-486h-29v515h474z" />
    <glyph glyph-name="SF030000" unicode="&#x2510;" horiz-adv-x="920" vert-adv-y="1105" 
d="M475 315v-515h-29v486h-446v29h475z" />
    <glyph glyph-name="SF040000" unicode="&#x2518;" horiz-adv-x="920" vert-adv-y="1105" 
d="M475 800v-514h-475v29h446v485h29z" />
    <glyph glyph-name="SF020000" unicode="&#x2514;" horiz-adv-x="920" vert-adv-y="1105" 
d="M920 315v-29h-474v514h29v-485h445z" />
    <glyph glyph-name="SF080000" unicode="&#x251c;" horiz-adv-x="920" vert-adv-y="1105" 
d="M920 315v-29h-445v-486h-29v1000h29v-485h445z" />
    <glyph glyph-name="SF060000" unicode="&#x252c;" horiz-adv-x="920" vert-adv-y="1105" 
d="M920 315v-29h-445v-486h-29v486h-446v29h920z" />
    <glyph glyph-name="SF090000" unicode="&#x2524;" horiz-adv-x="920" vert-adv-y="1105" 
d="M475 800v-1000h-29v486h-446v29h446v485h29z" />
    <glyph glyph-name="SF070000" unicode="&#x2534;" horiz-adv-x="920" vert-adv-y="1105" 
d="M920 315v-29h-920v29h446v485h29v-485h445z" />
    <glyph glyph-name="SF050000" unicode="&#x253c;" horiz-adv-x="920" vert-adv-y="1105" 
d="M920 314v-29h-445v-485h-29v485h-446v29h446v486h29v-486h445z" />
    <glyph glyph-name="uni2501" unicode="&#x2501;" horiz-adv-x="920" vert-adv-y="1105" 
d="M920 325v-54h-920v54h920z" />
    <glyph glyph-name="uni2503" unicode="&#x2503;" horiz-adv-x="920" vert-adv-y="1105" 
d="M487 800v-1000h-54v1000h54z" />
    <glyph glyph-name="uni250F" unicode="&#x250f;" horiz-adv-x="920" vert-adv-y="1105" 
d="M920 325v-54h-433v-471h-54v525h487z" />
    <glyph glyph-name="uni2513" unicode="&#x2513;" horiz-adv-x="920" vert-adv-y="1105" 
d="M487 325v-525h-54v471h-433v54h487z" />
    <glyph glyph-name="uni251B" unicode="&#x251b;" horiz-adv-x="920" vert-adv-y="1105" 
d="M487 800v-529h-487v54h433v475h54z" />
    <glyph glyph-name="uni2517" unicode="&#x2517;" horiz-adv-x="920" vert-adv-y="1105" 
d="M920 325v-54h-487v529h54v-475h433z" />
    <glyph glyph-name="uni2523" unicode="&#x2523;" horiz-adv-x="920" vert-adv-y="1105" 
d="M920 325v-54h-433v-471h-54v1000h54v-475h433z" />
    <glyph glyph-name="uni2533" unicode="&#x2533;" horiz-adv-x="920" vert-adv-y="1105" 
d="M920 325v-54h-433v-471h-54v471h-433v54h920z" />
    <glyph glyph-name="uni252B" unicode="&#x252b;" horiz-adv-x="920" vert-adv-y="1105" 
d="M487 800v-1000h-54v471h-433v54h433v475h54z" />
    <glyph glyph-name="uni253B" unicode="&#x253b;" horiz-adv-x="920" vert-adv-y="1105" 
d="M920 325v-54h-920v54h433v475h54v-475h433z" />
    <glyph glyph-name="uni254B" unicode="&#x254b;" horiz-adv-x="920" vert-adv-y="1105" 
d="M920 325v-54h-433v-471h-54v471h-433v54h433v475h54v-475h433z" />
    <glyph glyph-name="uni2520" unicode="&#x2520;" horiz-adv-x="920" vert-adv-y="1105" 
d="M920 318v-36h-423v-482h-76v1000h76v-482h423z" />
    <glyph glyph-name="uni252F" unicode="&#x252f;" horiz-adv-x="920" vert-adv-y="1105" 
d="M920 336v-72h-441v-464h-38v464h-441v72h920z" />
    <glyph glyph-name="uni2528" unicode="&#x2528;" horiz-adv-x="920" vert-adv-y="1105" 
d="M498 800v-1000h-76v482h-422v36h422v482h76z" />
    <glyph glyph-name="uni2537" unicode="&#x2537;" horiz-adv-x="920" vert-adv-y="1105" 
d="M920 336v-72h-920v72h441v464h38v-464h441z" />
    <glyph glyph-name="uni253F" unicode="&#x253f;" horiz-adv-x="920" vert-adv-y="1105" 
d="M920 336v-72h-441v-464h-38v464h-441v72h441v464h38v-464h441z" />
    <glyph glyph-name="uni251D" unicode="&#x251d;" horiz-adv-x="920" vert-adv-y="1105" 
d="M920 336v-72h-441v-464h-38v1000h38v-464h441z" />
    <glyph glyph-name="uni2530" unicode="&#x2530;" horiz-adv-x="920" vert-adv-y="1105" 
d="M920 318v-36h-422v-482h-76v482h-422v36h920z" />
    <glyph glyph-name="uni2525" unicode="&#x2525;" horiz-adv-x="920" vert-adv-y="1105" 
d="M479 800v-1000h-38v464h-441v72h441v464h38z" />
    <glyph glyph-name="uni2538" unicode="&#x2538;" horiz-adv-x="920" vert-adv-y="1105" 
d="M920 318v-36h-920v36h422v482h76v-482h422z" />
    <glyph glyph-name="uni2542" unicode="&#x2542;" horiz-adv-x="920" vert-adv-y="1105" 
d="M920 318v-36h-422v-482h-76v482h-422v36h422v482h76v-482h422z" />
    <glyph glyph-name="uni2512" unicode="&#x2512;" horiz-adv-x="920" vert-adv-y="1105" 
d="M498 318v-518h-76v482h-422v36h498z" />
    <glyph glyph-name="uni2511" unicode="&#x2511;" horiz-adv-x="920" vert-adv-y="1105" 
d="M479 336v-536h-38v464h-441v72h479z" />
    <glyph glyph-name="uni251A" unicode="&#x251a;" horiz-adv-x="920" vert-adv-y="1105" 
d="M498 800v-518h-498v36h422v482h76z" />
    <glyph glyph-name="uni2519" unicode="&#x2519;" horiz-adv-x="920" vert-adv-y="1105" 
d="M479 800v-536h-479v72h441v464h38z" />
    <glyph glyph-name="uni2516" unicode="&#x2516;" horiz-adv-x="920" vert-adv-y="1105" 
d="M920 318v-36h-498v518h76v-482h422z" />
    <glyph glyph-name="uni2515" unicode="&#x2515;" horiz-adv-x="920" vert-adv-y="1105" 
d="M920 336v-72h-479v536h38v-464h441z" />
    <glyph glyph-name="uni250E" unicode="&#x250e;" horiz-adv-x="920" vert-adv-y="1105" 
d="M920 318v-36h-422v-482h-76v518h498z" />
    <glyph glyph-name="uni250D" unicode="&#x250d;" horiz-adv-x="920" vert-adv-y="1105" 
d="M920 336v-72h-441v-464h-38v536h479z" />
    <glyph glyph-name="uni251E" unicode="&#x251e;" horiz-adv-x="920" vert-adv-y="1105" 
d="M920 318v-36h-442l1 -482h-38v500h-19v500h76v-482h422z" />
    <glyph glyph-name="uni251F" unicode="&#x251f;" horiz-adv-x="920" vert-adv-y="1105" 
d="M920 318v-36h-422v-482h-76v500h19v500h38v-482h441z" />
    <glyph glyph-name="uni2521" unicode="&#x2521;" horiz-adv-x="920" vert-adv-y="1105" 
d="M920 336v-72h-441v-464h-38v500h-19v500h76v-464h422z" />
    <glyph glyph-name="uni2522" unicode="&#x2522;" horiz-adv-x="920" vert-adv-y="1105" 
d="M920 336v-72h-422v-464h-76v500h19v500h38v-464h441z" />
    <glyph glyph-name="uni2526" unicode="&#x2526;" horiz-adv-x="920" vert-adv-y="1105" 
d="M498 800v-500h-19v-500h-38v482h-441v36h422v482h76z" />
    <glyph glyph-name="uni2527" unicode="&#x2527;" horiz-adv-x="920" vert-adv-y="1105" 
d="M498 300v-500h-76v482h-422v36h441v482h38v-500h19z" />
    <glyph glyph-name="uni2529" unicode="&#x2529;" horiz-adv-x="920" vert-adv-y="1105" 
d="M498 800v-500h-19v-500h-38v464h-441v72h422v464h76z" />
    <glyph glyph-name="uni252A" unicode="&#x252a;" horiz-adv-x="920" vert-adv-y="1105" 
d="M498 300v-500h-76v464h-422v72h441v464h38v-500h19z" />
    <glyph glyph-name="uni252D" unicode="&#x252d;" horiz-adv-x="920" vert-adv-y="1105" 
d="M920 318v-36h-441v-482h-38v464h-441v72h460v-18h460z" />
    <glyph glyph-name="uni252E" unicode="&#x252e;" horiz-adv-x="920" vert-adv-y="1105" 
d="M920 336v-72h-441v-464h-38v482h-441v36h460v18h460z" />
    <glyph glyph-name="uni2531" unicode="&#x2531;" horiz-adv-x="920" vert-adv-y="1105" 
d="M920 318v-36h-422v-482h-76v464h-422v72h460v-18h460z" />
    <glyph glyph-name="uni2532" unicode="&#x2532;" horiz-adv-x="920" vert-adv-y="1105" 
d="M920 336v-72h-422v-464h-76v482h-422v36h460v18h460z" />
    <glyph glyph-name="uni2535" unicode="&#x2535;" horiz-adv-x="920" vert-adv-y="1105" 
d="M920 318v-36h-460v-18h-460v72h441v464h38v-482h441z" />
    <glyph glyph-name="uni2536" unicode="&#x2536;" horiz-adv-x="920" vert-adv-y="1105" 
d="M920 336v-72h-460v18h-460v36h441v482h38v-464h441z" />
    <glyph glyph-name="uni2539" unicode="&#x2539;" horiz-adv-x="920" vert-adv-y="1105" 
d="M920 318v-36h-460v-18h-460v72h422v464h76v-482h422z" />
    <glyph glyph-name="uni253A" unicode="&#x253a;" horiz-adv-x="920" vert-adv-y="1105" 
d="M920 336v-72h-460v18h-460v36h422v482h76v-464h422z" />
    <glyph glyph-name="uni253D" unicode="&#x253d;" horiz-adv-x="920" vert-adv-y="1105" 
d="M920 318v-36h-441v-482h-38v464h-441v76h441v460h38v-482h441z" />
    <glyph glyph-name="uni253E" unicode="&#x253e;" horiz-adv-x="920" vert-adv-y="1105" 
d="M920 336v-72h-441v-464h-38v482h-441v36h441v482h38v-464h441z" />
    <glyph glyph-name="uni2540" unicode="&#x2540;" horiz-adv-x="920" vert-adv-y="1105" 
d="M920 318v-36h-441v-482h-38v482h-441v36h422v482h76v-482h422z" />
    <glyph glyph-name="uni2541" unicode="&#x2541;" horiz-adv-x="920" vert-adv-y="1105" 
d="M920 318v-36h-422v-482h-76v482h-422v36h441v482h38v-482h441z" />
    <glyph glyph-name="uni2543" unicode="&#x2543;" horiz-adv-x="920" vert-adv-y="1105" 
d="M920 318v-36h-441v-482h-38v464h-441v72h422v464h76v-482h422z" />
    <glyph glyph-name="uni2544" unicode="&#x2544;" horiz-adv-x="920" vert-adv-y="1105" 
d="M920 336v-72h-441v-464h-38v482h-441v36h422v482h76v-464h422z" />
    <glyph glyph-name="uni2545" unicode="&#x2545;" horiz-adv-x="920" vert-adv-y="1105" 
d="M920 318v-36h-422v-482h-76v464h-422v72h441v464h38v-482h441z" />
    <glyph glyph-name="uni2546" unicode="&#x2546;" horiz-adv-x="920" vert-adv-y="1105" 
d="M920 336v-72h-422v-464h-76v482h-422v36h441v482h38v-464h441z" />
    <glyph glyph-name="uni2547" unicode="&#x2547;" horiz-adv-x="920" vert-adv-y="1105" 
d="M920 336v-72h-441v-464h-38v464h-441v72h422v464h76v-464h422z" />
    <glyph glyph-name="uni2548" unicode="&#x2548;" horiz-adv-x="920" vert-adv-y="1105" 
d="M920 336v-72h-422v-464h-76v464h-422v72h441v464h38v-464h441z" />
    <glyph glyph-name="uni2549" unicode="&#x2549;" horiz-adv-x="920" vert-adv-y="1105" 
d="M920 318v-36h-422v-482h-76v464h-422v72h422v464h76v-482h422z" />
    <glyph glyph-name="uni254A" unicode="&#x254a;" horiz-adv-x="920" vert-adv-y="1105" 
d="M920 336v-72h-422v-464h-76v482h-422v36h422v482h76v-464h422z" />
    <glyph glyph-name="uni3395" unicode="&#x3395;" vert-adv-y="1105" 
d="M519 -26h-38v81c-19 -37 -67 -89 -154 -89c-104 0 -145 48 -166 91v-297h-39v745h39v-343c0 -79 60 -159 165 -159c91 0 154 78 154 196v306h39v-531zM806 38l20 -27c-19 -32 -63 -45 -108 -45c-52 0 -106 36 -106 100v452c0 101 26 189 112 189c85 0 106 -89 106 -189
v-89c0 -180 -61 -271 -177 -315v-28c0 -53 23 -85 71 -85c33 0 58 9 82 37zM653 506v-350c77 14 136 106 136 272v78c0 80 -2 162 -65 162c-61 0 -71 -82 -71 -162z" />
    <glyph glyph-name="uni3396" unicode="&#x3396;" vert-adv-y="1105" 
d="M93 505h38v-73c15 42 48 83 104 83c28 0 73 -6 94 -80c17 45 50 80 108 80c51 0 106 -39 106 -135v-406h-42v388c0 71 -19 111 -78 111c-51 0 -84 -53 -84 -114v-385h-42v393c0 72 -26 106 -71 106c-52 0 -91 -49 -91 -119v-380h-42v531zM816 38l20 -27
c-19 -32 -63 -45 -108 -45c-52 0 -106 36 -106 100v452c0 101 26 189 112 189c85 0 106 -89 106 -189v-89c0 -180 -61 -271 -177 -315v-28c0 -53 23 -85 71 -85c33 0 58 9 82 37zM663 506v-350c77 14 136 106 136 272v78c0 80 -2 162 -65 162c-61 0 -71 -82 -71 -162z" />
    <glyph glyph-name="uni3397" unicode="&#x3397;" vert-adv-y="1105" 
d="M485 -26h-38v91c-24 -69 -95 -99 -162 -99c-122 0 -194 82 -194 227v96c0 145 73 226 194 226c90 0 144 -55 161 -103v283h39v-721zM130 279v-76c0 -124 56 -196 154 -196c89 0 162 55 162 159v156c0 70 -63 151 -162 151c-105 0 -154 -71 -154 -194zM786 38l20 -27
c-19 -32 -63 -45 -108 -45c-52 0 -106 36 -106 100v452c0 101 26 189 112 189c85 0 106 -78 106 -189v-89c0 -180 -49 -265 -177 -315v-28c0 -53 23 -85 71 -85c33 0 58 9 82 37zM633 506v-350c83 30 136 106 136 272v78c0 80 -3 162 -65 162c-61 0 -71 -82 -71 -162z" />
    <glyph glyph-name="afii61289" unicode="&#x2113;" vert-adv-y="1105" 
d="M559 41l22 -33c-21 -30 -63 -42 -104 -42c-38 0 -107 23 -107 101v449c0 101 21 190 109 190c92 0 110 -90 110 -190v-85c0 -180 -61 -272 -178 -317v-24c0 -54 28 -79 70 -79c28 0 56 5 78 30zM411 509v-348c75 17 136 104 136 269v79c0 81 -7 153 -68 153
s-68 -72 -68 -153z" />
    <glyph glyph-name="uni3398" unicode="&#x3398;" vert-adv-y="1105" 
d="M527 505l-184 -194l198 -337h-53l-174 307l-99 -106v-201h-39v721h39v-467l254 277h58zM796 38l20 -27c-19 -32 -63 -45 -108 -45c-52 0 -106 36 -106 100v452c0 101 26 189 112 189c85 0 106 -78 106 -189v-89c0 -180 -49 -265 -177 -315v-28c0 -53 23 -85 71 -85
c33 0 58 9 82 37zM643 506v-350c83 30 136 106 136 272v78c0 80 -3 162 -65 162c-61 0 -71 -82 -71 -162z" />
    <glyph glyph-name="uni33C4" unicode="&#x33c4;" vert-adv-y="1105" 
d="M300 515c81 0 118 -30 143 -50l-24 -32c-38 30 -68 44 -116 44c-110 0 -137 -88 -137 -200v-67c0 -118 30 -205 142 -205c31 0 84 11 126 55l25 -31c-33 -34 -82 -63 -152 -63c-125 0 -183 88 -183 245v63c0 157 59 241 176 241zM671 515c81 0 118 -30 143 -50l-24 -32
c-38 30 -68 44 -116 44c-110 0 -137 -88 -137 -200v-67c0 -118 30 -205 142 -205c31 0 84 11 126 55l25 -31c-33 -34 -82 -63 -152 -63c-125 0 -183 88 -183 245v63c0 157 59 241 176 241z" />
    <glyph glyph-name="uni33A3" unicode="&#x33a3;" vert-adv-y="1105" 
d="M51 505h32v-71c3 33 22 81 79 81c28 0 63 -12 72 -89c12 58 42 89 88 89c57 0 90 -36 90 -128v-413h-39v382c0 68 -2 122 -56 122c-49 0 -66 -58 -66 -120v-384h-39v394c0 71 -14 110 -59 110c-52 0 -63 -60 -63 -126v-378h-39v531zM495 505h32v-71c3 33 22 81 79 81
c28 0 63 -12 72 -89c12 58 42 89 88 89c57 0 90 -36 90 -128v-413h-39v382c0 68 -2 122 -56 122c-49 0 -66 -58 -66 -120v-384h-39v394c0 71 -14 110 -59 110c-52 0 -63 -60 -63 -126v-378h-39v531zM757 744l-16 17c12 16 36 29 62 29c39 0 65 -19 65 -52v-6
c-1 -22 -11 -38 -41 -48c28 -3 50 -19 50 -49v-9c0 -33 -26 -60 -71 -60c-23 0 -46 7 -69 24l13 20c25 -18 41 -20 55 -20c32 0 43 17 43 38v5c0 33 -26 38 -49 38h-18v24h18c28 0 41 12 41 37v4c0 18 -10 30 -36 30c-12 0 -29 -3 -47 -22z" />
    <glyph glyph-name="uni33A4" unicode="&#x33a4;" vert-adv-y="1105" 
d="M224 515c62 0 99 -19 125 -46l-26 -31c-30 32 -56 39 -99 39c-119 0 -128 -99 -128 -203v-62c0 -118 25 -207 132 -207c39 0 85 15 114 53l25 -30c-31 -36 -77 -62 -139 -62c-124 0 -175 90 -175 247v58c0 157 43 244 171 244zM415 505h38v-73c15 42 48 83 104 83
c28 0 73 -6 94 -80c17 45 50 80 108 80c51 0 106 -39 106 -135v-406h-42v380c0 71 -19 111 -78 111c-51 0 -84 -53 -84 -114v-377h-42v385c0 72 -26 106 -71 106c-52 0 -91 -49 -91 -119v-372h-42v531zM757 744l-16 17c12 16 36 29 62 29c39 0 65 -19 65 -52v-6
c-1 -22 -11 -38 -41 -48c28 -3 50 -19 50 -49v-9c0 -33 -26 -60 -71 -60c-23 0 -46 7 -69 24l13 20c25 -18 41 -20 55 -20c32 0 43 17 43 38v5c0 33 -26 38 -49 38h-18v24h18c28 0 41 12 41 37v4c0 18 -10 30 -36 30c-12 0 -29 -3 -47 -22z" />
    <glyph glyph-name="uni33A5" unicode="&#x33a5;" vert-adv-y="1105" 
d="M804 339v-365h-43v352c0 92 -30 151 -131 151c-107 0 -151 -91 -151 -139v-364h-43v352c0 92 -31 151 -132 151c-107 0 -150 -95 -150 -143v-360h-43v531h42v-82c19 37 65 93 158 93c90 0 137 -44 156 -103c26 56 85 103 170 103c125 0 167 -86 167 -177zM757 744l-16 17
c12 16 36 29 62 29c39 0 65 -19 65 -52v-6c-1 -22 -11 -38 -41 -48c28 -3 50 -19 50 -49v-9c0 -33 -26 -60 -71 -60c-23 0 -46 7 -69 24l13 20c25 -18 41 -20 55 -20c32 0 43 17 43 38v5c0 33 -26 38 -49 38h-18v24h18c28 0 41 12 41 37v4c0 18 -10 30 -36 30
c-12 0 -29 -3 -47 -22z" />
    <glyph glyph-name="uni33A6" unicode="&#x33a6;" vert-adv-y="1105" 
d="M377 505l-178 -214l187 -317h-57l-160 285l-76 -93v-192h-39v721h39v-469l225 279h59zM415 505h38v-73c15 42 48 83 104 83c28 0 73 -6 94 -80c17 45 50 80 108 80c51 0 106 -39 106 -135v-406h-42v388c0 71 -19 111 -78 111c-51 0 -84 -53 -84 -114v-385h-42v393
c0 72 -26 106 -71 106c-52 0 -91 -49 -91 -119v-380h-42v531zM757 744l-16 17c12 16 36 29 62 29c39 0 65 -19 65 -52v-6c-1 -22 -11 -38 -41 -48c28 -3 50 -19 50 -49v-9c0 -33 -26 -60 -71 -60c-23 0 -46 7 -69 24l13 20c25 -18 41 -20 55 -20c32 0 43 17 43 38v5
c0 33 -26 38 -49 38h-18v24h18c28 0 41 12 41 37v4c0 18 -10 30 -36 30c-12 0 -29 -3 -47 -22z" />
    <glyph glyph-name="uni3399" unicode="&#x3399;" vert-adv-y="1105" 
d="M381 505h38v-73c15 42 50 83 106 83c28 0 75 -6 96 -80c17 45 52 80 110 80c51 0 108 -39 108 -135v-406h-42v388c0 71 -21 111 -80 111c-51 0 -86 -53 -86 -114v-385h-42v393c0 72 -28 106 -73 106c-52 0 -93 -49 -93 -119v-380h-42v531zM134 -26v495h-92v36h92v52
c0 124 73 149 138 149c26 0 56 -5 73 -11l-6 -35c-21 6 -40 9 -66 9c-69 0 -95 -39 -95 -114v-50h151v-36h-151v-495h-44z" />
    <glyph glyph-name="uni339A" unicode="&#x339a;" vert-adv-y="1105" 
d="M335 357v-383h-42v369c0 78 -7 129 -79 129c-84 0 -100 -111 -100 -150v-348h-42v531h48v-73c4 27 30 83 104 83c71 0 111 -38 111 -158zM407 505h38v-73c15 42 48 83 104 83c28 0 73 -6 94 -80c17 45 50 80 108 80c51 0 106 -39 106 -135v-406h-42v388
c0 71 -19 111 -78 111c-51 0 -84 -53 -84 -114v-385h-42v393c0 72 -26 106 -71 106c-52 0 -91 -49 -91 -119v-380h-42v531z" />
    <glyph glyph-name="uni339B" unicode="&#x339b;" vert-adv-y="1105" 
d="M114 -240h-39v745h38v-375c0 -61 23 -123 90 -123c76 0 97 95 97 154v344h38v-531h-41v71c-7 -43 -46 -79 -93 -79c-38 0 -73 13 -90 62v-268zM407 505h38v-73c15 42 48 83 104 83c28 0 73 -6 94 -80c17 45 50 80 108 80c51 0 106 -39 106 -135v-406h-42v388
c0 71 -19 111 -78 111c-51 0 -84 -53 -84 -114v-385h-42v393c0 72 -26 106 -71 106c-52 0 -91 -49 -91 -119v-380h-42v531z" />
    <glyph glyph-name="uni339C" unicode="&#x339c;" vert-adv-y="1105" 
d="M51 505h32v-71c3 33 22 81 79 81c28 0 63 -12 72 -89c12 58 42 89 88 89c57 0 90 -36 90 -128v-413h-39v382c0 68 -2 122 -56 122c-49 0 -66 -58 -66 -120v-384h-39v394c0 71 -14 110 -59 110c-52 0 -63 -60 -63 -126v-378h-39v531zM495 505h32v-71c3 33 22 81 79 81
c28 0 63 -12 72 -89c12 58 42 89 88 89c57 0 90 -36 90 -128v-413h-39v382c0 68 -2 122 -56 122c-49 0 -66 -58 -66 -120v-384h-39v394c0 71 -14 110 -59 110c-52 0 -63 -60 -63 -126v-378h-39v531z" />
    <glyph glyph-name="uni339D" unicode="&#x339d;" vert-adv-y="1105" 
d="M224 515c62 0 99 -19 125 -46l-26 -31c-30 32 -56 39 -99 39c-119 0 -128 -99 -128 -203v-62c0 -118 25 -207 132 -207c39 0 85 15 114 53l25 -30c-31 -36 -77 -62 -139 -62c-124 0 -175 90 -175 247v58c0 157 43 244 171 244zM415 505h38v-73c15 42 48 83 104 83
c28 0 73 -6 94 -80c17 45 50 80 108 80c51 0 106 -39 106 -135v-406h-42v380c0 71 -19 111 -78 111c-51 0 -84 -53 -84 -114v-377h-42v385c0 72 -26 106 -71 106c-52 0 -91 -49 -91 -119v-372h-42v531z" />
    <glyph glyph-name="uni339E" unicode="&#x339e;" vert-adv-y="1105" 
d="M377 505l-178 -214l187 -317h-57l-160 285l-76 -93v-192h-39v721h39v-469l225 279h59zM415 505h38v-73c15 42 48 83 104 83c28 0 73 -6 94 -80c17 45 50 80 108 80c51 0 106 -39 106 -135v-406h-42v388c0 71 -19 111 -78 111c-51 0 -84 -53 -84 -114v-385h-42v393
c0 72 -26 106 -71 106c-52 0 -91 -49 -91 -119v-380h-42v531z" />
    <glyph glyph-name="uni339F" unicode="&#x339f;" vert-adv-y="1105" 
d="M734 589l82 94c17 20 22 29 22 47v4c0 18 -12 31 -36 31c-18 0 -33 -6 -48 -22l-17 17c14 16 33 30 66 30c40 0 63 -25 63 -54v-6c0 -23 -11 -40 -28 -60l-64 -74h99v-24h-139v17zM51 505h32v-71c3 33 22 81 79 81c28 0 63 -12 72 -89c12 58 42 89 88 89
c57 0 90 -36 90 -128v-413h-39v382c0 68 -2 122 -56 122c-49 0 -66 -58 -66 -120v-384h-39v394c0 71 -14 110 -59 110c-52 0 -63 -60 -63 -126v-378h-39v531zM495 505h32v-71c3 33 22 81 79 81c28 0 63 -12 72 -89c12 58 42 89 88 89c57 0 90 -36 90 -128v-413h-39v382
c0 68 -2 122 -56 122c-49 0 -66 -58 -66 -120v-384h-39v394c0 71 -14 110 -59 110c-52 0 -63 -60 -63 -126v-378h-39v531z" />
    <glyph glyph-name="uni33A0" unicode="&#x33a0;" vert-adv-y="1105" 
d="M734 589l82 94c17 20 22 29 22 47v4c0 18 -12 31 -36 31c-18 0 -33 -6 -48 -22l-17 17c14 16 33 30 66 30c40 0 63 -25 63 -54v-6c0 -23 -11 -40 -28 -60l-64 -74h99v-24h-139v17zM224 515c62 0 99 -19 125 -46l-26 -31c-30 32 -56 39 -99 39c-119 0 -128 -99 -128 -203
v-62c0 -118 25 -207 132 -207c39 0 85 15 114 53l25 -30c-31 -36 -77 -62 -139 -62c-124 0 -175 90 -175 247v58c0 157 43 244 171 244zM415 505h38v-73c15 42 48 83 104 83c28 0 73 -6 94 -80c17 45 50 80 108 80c51 0 106 -39 106 -135v-406h-42v380c0 71 -19 111 -78 111
c-51 0 -84 -53 -84 -114v-377h-42v385c0 72 -26 106 -71 106c-52 0 -91 -49 -91 -119v-372h-42v531z" />
    <glyph glyph-name="uni33A1" unicode="&#x33a1;" vert-adv-y="1105" 
d="M804 339v-365h-43v352c0 92 -30 151 -131 151c-107 0 -151 -91 -151 -139v-364h-43v352c0 92 -31 151 -132 151c-107 0 -150 -95 -150 -143v-360h-43v531h42v-82c19 37 65 93 158 93c90 0 137 -44 156 -103c26 56 85 103 170 103c125 0 167 -86 167 -177zM734 589l82 94
c17 20 22 29 22 47v4c0 18 -12 31 -36 31c-18 0 -33 -6 -48 -22l-17 17c14 16 33 30 66 30c40 0 63 -25 63 -54v-6c0 -23 -11 -40 -28 -60l-64 -74h99v-24h-139v17z" />
    <glyph glyph-name="uni33A2" unicode="&#x33a2;" vert-adv-y="1105" 
d="M377 505l-178 -214l187 -317h-57l-160 285l-76 -93v-192h-39v721h39v-469l225 279h59zM415 505h38v-73c15 42 48 83 104 83c28 0 73 -6 94 -80c17 45 50 80 108 80c51 0 106 -39 106 -135v-406h-42v388c0 71 -19 111 -78 111c-51 0 -84 -53 -84 -114v-385h-42v393
c0 72 -26 106 -71 106c-52 0 -91 -49 -91 -119v-380h-42v531zM734 589l82 94c17 20 22 29 22 47v4c0 18 -12 31 -36 31c-18 0 -33 -6 -48 -22l-17 17c14 16 33 30 66 30c40 0 63 -25 63 -54v-6c0 -23 -11 -40 -28 -60l-64 -74h99v-24h-139v17z" />
    <glyph glyph-name="uni33CA" unicode="&#x33ca;" vert-adv-y="1105" 
d="M543 430l-22 32c42 32 87 53 148 53c94 0 135 -57 135 -163v-378h-40v85c-10 -43 -65 -93 -129 -93c-93 0 -135 64 -135 148v22c0 84 42 145 159 145h104v61c0 94 -25 134 -98 134c-44 0 -77 -12 -122 -46zM445 333v-359h-40v347c0 86 -21 155 -112 155
c-89 0 -134 -85 -134 -147v-355h-40v721h40v-279c23 59 69 99 139 99c105 0 147 -78 147 -182zM763 136v106h-103c-102 0 -119 -46 -119 -109v-16c0 -79 37 -112 97 -112c75 0 125 57 125 131z" />
    <glyph glyph-name="uni338D" unicode="&#x338d;" vert-adv-y="1105" 
d="M839 505v-528c0 -153 -52 -222 -167 -222c-63 0 -107 19 -148 50l19 32c50 -37 90 -47 127 -47c98 0 131 61 131 190v93c-17 -50 -55 -97 -133 -97c-112 0 -168 74 -168 229v82c0 152 60 228 169 228c73 0 111 -39 134 -95v85h36zM417 -26h-37v81
c-14 -37 -54 -89 -121 -89c-85 0 -113 47 -133 83v-289h-38v745h38v-347c0 -79 45 -155 134 -155c79 0 119 74 119 192v310h38v-531zM800 155v174c0 69 -49 152 -134 152c-84 0 -127 -74 -127 -199v-73c0 -126 30 -198 129 -198c76 0 132 67 132 144z" />
    <glyph glyph-name="uni338E" unicode="&#x338e;" vert-adv-y="1105" 
d="M850 505v-530c0 -163 -44 -224 -141 -224c-55 0 -92 18 -134 52l20 30c37 -28 65 -44 114 -44c76 0 101 47 101 188v92c-7 -56 -57 -93 -102 -93c-112 0 -135 74 -135 229v88c0 152 43 222 129 222c42 0 87 -17 101 -73v63h47zM809 177v149c0 69 -22 152 -106 152
c-71 0 -89 -74 -89 -199v-69c0 -115 3 -198 88 -198c88 0 107 88 107 165zM66 505h38v-73c15 42 48 83 104 83c28 0 73 -6 94 -80c17 45 50 80 108 80c51 0 106 -39 106 -135v-406h-42v388c0 71 -19 111 -78 111c-51 0 -84 -53 -84 -114v-385h-42v393c0 72 -26 106 -71 106
c-52 0 -91 -49 -91 -119v-380h-42v531z" />
    <glyph glyph-name="uni338F" unicode="&#x338f;" vert-adv-y="1105" 
d="M458 505l-183 -193l195 -338h-49l-174 309l-103 -111v-198h-39v721h39v-472l259 282h55zM839 505v-528c0 -153 -52 -222 -167 -222c-63 0 -107 19 -148 50l19 32c50 -37 90 -47 127 -47c98 0 131 61 131 190v93c-17 -50 -55 -97 -133 -97c-112 0 -168 74 -168 229v82
c0 152 60 228 169 228c73 0 111 -39 134 -95v85h36zM800 155v174c0 69 -49 152 -134 152c-84 0 -127 -74 -127 -199v-73c0 -126 30 -198 129 -198c76 0 132 67 132 144z" />
    <glyph glyph-name="uni33CF" unicode="&#x33cf;" vert-adv-y="1105" 
d="M650 121v351h-110v33h110v140h39v-140h130v-33h-130v-347c0 -87 11 -120 63 -120c30 0 52 6 77 15l9 -32c-23 -9 -55 -16 -87 -16c-66 0 -101 25 -101 149zM490 505l-183 -193l195 -338h-49l-174 309l-103 -111v-198h-39v721h39v-472l259 282h55z" />
    <glyph glyph-name="uni3388" unicode="&#x3388;" vert-adv-y="1105" 
d="M786 695h39v-721h-39v721zM230 515c61 0 91 -21 115 -46l-26 -31c-30 32 -54 39 -90 39c-101 0 -117 -97 -117 -201v-66c0 -118 21 -205 122 -205c35 0 75 16 104 54l25 -30c-30 -37 -74 -63 -129 -63c-118 0 -165 90 -165 247v58c0 157 46 244 161 244zM433 430l-22 32
c42 32 87 53 148 53c94 0 135 -57 135 -163v-378h-40v85c-10 -43 -65 -93 -129 -93c-93 0 -135 64 -135 148v22c0 84 42 145 159 145h104v61c0 94 -25 134 -98 134c-44 0 -77 -12 -122 -46zM653 136v106h-103c-102 0 -119 -46 -119 -109v-16c0 -79 37 -112 97 -112
c75 0 125 57 125 131z" />
    <glyph glyph-name="uni3389" unicode="&#x3389;" vert-adv-y="1105" 
d="M572 434l-23 30c14 15 51 51 100 51c74 0 106 -45 106 -167v-374h-43v74c-9 -55 -44 -82 -89 -82c-77 0 -97 64 -97 142v21c0 84 27 156 135 156h49v59c0 104 -19 130 -62 130c-28 0 -49 -13 -76 -40zM251 505l-103 -199l118 -332h-50l-95 284l-47 -82v-202h-44v721h44
v-444l129 254h48zM400 515c37 0 65 -10 96 -45l-27 -29c-21 27 -40 32 -68 32c-72 0 -86 -89 -86 -196v-69c0 -182 39 -200 83 -200c35 0 65 25 77 47l31 -29c-22 -34 -61 -60 -111 -60c-79 0 -123 54 -123 243v67c0 164 45 239 128 239zM826 695h44v-721h-44v721zM710 156
v88h-52c-64 0 -83 -44 -83 -113v-23c0 -65 13 -102 51 -102c64 0 84 76 84 150z" />
    <glyph glyph-name="uni33C8" unicode="&#x33c8;" vert-adv-y="1105" 
d="M442 -26h-40v91c-19 -56 -75 -99 -149 -99c-128 0 -181 82 -181 227v96c0 145 64 226 182 226c95 0 130 -60 147 -93v273h41v-721zM113 279v-76c0 -124 35 -196 139 -196c89 0 149 63 149 167v142c0 70 -50 157 -149 157c-100 0 -139 -71 -139 -194zM520 -26v721h123
c157 0 196 -54 196 -172v-21c0 -63 -24 -116 -91 -147c90 -16 120 -66 120 -166v-25c0 -121 -53 -190 -187 -190h-161zM563 330v-314h118c121 0 142 63 142 148v22c0 104 -40 144 -163 144h-97zM656 654h-93v-283h96c77 0 136 44 136 134v18c0 85 -23 131 -139 131z" />
    <glyph glyph-name="uni33A7" unicode="&#x33a7;" vert-adv-y="1105" 
d="M746 0c58 0 86 32 86 103v13c0 54 -6 77 -78 113c-35 17 -103 41 -103 134v18c0 89 47 134 118 134c48 0 80 -15 97 -32l-20 -28c-21 19 -45 27 -78 27c-60 0 -78 -45 -78 -102v-17c0 -50 19 -68 63 -89c81 -38 118 -68 118 -155v-18c0 -113 -72 -135 -130 -135
c-34 0 -72 12 -105 42l20 27c29 -27 62 -35 90 -35zM646 759h31l-202 -884h-30zM54 505h32v-71c3 33 22 81 79 81c28 0 63 -12 72 -89c12 58 42 89 88 89c57 0 90 -36 90 -128v-413h-39v382c0 68 -2 122 -56 122c-49 0 -66 -58 -66 -120v-384h-39v394c0 71 -14 110 -59 110
c-52 0 -63 -60 -63 -126v-378h-39v531z" />
    <glyph glyph-name="uni33A8" unicode="&#x33a8;" vert-adv-y="1105" 
d="M746 0c58 0 86 32 86 103v13c0 54 -6 77 -78 113c-35 17 -103 41 -103 134v18c0 89 47 134 118 134c48 0 80 -15 97 -32l-20 -28c-21 19 -45 27 -78 27c-60 0 -78 -45 -78 -102v-17c0 -50 19 -68 63 -89c81 -38 118 -68 118 -155v-18c0 -113 -72 -135 -130 -135
c-34 0 -72 12 -105 42l20 27c29 -27 62 -35 90 -35zM646 759h31l-202 -884h-30zM54 505h32v-71c3 33 22 81 79 81c28 0 63 -12 72 -89c12 58 42 89 88 89c57 0 90 -36 90 -128v-413h-39v382c0 68 -2 122 -56 122c-49 0 -66 -58 -66 -120v-384h-39v394c0 71 -14 110 -59 110
c-52 0 -63 -60 -63 -126v-378h-39v531zM734 589l82 94c17 20 22 29 22 47v4c0 18 -12 31 -36 31c-18 0 -33 -6 -48 -22l-17 17c14 16 33 30 66 30c40 0 63 -25 63 -54v-6c0 -23 -11 -40 -28 -60l-64 -74h99v-24h-139v17z" />
    <glyph glyph-name="uni33B0" unicode="&#x33b0;" vert-adv-y="1105" 
d="M138 505v-80c14 47 75 90 147 90c124 0 180 -77 180 -227v-100c0 -143 -68 -222 -179 -222c-88 0 -137 59 -149 102v-308h-42v745h43zM686 7c89 0 123 48 123 101v10c0 62 -14 80 -130 112c-106 29 -145 56 -145 137v14c0 75 53 134 157 134c62 0 106 -11 149 -43
l-21 -35c-37 28 -72 37 -127 37c-81 0 -116 -39 -116 -94v-11c0 -52 22 -74 120 -101c127 -35 155 -62 155 -147v-15c0 -83 -56 -140 -163 -140c-63 0 -121 18 -169 50l23 39c44 -33 94 -48 144 -48zM138 321v-158c0 -69 54 -159 146 -159c94 0 138 66 138 191v87
c0 126 -47 195 -138 195c-80 0 -146 -51 -146 -156z" />
    <glyph glyph-name="uni33B1" unicode="&#x33b1;" vert-adv-y="1105" 
d="M439 351v-377h-40v365c0 68 -24 136 -122 136c-93 0 -140 -90 -140 -130v-371h-40v531h40v-87c16 48 68 97 149 97c78 0 153 -44 153 -164zM676 7c89 0 123 48 123 101v10c0 62 -14 80 -130 112c-106 29 -145 56 -145 137v14c0 75 53 134 157 134c62 0 106 -11 149 -43
l-21 -35c-37 28 -72 37 -127 37c-81 0 -116 -39 -116 -94v-11c0 -52 22 -74 120 -101c127 -35 155 -62 155 -147v-15c0 -83 -56 -140 -163 -140c-63 0 -121 18 -169 50l23 39c44 -33 94 -48 144 -48z" />
    <glyph glyph-name="uni33B2" unicode="&#x33b2;" vert-adv-y="1105" 
d="M673 7c89 0 123 48 123 101v10c0 62 -14 80 -130 112c-106 29 -145 56 -145 137v14c0 75 53 134 157 134c62 0 106 -11 149 -43l-21 -35c-37 28 -72 37 -127 37c-81 0 -116 -39 -116 -94v-11c0 -52 22 -74 120 -101c127 -35 155 -62 155 -147v-15
c0 -83 -56 -140 -163 -140c-63 0 -121 18 -169 50l23 39c44 -33 94 -48 144 -48zM435 -26h-37v81c-14 -37 -56 -89 -123 -89c-85 0 -119 47 -139 83v-289h-38v745h38v-347c0 -79 49 -155 138 -155c79 0 123 74 123 192v310h38v-531z" />
    <glyph glyph-name="uni33B3" unicode="&#x33b3;" vert-adv-y="1105" 
d="M721 7c89 0 121 48 121 101v10c0 62 -12 80 -128 112c-106 29 -143 56 -143 137v14c0 75 51 134 155 134c62 0 104 -11 147 -43l-21 -35c-37 28 -70 37 -125 37c-81 0 -114 -39 -114 -94v-11c0 -52 20 -74 118 -101c127 -35 153 -62 153 -147v-15
c0 -83 -54 -140 -161 -140c-63 0 -119 18 -167 50l23 39c44 -33 92 -48 142 -48zM58 505h38v-73c15 42 48 83 104 83c28 0 73 -6 94 -80c17 45 50 80 108 80c51 0 106 -39 106 -135v-406h-42v388c0 71 -19 111 -78 111c-51 0 -84 -53 -84 -114v-385h-42v393
c0 72 -26 106 -71 106c-52 0 -91 -49 -91 -119v-380h-42v531z" />
    <glyph glyph-name="uni33B4" unicode="&#x33b4;" vert-adv-y="1105" 
d="M439 695h49l171 -668l164 668h46l-182 -721h-58zM126 505v-80c14 47 75 90 147 90c124 0 180 -77 180 -227v-100c0 -143 -68 -222 -179 -222c-88 0 -137 59 -149 102v-308h-42v745h43zM126 321v-158c0 -69 54 -159 146 -159c94 0 138 66 138 191v87
c0 126 -47 195 -138 195c-80 0 -146 -51 -146 -156z" />
    <glyph glyph-name="uni33B5" unicode="&#x33b5;" vert-adv-y="1105" 
d="M436 695h49l171 -668l164 668h46l-182 -721h-58zM429 351v-377h-40v365c0 68 -21 136 -119 136c-93 0 -137 -90 -137 -130v-371h-40v531h40v-87c16 48 65 97 146 97c78 0 150 -44 150 -164z" />
    <glyph glyph-name="uni33B6" unicode="&#x33b6;" vert-adv-y="1105" 
d="M417 -26h-37v81c-14 -37 -54 -89 -121 -89c-85 0 -113 47 -133 83v-289h-38v745h38v-347c0 -79 45 -155 134 -155c79 0 119 74 119 192v310h38v-531zM436 695h49l171 -668l164 668h46l-182 -721h-58z" />
    <glyph glyph-name="uni33B7" unicode="&#x33b7;" vert-adv-y="1105" 
d="M534 695h47l125 -668l119 668h44l-136 -721h-56zM63 505h38v-73c15 42 48 83 104 83c28 0 73 -6 94 -80c17 45 50 80 108 80c51 0 106 -39 106 -135v-406h-42v388c0 71 -19 111 -78 111c-51 0 -84 -53 -84 -114v-385h-42v393c0 72 -26 106 -71 106
c-52 0 -91 -49 -91 -119v-380h-42v531z" />
    <glyph glyph-name="uni33B8" unicode="&#x33b8;" vert-adv-y="1105" 
d="M426 505l-178 -214l197 -317h-57l-170 285l-76 -93v-192h-39v721h39v-469l225 279h59zM439 695h49l171 -668l164 668h46l-182 -721h-58z" />
    <glyph glyph-name="uni33B9" unicode="&#x33b9;" vert-adv-y="1105" 
d="M255 94l-88 359c-15 63 -25 99 -34 179v-658h-48v721h66l136 -558l146 558h53v-721h-43v632c-6 -54 -19 -113 -29 -152l-100 -360h-59zM534 695h47l125 -668l119 668h44l-136 -721h-56z" />
    <glyph glyph-name="uni3380" unicode="&#x3380;" vert-adv-y="1105" 
d="M108 505v-80c14 47 70 90 142 90c124 0 175 -80 175 -227v-100c0 -143 -63 -222 -174 -222c-88 0 -132 59 -144 102v-308h-42v745h43zM108 321v-158c0 -69 49 -159 141 -159c94 0 133 66 133 191v87c0 126 -42 195 -133 195c-80 0 -141 -51 -141 -156zM828 -26l-59 233
h-220l-61 -233h-48l197 721h44l196 -721h-49zM621 479l-61 -233h199l-58 233c-16 65 -26 95 -42 169c-14 -74 -21 -104 -38 -169z" />
    <glyph glyph-name="uni3381" unicode="&#x3381;" vert-adv-y="1105" 
d="M828 -26l-59 233h-220l-61 -233h-48l197 721h44l196 -721h-49zM408 351v-377h-40v365c0 68 -24 136 -122 136c-93 0 -140 -90 -140 -130v-371h-40v531h40v-87c16 48 68 97 149 97c78 0 153 -44 153 -164zM621 479l-61 -233h199l-58 233c-16 65 -26 95 -42 169
c-14 -74 -21 -104 -38 -169z" />
    <glyph glyph-name="uni3382" unicode="&#x3382;" vert-adv-y="1105" 
d="M831 -26l-59 233h-220l-61 -233h-48l197 721h44l196 -721h-49zM410 -26h-37v81c-14 -37 -56 -89 -123 -89c-85 0 -119 47 -139 83v-289h-38v745h38v-347c0 -79 49 -155 138 -155c79 0 123 74 123 192v310h38v-531zM624 479l-61 -233h199l-58 233c-16 65 -26 95 -42 169
c-14 -74 -21 -104 -38 -169z" />
    <glyph glyph-name="uni3383" unicode="&#x3383;" vert-adv-y="1105" 
d="M832 -26l-59 233h-220l-61 -233h-48l197 721h44l196 -721h-49zM51 505h32v-71c3 33 21 81 78 81c28 0 61 -6 77 -89c18 62 46 89 92 89c57 0 90 -36 90 -128v-413h-39v388c0 68 -4 122 -58 122c-49 0 -68 -58 -68 -120v-390h-39v394c0 71 -16 116 -61 116
c-46 0 -65 -60 -65 -126v-384h-39v531zM625 479l-61 -233h199l-58 233c-16 65 -26 95 -42 169c-14 -74 -21 -104 -38 -169z" />
    <glyph glyph-name="uni3384" unicode="&#x3384;" vert-adv-y="1105" 
d="M831 -26l-59 233h-220l-61 -233h-48l197 721h44l196 -721h-49zM409 505l-178 -214l187 -317h-57l-160 285l-76 -93v-192h-39v721h39v-469l225 279h59zM624 479l-61 -233h199l-58 233c-16 65 -26 95 -42 169c-14 -74 -21 -104 -38 -169z" />
    <glyph glyph-name="uni33BA" unicode="&#x33ba;" vert-adv-y="1105" 
d="M105 505v-77c17 45 53 87 119 87c98 0 144 -63 144 -217v-110c0 -143 -41 -222 -144 -222c-69 0 -113 45 -120 85v-291h-41v745h42zM476 -26l-96 721h42l84 -682l97 682h53l96 -682l90 682h40l-103 -721h-56l-93 674l-96 -674h-58zM105 293v-122c0 -69 24 -163 114 -163
c83 0 105 61 105 187v87c0 140 -34 191 -105 191c-73 0 -114 -75 -114 -180z" />
    <glyph glyph-name="uni33BB" unicode="&#x33bb;" vert-adv-y="1105" 
d="M476 -26l-96 721h42l84 -682l97 682h53l96 -682l90 682h40l-103 -721h-56l-93 674l-96 -674h-58zM349 343v-369h-40v353c0 78 -9 150 -91 150c-84 0 -112 -112 -112 -151v-352h-40v531h46v-69c9 29 39 79 114 79c71 0 123 -46 123 -172z" />
    <glyph glyph-name="uni33BC" unicode="&#x33bc;" vert-adv-y="1105" 
d="M114 -240h-39v745h38v-375c0 -61 23 -123 90 -123c76 0 97 95 97 154v344h38v-531h-41v71c-7 -43 -46 -79 -93 -79c-38 0 -73 13 -90 62v-268zM476 -26l-96 721h42l84 -682l97 682h53l96 -682l90 682h40l-103 -721h-56l-93 674l-96 -674h-58z" />
    <glyph glyph-name="uni33BD" unicode="&#x33bd;" vert-adv-y="1105" 
d="M504 -26l-86 721h40l76 -682l87 682h53l86 -682l82 682h38l-93 -721h-56l-83 674l-86 -674h-58zM51 505h32v-71c3 33 22 81 79 81c28 0 63 -12 72 -89c12 58 42 89 88 89c57 0 90 -36 90 -128v-413h-39v382c0 68 -2 122 -56 122c-49 0 -66 -58 -66 -120v-384h-39v394
c0 71 -14 110 -59 110c-52 0 -63 -60 -63 -126v-378h-39v531z" />
    <glyph glyph-name="uni33BE" unicode="&#x33be;" vert-adv-y="1105" 
d="M504 -26l-86 721h40l76 -682l87 682h53l86 -682l82 682h38l-93 -721h-56l-83 674l-86 -674h-58zM390 505l-178 -214l194 -317h-57l-167 285l-76 -93v-192h-39v721h39v-469l225 279h59z" />
    <glyph glyph-name="uni33BF" unicode="&#x33bf;" vert-adv-y="1105" 
d="M504 -26l-86 721h40l76 -682l87 682h53l86 -682l82 682h38l-93 -721h-56l-83 674l-86 -674h-58zM183 94l-70 359c-12 64 -16 99 -25 179v-658h-46v721h66l106 -558l116 558h53v-721h-41v632c-6 -54 -13 -113 -22 -152l-79 -360h-58z" />
    <glyph glyph-name="uni3390" unicode="&#x3390;" vert-adv-y="1105" 
d="M413 695h46v-721h-46v357h-260v-357h-46v721h46v-320h260v320zM840 505v-31l-266 -462h279v-38h-327v34l265 460h-245v37h294z" />
    <glyph glyph-name="uni3391" unicode="&#x3391;" vert-adv-y="1105" 
d="M571 695h48v-721h-48v353h-166v-353h-48v721h48v-320h166v320zM882 505v-31l-181 -462h187v-38h-232v34l180 460h-162v37h208zM304 505l-128 -213l140 -318h-51l-114 278l-47 -76v-202h-46v721h46v-449l149 259h51z" />
    <glyph glyph-name="uni3392" unicode="&#x3392;" vert-adv-y="1105" 
d="M591 695h48v-721h-48v353h-141v-353h-48v721h48v-320h141v320zM891 505v-31l-170 -462h176v-38h-221v34l169 460h-151v37h197zM166 94l-55 359c-10 64 -11 99 -20 179v-658h-45v721h66l86 -558l94 558h55v-721h-41v632c-5 -66 -11 -113 -18 -152l-62 -360h-60z" />
    <glyph glyph-name="uni3393" unicode="&#x3393;" vert-adv-y="1105" 
d="M330 351v-334c-20 -30 -68 -54 -114 -54c-134 0 -175 130 -175 336v83c0 198 50 324 170 324c63 0 101 -29 120 -54l-34 -36c-23 30 -47 40 -83 40c-87 0 -122 -105 -122 -260v-107c0 -225 57 -278 125 -278c29 0 60 13 67 25v271h-80v44h126zM586 695h48v-721h-48v353
h-150v-353h-48v721h48v-320h150v320zM889 505v-31l-170 -462h176v-38h-221v34l169 460h-151v37h197z" />
    <glyph glyph-name="uni3394" unicode="&#x3394;" vert-adv-y="1105" 
d="M198 -26h-46v680h-122v41h291v-41h-123v-680zM570 695h48v-721h-48v353h-159v-353h-48v721h48v-320h159v320zM871 505v-31l-170 -462h176v-38h-221v34l169 460h-151v37h197z" />
    <glyph glyph-name="uni2126" unicode="&#x2126;" vert-adv-y="1105" 
d="M455 666c-156 0 -245 -103 -245 -278v-94c0 -131 53 -227 158 -280v-40h-268v37h213c-100 61 -147 160 -147 288v91c0 184 104 316 289 316s289 -132 289 -316v-91c0 -128 -47 -227 -147 -288h213v-37h-268v40c105 53 158 149 158 280v94c0 175 -89 278 -245 278z" />
    <glyph glyph-name="uni33C0" unicode="&#x33c0;" vert-adv-y="1105" 
d="M627 666c-118 0 -145 -104 -145 -279v-77c0 -119 20 -247 106 -289v-47h-251l-168 286l-75 -94v-192h-39v721h39v-469l213 279h56l-164 -210l169 -284h169c-98 59 -100 213 -100 298v81c0 207 47 316 190 316s190 -109 190 -316v-81c0 -85 -2 -239 -100 -298h172v-37
h-223v47c86 42 106 170 106 289v77c0 175 -27 279 -145 279z" />
    <glyph glyph-name="uni33C1" unicode="&#x33c1;" vert-adv-y="1105" 
d="M183 94l-70 359c-12 64 -16 99 -25 179v-658h-46v721h66l106 -558l116 558h53v-684h184c-98 59 -100 213 -100 298v81c0 207 47 316 190 316s190 -109 190 -316v-81c0 -85 -2 -239 -100 -298h172v-37h-223v47c86 42 106 170 106 289v77c0 175 -27 279 -145 279
s-145 -104 -145 -279v-77c0 -119 20 -247 106 -289v-47h-276v632c-6 -54 -13 -113 -22 -152l-79 -360h-58z" />
    <glyph glyph-name="uni338A" unicode="&#x338a;" vert-adv-y="1105" 
d="M535 695h329v-39h-287v-311h266v-39h-266v-332h-42v721zM141 505v-80c14 47 74 90 146 90c124 0 179 -77 179 -227v-100c0 -143 -67 -222 -178 -222c-88 0 -136 59 -148 102v-308h-42v745h43zM141 321v-158c0 -69 53 -159 145 -159c94 0 137 66 137 191v87
c0 126 -46 195 -137 195c-80 0 -145 -51 -145 -156z" />
    <glyph glyph-name="uni338B" unicode="&#x338b;" vert-adv-y="1105" 
d="M535 695h329v-39h-287v-311h266v-39h-266v-332h-42v721zM428 351v-377h-40v365c0 68 -22 136 -120 136c-93 0 -138 -90 -138 -130v-371h-40v531h40v-87c16 48 66 97 147 97c78 0 151 -44 151 -164z" />
    <glyph glyph-name="uni338C" unicode="&#x338c;" vert-adv-y="1105" 
d="M535 695h329v-39h-287v-311h266v-39h-266v-332h-42v721zM432 -26h-37v81c-14 -37 -58 -89 -125 -89c-85 0 -117 47 -137 83v-289h-38v745h38v-347c0 -79 49 -155 138 -155c79 0 123 74 123 192v310h38v-531z" />
    <glyph glyph-name="uni33D6" unicode="&#x33d6;" vert-adv-y="1105" 
d="M612 4c88 0 92 116 92 216v41c0 100 -4 216 -92 216s-92 -116 -92 -216v-41c0 -100 4 -216 92 -216zM811 695h46v-721h-46v721zM52 505h32v-71c3 33 22 81 79 81c28 0 63 -12 72 -89c12 58 42 89 88 89c57 0 90 -36 90 -128v-413h-39v382c0 68 -2 122 -56 122
c-49 0 -66 -58 -66 -120v-384h-39v394c0 71 -14 110 -59 110c-52 0 -63 -60 -63 -126v-378h-39v531zM612 -34c-109 0 -132 96 -132 250v49c0 162 31 250 132 250s132 -88 132 -250v-49c0 -154 -23 -250 -132 -250z" />
    <glyph glyph-name="uni33C5" unicode="&#x33c5;" vert-adv-y="1105" 
d="M250 515c81 0 118 -30 143 -50l-24 -32c-38 30 -68 44 -116 44c-110 0 -137 -88 -137 -200v-67c0 -118 30 -205 142 -205c31 0 84 11 126 55l25 -31c-33 -34 -82 -63 -152 -63c-125 0 -183 88 -183 245v63c0 157 59 241 176 241zM821 -26h-38v90
c-24 -69 -86 -98 -150 -98c-122 0 -182 82 -182 227v96c0 145 61 226 182 226c87 0 132 -51 149 -99v279h39v-721zM490 279v-76c0 -124 44 -196 142 -196c89 0 150 55 150 159v156c0 70 -51 151 -150 151c-105 0 -142 -71 -142 -194z" />
    <glyph glyph-name="uni33AD" unicode="&#x33ad;" vert-adv-y="1105" 
d="M327 433l-23 31c14 15 54 51 103 51c74 0 113 -45 113 -167v-374h-43v74c-9 -55 -50 -82 -95 -82c-77 0 -101 64 -101 142v21c0 84 27 156 135 156h59v59c0 104 -26 129 -69 129c-28 0 -52 -13 -79 -40zM475 156v88h-62c-64 0 -83 -50 -83 -113v-23
c0 -65 16 -101 54 -101c64 0 91 75 91 149zM278 506l-10 -43c-11 4 -19 5 -34 5c-84 0 -109 -107 -109 -180v-314h-48v531h48v-98c12 63 55 108 108 108c19 0 32 -2 45 -9zM820 -26h-39v64c-9 -24 -33 -72 -91 -72c-76 0 -113 72 -113 217v106c0 145 24 226 119 226
c42 0 74 -28 84 -63v275h40v-753zM617 279v-76c0 -138 20 -199 77 -199c53 0 86 55 86 178v93c0 109 -5 201 -84 201c-61 0 -79 -56 -79 -197z" />
    <glyph glyph-name="uni33AE" unicode="&#x33ae;" vert-adv-y="1105" 
d="M199 435l-20 28c7 16 39 52 75 52c46 0 73 -22 73 -144v-398h-37v45c-9 -52 -38 -52 -53 -52c-48 0 -61 60 -61 157v8c0 84 21 151 92 151h21v103c0 63 -10 88 -35 88c-22 0 -35 -10 -55 -38zM289 155v86h-19c-44 0 -51 -51 -51 -114v-13c0 -49 -1 -103 30 -103
c36 0 40 70 40 144zM179 503l-8 -43c-9 5 -16 8 -33 8c-58 0 -63 -104 -63 -178v-316h-36v531h36v-75c11 64 39 85 71 85c13 0 23 -3 33 -12zM518 -27h-36v38c-9 -43 -41 -45 -51 -45c-40 0 -63 30 -63 205v123c0 167 19 221 68 221c18 0 38 -8 45 -38v250h37v-754zM481 138
v175c0 70 -6 156 -36 156c-22 0 -33 -19 -33 -186v-92c0 -136 4 -179 28 -179c42 0 41 81 41 126zM789 7c39 0 53 31 53 93v12c-1 53 -9 76 -42 106c-47 43 -84 55 -84 146v15c0 89 42 136 100 136c32 0 56 -12 73 -33l-22 -33c-14 15 -28 22 -52 22c-36 0 -55 -36 -55 -93
v-14c0 -46 13 -60 49 -91c48 -42 77 -72 77 -158v-12c0 -107 -48 -137 -95 -137c-50 0 -73 21 -91 41l24 32c26 -27 42 -32 65 -32zM713 759h35l-183 -884h-34z" />
    <glyph glyph-name="uni33AF" unicode="&#x33af;" vert-adv-y="1105" 
d="M199 435l-20 28c7 16 39 52 75 52c46 0 73 -22 73 -144v-398h-37v45c-9 -52 -38 -52 -53 -52c-48 0 -61 60 -61 157v8c0 84 21 151 92 151h21v103c0 63 -10 88 -35 88c-22 0 -35 -10 -55 -38zM289 155v86h-19c-44 0 -51 -51 -51 -114v-13c0 -49 -1 -103 30 -103
c36 0 40 70 40 144zM179 503l-8 -43c-9 5 -16 8 -33 8c-58 0 -63 -104 -63 -178v-316h-36v531h36v-75c11 64 39 85 71 85c13 0 23 -3 33 -12zM518 -27h-36v38c-9 -43 -41 -45 -51 -45c-40 0 -63 30 -63 205v123c0 167 19 221 68 221c18 0 38 -8 45 -38v250h37v-754zM481 138
v175c0 70 -6 156 -36 156c-22 0 -33 -19 -33 -186v-92c0 -136 4 -179 28 -179c42 0 41 81 41 126zM789 7c39 0 53 31 53 93v12c-1 53 -9 76 -42 106c-47 43 -84 55 -84 146v15c0 89 42 136 100 136c32 0 56 -12 73 -33l-22 -33c-14 15 -28 22 -52 22c-36 0 -55 -36 -55 -93
v-14c0 -46 13 -60 49 -91c48 -42 77 -72 77 -158v-12c0 -107 -48 -137 -95 -137c-50 0 -73 21 -91 41l24 32c26 -27 42 -32 65 -32zM713 759h35l-183 -884h-34zM763 589l82 94c17 20 22 29 22 47v4c0 18 -12 31 -36 31c-18 0 -33 -6 -48 -22l-17 17c14 16 33 30 66 30
c40 0 63 -25 63 -54v-6c0 -23 -11 -40 -28 -60l-64 -74h99v-24h-139v17z" />
    <glyph glyph-name="uni33DB" unicode="&#x33db;" vert-adv-y="1105" 
d="M322 7c89 0 123 48 123 101v10c0 62 -14 80 -130 112c-106 29 -145 56 -145 137v14c0 75 53 134 157 134c62 0 106 -11 149 -43l-21 -35c-37 28 -72 37 -127 37c-81 0 -116 -39 -116 -94v-11c0 -52 22 -74 120 -101c127 -35 155 -62 155 -147v-15
c0 -83 -56 -140 -163 -140c-63 0 -121 18 -169 50l23 39c44 -33 94 -48 144 -48zM801 507l-10 -44c-9 3 -25 5 -40 5c-84 0 -119 -107 -119 -180v-314h-48v531h48v-98c12 63 65 108 118 108c22 0 37 -2 51 -8z" />
    <glyph glyph-name="uni33A9" unicode="&#x33a9;" vert-adv-y="1105" 
d="M122 -26v721h160c143 0 198 -88 198 -206v-21c0 -117 -61 -205 -198 -205h-117v-289h-43zM273 653h-108v-348h96c144 0 174 72 174 165v18c0 88 -29 165 -162 165zM554 430l-22 32c42 32 87 53 148 53c94 0 135 -57 135 -163v-378h-40v85c-10 -43 -65 -93 -129 -93
c-93 0 -135 64 -135 148v22c0 84 42 145 159 145h104v61c0 94 -25 134 -98 134c-44 0 -77 -12 -122 -46zM774 136v106h-103c-102 0 -119 -46 -119 -109v-16c0 -79 37 -112 97 -112c75 0 125 57 125 131z" />
    <glyph glyph-name="uni33AA" unicode="&#x33aa;" vert-adv-y="1105" 
d="M347 -26v721h108c126 0 160 -78 160 -196v-41c0 -117 -40 -195 -160 -195h-63v-289h-45zM446 653h-54v-348h42c126 0 135 72 135 165v18c0 88 -6 165 -123 165zM304 505l-128 -213l140 -318h-51l-114 278l-47 -76v-202h-46v721h46v-449l149 259h51zM672 434l-23 30
c14 15 51 51 100 51c74 0 106 -45 106 -167v-374h-43v74c-9 -55 -44 -82 -89 -82c-77 0 -97 64 -97 142v21c0 84 27 156 135 156h49v59c0 104 -19 130 -62 130c-28 0 -49 -13 -76 -40zM810 156v88h-52c-64 0 -83 -44 -83 -113v-23c0 -65 13 -102 51 -102c64 0 84 76 84 150z
" />
    <glyph glyph-name="uni33AB" unicode="&#x33ab;" vert-adv-y="1105" 
d="M405 -26v721h89c104 0 145 -46 145 -188v-53c0 -193 -99 -191 -153 -191h-34v-289h-47zM490 653h-38v-348h32c84 0 106 34 106 157v34c0 104 -7 157 -100 157zM689 434l-23 30c14 15 51 51 100 51c74 0 106 -45 106 -167v-374h-43v74c-9 -55 -44 -82 -89 -82
c-77 0 -97 64 -97 142v21c0 84 27 156 135 156h49v59c0 104 -19 130 -62 130c-28 0 -49 -13 -76 -40zM827 156v88h-52c-64 0 -83 -44 -83 -113v-23c0 -65 13 -102 51 -102c64 0 84 76 84 150zM166 94l-55 359c-10 64 -11 99 -20 179v-658h-45v721h66l86 -558l94 558h55v-721
h-41v632c-5 -66 -11 -113 -18 -152l-62 -360h-60z" />
    <glyph glyph-name="uni33AC" unicode="&#x33ac;" vert-adv-y="1105" 
d="M399 -26v721h95c104 0 145 -46 145 -188v-53c0 -193 -99 -191 -153 -191h-40v-289h-47zM490 653h-44v-348h38c84 0 106 34 106 157v34c0 104 -7 157 -100 157zM689 434l-23 30c14 15 51 51 100 51c74 0 106 -45 106 -167v-374h-43v74c-9 -55 -44 -82 -89 -82
c-77 0 -97 64 -97 142v21c0 84 27 156 135 156h49v59c0 104 -19 130 -62 130c-28 0 -49 -13 -76 -40zM827 156v88h-52c-64 0 -83 -44 -83 -113v-23c0 -65 13 -102 51 -102c64 0 84 76 84 150zM330 351v-334c-20 -30 -68 -54 -114 -54c-134 0 -175 130 -175 336v83
c0 198 50 324 170 324c63 0 101 -29 120 -54l-34 -36c-23 30 -47 40 -83 40c-87 0 -122 -105 -122 -260v-107c0 -225 57 -278 125 -278c29 0 60 13 67 25v271h-80v44h126z" />
    <glyph glyph-name="uni33DD" unicode="&#x33dd;" vert-adv-y="1105" 
d="M109 -26l-86 721h40l76 -682l87 682h53l86 -682l82 682h38l-93 -721h-56l-83 674l-86 -674h-58zM565 696v-271c14 47 67 90 139 90c124 0 171 -80 171 -227v-100c0 -140 -59 -222 -170 -222c-88 0 -129 59 -141 102v-94h-42v722h43zM565 321v-158c0 -69 46 -159 138 -159
c94 0 129 66 129 191v87c0 126 -38 195 -129 195c-80 0 -138 -51 -138 -156z" />
    <glyph glyph-name="uni33D0" unicode="&#x33d0;" vert-adv-y="1105" 
d="M174 695h39v-721h-39v721zM326 505h38v-73c15 42 48 83 104 83c28 0 73 -6 94 -80c17 45 50 80 108 80c51 0 106 -39 106 -135v-406h-42v388c0 71 -19 111 -78 111c-51 0 -84 -53 -84 -114v-385h-42v393c0 72 -26 106 -71 106c-52 0 -91 -49 -91 -119v-380h-42v531z" />
    <glyph glyph-name="uni33D3" unicode="&#x33d3;" vert-adv-y="1105" 
d="M712 505l-157 -257l168 -274h-52l-141 246l-147 -246h-49l169 274l-156 257h46l137 -230l132 230h50zM225 695h39v-721h-39v721z" />
    <glyph glyph-name="uni33C3" unicode="&#x33c3;" vert-adv-y="1105" 
d="M74 -26v721h123c157 0 196 -54 196 -172v-21c0 -63 -24 -116 -91 -147c90 -16 120 -66 120 -166v-25c0 -121 -53 -190 -187 -190h-161zM117 330v-314h118c121 0 142 63 142 148v22c0 104 -40 144 -163 144h-97zM210 654h-93v-283h96c77 0 136 44 136 134v18
c0 85 -23 131 -139 131zM853 -240h-38v304c-24 -69 -86 -98 -150 -98c-122 0 -182 82 -182 227v96c0 145 61 226 182 226c87 0 132 -51 149 -99v89h39v-745zM522 279v-76c0 -124 44 -196 142 -196c89 0 150 55 150 159v156c0 70 -51 151 -150 151c-105 0 -142 -71 -142 -194
z" />
    <glyph glyph-name="uni33C9" unicode="&#x33c9;" vert-adv-y="1105" 
d="M667 24l151 481h42l-244 -751l-37 14l65 200l-157 537h44zM442 348v-336c-37 -36 -108 -49 -155 -49c-155 0 -208 128 -208 334v98c0 198 70 311 205 311c66 0 116 -18 152 -52l-32 -37c-29 27 -64 43 -120 43c-109 0 -157 -110 -157 -254v-114c0 -233 83 -284 161 -284
c47 0 81 10 111 28v269h-101v43h144z" />
    <glyph glyph-name="uni33DC" unicode="&#x33dc;" vert-adv-y="1105" 
d="M686 24l126 481h41l-149 -531h-40l-155 531h40zM273 5c124 0 163 67 163 141v26c0 81 -17 103 -185 155c-122 38 -172 85 -172 180v25c0 120 89 174 197 174c83 0 133 -24 178 -57l-21 -36c-46 30 -79 51 -157 51c-85 0 -153 -40 -153 -133v-23c0 -72 33 -103 147 -141
c167 -56 210 -84 210 -194v-28c0 -94 -53 -182 -206 -182c-79 0 -156 28 -210 75l22 37c70 -53 131 -70 187 -70z" />
    <glyph glyph-name="uni33C6" unicode="&#x33c6;" vert-adv-y="1105" 
d="M360 759h36l-192 -884h-35zM875 505v-554c0 -102 -5 -199 -118 -199c-35 0 -72 16 -94 38l23 32c23 -24 49 -31 74 -31c54 0 77 35 77 158v105c-13 -46 -45 -78 -98 -78c-54 0 -99 30 -99 209v115c0 160 45 215 111 215c40 0 74 -18 86 -71v61h38zM837 131v207
c0 73 -18 139 -85 139c-41 0 -70 -40 -70 -181v-103c0 -148 17 -180 66 -180c56 0 89 77 89 118zM144 771c33 0 65 -8 99 -48l-28 -26c-24 27 -44 33 -72 33c-65 0 -84 -60 -84 -169v-29c0 -159 40 -184 86 -184c32 0 62 17 78 46l29 -24c-22 -34 -58 -63 -110 -63
c-64 0 -127 31 -127 226v30c0 157 54 208 129 208zM640 505l-111 -212l113 -319h-45l-94 280l-41 -75v-205h-43v721h43v-445l135 255h43z" />
    <glyph glyph-name="AE" unicode="&#xc6;" horiz-adv-x="971" vert-adv-y="1105" 
d="M481 695h414v-41h-351v-290h330v-40h-330v-309h358v-41h-402v233h-280l-148 -233h-52zM395 482l-150 -236h255v416c-31 -67 -77 -136 -105 -180z" />
    <glyph glyph-name="Eth" unicode="&#xd0;" horiz-adv-x="663" vert-adv-y="1105" 
d="M15 328v42h88v325h213c185 0 287 -110 287 -309v-103c0 -199 -115 -309 -287 -309h-213v354h-88zM147 653v-283h208v-42h-208v-312h174c130 0 237 89 237 267v98c0 182 -87 272 -238 272h-173z" />
    <glyph glyph-name="ordfeminine" unicode="&#xaa;" horiz-adv-x="432" vert-adv-y="1105" 
d="M192 276c-79 0 -138 49 -138 128v13c0 70 52 119 152 119h127v45c0 67 -39 104 -111 104c-48 0 -86 -15 -127 -44c-7 12 -15 22 -22 34c41 29 87 52 151 52c96 0 153 -52 153 -139v-304h-44v54c-19 -35 -76 -62 -141 -62zM333 409v89h-126c-76 0 -108 -32 -108 -82v-11
c0 -64 56 -89 101 -89c59 0 133 37 133 93z" />
    <glyph glyph-name="Hbar" unicode="&#x126;" horiz-adv-x="685" vert-adv-y="1105" 
d="M21 502v40h77v153h44v-153h403v153h44v-153h77v-40h-77v-528h-44v337h-403v-337h-44v528h-77zM142 352h403v150h-403v-150z" />
    <glyph glyph-name="IJ" unicode="&#x132;" horiz-adv-x="651" vert-adv-y="1105" 
d="M88 695h44v-721h-44v721zM569 695v-545c0 -134 -76 -187 -177 -187c-61 0 -117 17 -161 51l22 35c43 -33 89 -46 137 -46c92 0 135 50 135 148v544h44z" />
    <glyph glyph-name="Ldot" unicode="&#x13f;" horiz-adv-x="530" vert-adv-y="1105" 
d="M375 321v75h75v-75h-75zM88 695h44v-680h374v-41h-418v721z" />
    <glyph glyph-name="Lslash" unicode="&#x141;" horiz-adv-x="569" vert-adv-y="1105" 
d="M127 695h44v-360l214 121l20 -36l-234 -133v-272h374v-41h-418v288l-93 -52l-20 36l113 64v385z" />
    <glyph glyph-name="Oslash" unicode="&#xd8;" horiz-adv-x="654" vert-adv-y="1105" 
d="M30 -5l66 83c-35 56 -52 128 -52 211v91c0 190 93 326 277 326c90 0 159 -33 205 -89l66 83l32 -26l-74 -92c32 -55 48 -124 48 -202v-91c0 -190 -93 -326 -277 -326c-87 0 -153 30 -199 81l-60 -75zM89 290c0 -71 13 -130 37 -175l372 467c-40 54 -101 83 -177 83
c-143 0 -232 -100 -232 -286v-89zM553 290v89c0 66 -12 121 -33 165l-370 -465c40 -49 98 -75 171 -75c143 0 232 100 232 286z" />
    <glyph glyph-name="OE" unicode="&#x152;" horiz-adv-x="952" vert-adv-y="1105" 
d="M375 695h501v-41h-351v-290h330v-40h-330v-309h358v-41h-508c-219 0 -315 120 -315 321v79c0 195 95 321 315 321zM105 302c0 -182 77 -287 266 -287h110v639h-104c-193 0 -272 -105 -272 -287v-65z" />
    <glyph glyph-name="ordmasculine" unicode="&#xba;" horiz-adv-x="450" vert-adv-y="1105" 
d="M225 317c77 0 135 53 135 162v47c0 107 -47 162 -135 162s-135 -55 -135 -162v-47c0 -109 58 -162 135 -162zM225 277c-114 0 -180 74 -180 199v53c0 127 66 199 180 199s180 -72 180 -199v-53c0 -125 -66 -199 -180 -199z" />
    <glyph glyph-name="Thorn" unicode="&#xde;" horiz-adv-x="575" vert-adv-y="1105" 
d="M88 -26v721h44v-140h186c151 0 223 -82 223 -205v-21c0 -120 -86 -201 -223 -201h-186v-154h-44zM312 515h-180v-347h169c144 0 195 70 195 163v18c0 88 -42 166 -184 166z" />
    <glyph glyph-name="Tbar" unicode="&#x166;" horiz-adv-x="568" vert-adv-y="1105" 
d="M306 -26h-44v347h-160v43h160v290h-240v41h524v-41h-240v-290h160v-43h-160v-347z" />
    <glyph glyph-name="Eng" unicode="&#x14a;" horiz-adv-x="669" vert-adv-y="1105" 
d="M88 695h60l359 -602c8 -13 23 -44 31 -61v663h43v-801c0 -118 -52 -143 -128 -143c-23 0 -56 5 -76 12l7 38c26 -8 47 -11 77 -11c63 0 77 45 77 111v58l-376 626c-11 19 -23 44 -31 61v-672h-43v721z" />
    <glyph glyph-name="uni3260" unicode="&#x3260;" vert-adv-y="1105" 
d="M229 447v38h415v-398h-42v360h-373zM884 306c0 -247 -182 -430 -429 -430s-429 183 -429 430s182 430 429 430s429 -183 429 -430zM848 306c0 226 -167 394 -393 394s-393 -168 -393 -394s167 -394 393 -394s393 168 393 394z" />
    <glyph glyph-name="uni3261" unicode="&#x3261;" vert-adv-y="1105" 
d="M317 515v-355h367v-38h-409v393h42zM884 306c0 -247 -182 -430 -429 -430s-429 183 -429 430s182 430 429 430s429 -183 429 -430zM848 306c0 226 -167 394 -393 394s-393 -168 -393 -394s167 -394 393 -394s393 168 393 394z" />
    <glyph glyph-name="uni3262" unicode="&#x3262;" vert-adv-y="1105" 
d="M672 105h-412v404h402v-38h-360v-328h370v-38zM884 306c0 -247 -182 -430 -429 -430s-429 183 -429 430s182 430 429 430s429 -183 429 -430zM848 306c0 226 -167 394 -393 394s-393 -168 -393 -394s167 -394 393 -394s393 168 393 394z" />
    <glyph glyph-name="uni3263" unicode="&#x3263;" vert-adv-y="1105" 
d="M674 88h-412v235h351v156h-356v37h397v-230h-351v-161h371v-37zM884 306c0 -247 -182 -430 -429 -430s-429 183 -429 430s182 430 429 430s429 -183 429 -430zM848 306c0 226 -167 394 -393 394s-393 -168 -393 -394s167 -394 393 -394s393 168 393 394z" />
    <glyph glyph-name="uni3264" unicode="&#x3264;" vert-adv-y="1105" 
d="M251 502h407v-396h-407v396zM292 465v-322h325v322h-325zM884 306c0 -247 -182 -430 -429 -430s-429 183 -429 430s182 430 429 430s429 -183 429 -430zM848 306c0 226 -167 394 -393 394s-393 -168 -393 -394s167 -394 393 -394s393 168 393 394z" />
    <glyph glyph-name="uni3265" unicode="&#x3265;" vert-adv-y="1105" 
d="M616 521h41v-417h-403v417h41v-163h321v163zM295 141h321v180h-321v-180zM884 306c0 -247 -182 -430 -429 -430s-429 183 -429 430s182 430 429 430s429 -183 429 -430zM848 306c0 226 -167 394 -393 394s-393 -168 -393 -394s167 -394 393 -394s393 168 393 394z" />
    <glyph glyph-name="uni3266" unicode="&#x3266;" vert-adv-y="1105" 
d="M474 528v-76c0 -92 9 -136 101 -215c45 -39 58 -50 119 -99l-25 -31c-69 56 -83 68 -119 99c-60 52 -82 81 -94 108h-2c-13 -27 -35 -57 -96 -108c-36 -30 -52 -43 -123 -99l-26 31c63 49 79 62 124 100c93 78 100 122 100 214v76h41zM884 306
c0 -247 -182 -430 -429 -430s-429 183 -429 430s182 430 429 430s429 -183 429 -430zM848 306c0 226 -167 394 -393 394s-393 -168 -393 -394s167 -394 393 -394s393 168 393 394z" />
    <glyph glyph-name="uni3267" unicode="&#x3267;" vert-adv-y="1105" 
d="M455 87c-148 0 -217 119 -217 192v55c0 74 69 190 217 190s217 -116 217 -190v-55c0 -73 -69 -192 -217 -192zM455 485c-131 0 -176 -92 -176 -159v-40c0 -67 47 -161 176 -161s176 94 176 161v40c0 67 -45 159 -176 159zM884 306c0 -247 -182 -430 -429 -430
s-429 183 -429 430s182 430 429 430s429 -183 429 -430zM848 306c0 226 -167 394 -393 394s-393 -168 -393 -394s167 -394 393 -394s393 168 393 394z" />
    <glyph glyph-name="uni3268" unicode="&#x3268;" vert-adv-y="1105" 
d="M457 295h-2c-12 -26 -40 -50 -84 -84c-38 -29 -77 -58 -145 -106l-25 32c65 45 103 73 147 106c75 56 86 88 86 164v56h-219v37h479v-37h-218v-51c0 -76 12 -112 85 -170c43 -34 78 -60 143 -105l-21 -32c-68 48 -107 77 -145 106c-44 34 -69 58 -81 84zM884 306
c0 -247 -182 -430 -429 -430s-429 183 -429 430s182 430 429 430s429 -183 429 -430zM848 306c0 226 -167 394 -393 394s-393 -168 -393 -394s167 -394 393 -394s393 168 393 394z" />
    <glyph glyph-name="uni3269" unicode="&#x3269;" vert-adv-y="1105" 
d="M884 306c0 -247 -182 -430 -429 -430s-429 183 -429 430s182 430 429 430s429 -183 429 -430zM848 306c0 226 -167 394 -393 394s-393 -168 -393 -394s167 -394 393 -394s393 168 393 394zM435 563h41v-96h218v-37h-218v-33c0 -76 13 -112 86 -170
c43 -34 71 -55 136 -100l-22 -32c-68 48 -100 72 -138 101c-44 34 -69 59 -81 85h-2c-12 -26 -40 -51 -84 -85c-38 -29 -69 -52 -136 -100l-25 32c65 45 94 67 138 100c75 56 87 88 87 164v38h-219v37h219v96z" />
    <glyph glyph-name="uni326A" unicode="&#x326a;" vert-adv-y="1105" 
d="M884 306c0 -247 -182 -430 -429 -430s-429 183 -429 430s182 430 429 430s429 -183 429 -430zM848 306c0 226 -167 394 -393 394s-393 -168 -393 -394s167 -394 393 -394s393 168 393 394zM241 470v38h423v-415h-42v180l-394 -10l-1 39l395 6v162h-381z" />
    <glyph glyph-name="uni326B" unicode="&#x326b;" vert-adv-y="1105" 
d="M884 306c0 -247 -182 -430 -429 -430s-429 183 -429 430s182 430 429 430s429 -183 429 -430zM848 306c0 226 -167 394 -393 394s-393 -168 -393 -394s167 -394 393 -394s393 168 393 394zM675 105h-423v401h419v-38h-377v-138h369v-40h-369v-147h381v-38z" />
    <glyph glyph-name="uni326C" unicode="&#x326c;" vert-adv-y="1105" 
d="M211 502h491v-37h-108v-327h117v-37h-509v37h116v327h-107v37zM360 465v-327h193v327h-193zM884 306c0 -247 -182 -430 -429 -430s-429 183 -429 430s182 430 429 430s429 -183 429 -430zM848 306c0 226 -167 394 -393 394s-393 -168 -393 -394s167 -394 393 -394
s393 168 393 394z" />
    <glyph glyph-name="uni326D" unicode="&#x326d;" vert-adv-y="1105" 
d="M455 79c-137 0 -203 64 -203 133v24c0 69 66 133 203 133s203 -64 203 -133v-24c0 -69 -66 -133 -203 -133zM455 333c-105 0 -162 -54 -162 -98v-22c0 -44 57 -98 162 -98s162 54 162 98v22c0 44 -57 98 -162 98zM477 559v-103h216v-37h-476v37h216v103h44zM884 306
c0 -247 -182 -430 -429 -430s-429 183 -429 430s182 430 429 430s429 -183 429 -430zM848 306c0 226 -167 394 -393 394s-393 -168 -393 -394s167 -394 393 -394s393 168 393 394z" />
    <glyph glyph-name="uni326E" unicode="&#x326e;" vert-adv-y="1105" 
d="M884 306c0 -247 -182 -430 -429 -430s-429 183 -429 430s182 430 429 430s429 -183 429 -430zM848 306c0 226 -167 394 -393 394s-393 -168 -393 -394s167 -394 393 -394s393 168 393 394zM716 361v-36h-91v-299h-40v546h40v-211h91zM472 519v-42
c0 -178 20 -183 -219 -330l-21 32c216 131 200 147 200 271v33h-198v36h238z" />
    <glyph glyph-name="uni326F" unicode="&#x326f;" vert-adv-y="1105" 
d="M533 231l4 -35c-64 -11 -140 -16 -216 -16h-74v344h40v-308h44c71 0 137 4 202 15zM884 306c0 -247 -182 -430 -429 -430s-429 183 -429 430s182 430 429 430s429 -183 429 -430zM848 306c0 226 -167 394 -393 394s-393 -168 -393 -394s167 -394 393 -394
s393 168 393 394zM716 368v-36h-91v-306h-40v546h40v-204h91z" />
    <glyph glyph-name="uni3270" unicode="&#x3270;" vert-adv-y="1105" 
d="M243 173v345h243v-36h-203v-273h50c76 0 136 5 201 15l7 -34c-64 -12 -142 -17 -218 -17h-80zM884 306c0 -247 -182 -430 -429 -430s-429 183 -429 430s182 430 429 430s429 -183 429 -430zM848 306c0 226 -167 394 -393 394s-393 -168 -393 -394s167 -394 393 -394
s393 168 393 394zM716 368v-36h-91v-306h-40v546h40v-204h91z" />
    <glyph glyph-name="uni3271" unicode="&#x3271;" vert-adv-y="1105" 
d="M319 163h-79v205h192v117h-196v39h238v-194h-192v-128h47c76 0 136 3 201 12l5 -37c-64 -10 -129 -14 -216 -14zM884 306c0 -247 -182 -430 -429 -430s-429 183 -429 430s182 430 429 430s429 -183 429 -430zM848 306c0 226 -167 394 -393 394s-393 -168 -393 -394
s167 -394 393 -394s393 168 393 394zM716 365v-36h-91v-303h-40v546h40v-207h91z" />
    <glyph glyph-name="uni3272" unicode="&#x3272;" vert-adv-y="1105" 
d="M485 175h-245v342h245v-342zM280 481v-270h165v270h-165zM884 306c0 -247 -182 -430 -429 -430s-429 183 -429 430s182 430 429 430s429 -183 429 -430zM848 306c0 226 -167 394 -393 394s-393 -168 -393 -394s167 -394 393 -394s393 168 393 394zM716 367v-36h-91v-305
h-40v546h40v-205h91z" />
    <glyph glyph-name="uni3273" unicode="&#x3273;" vert-adv-y="1105" 
d="M483 176h-245v350h40v-135h165v135h40v-350zM278 355v-143h165v143h-165zM884 306c0 -247 -182 -430 -429 -430s-429 183 -429 430s182 430 429 430s429 -183 429 -430zM848 306c0 226 -167 394 -393 394s-393 -168 -393 -394s167 -394 393 -394s393 168 393 394z
M716 368v-36h-91v-306h-40v546h40v-204h91z" />
    <glyph glyph-name="uni3274" unicode="&#x3274;" vert-adv-y="1105" 
d="M388 531v-111c0 -61 9 -96 46 -136c25 -27 43 -44 93 -90l-25 -29c-53 49 -59 55 -83 79c-28 28 -41 46 -49 65h-1c-7 -19 -21 -37 -49 -65c-24 -24 -36 -35 -85 -81l-27 27c51 47 72 68 97 95c37 40 43 69 43 130v116h40zM884 306c0 -247 -182 -430 -429 -430
s-429 183 -429 430s182 430 429 430s429 -183 429 -430zM848 306c0 226 -167 394 -393 394s-393 -168 -393 -394s167 -394 393 -394s393 168 393 394zM716 365v-36h-91v-303h-40v546h40v-207h91z" />
    <glyph glyph-name="uni3275" unicode="&#x3275;" vert-adv-y="1105" 
d="M495 375v-58c0 -102 -54 -157 -135 -157c-83 0 -136 55 -136 157v59c0 102 53 155 136 155c81 0 135 -55 135 -156zM455 314v62c0 86 -43 118 -95 118c-54 0 -96 -32 -96 -118v-62c0 -84 42 -117 96 -117c52 0 95 33 95 117zM884 306c0 -247 -182 -430 -429 -430
s-429 183 -429 430s182 430 429 430s429 -183 429 -430zM848 306c0 226 -167 394 -393 394s-393 -168 -393 -394s167 -394 393 -394s393 168 393 394zM716 366v-36h-91v-304h-40v546h40v-206h91z" />
    <glyph glyph-name="uni3276" unicode="&#x3276;" vert-adv-y="1105" 
d="M884 306c0 -247 -182 -430 -429 -430s-429 183 -429 430s182 430 429 430s429 -183 429 -430zM848 306c0 226 -167 394 -393 394s-393 -168 -393 -394s167 -394 393 -394s393 168 393 394zM512 482h-124v-62c0 -61 10 -96 47 -136c25 -27 42 -43 92 -89l-26 -29
c-52 49 -58 54 -82 78c-28 28 -41 46 -49 65h-1c-7 -19 -21 -37 -49 -65c-24 -24 -32 -32 -85 -81l-26 28c50 47 71 66 96 93c37 40 43 70 43 131v67h-123v36h287v-36zM716 364v-36h-91v-302h-40v546h40v-208h91z" />
    <glyph glyph-name="uni3277" unicode="&#x3277;" vert-adv-y="1105" 
d="M884 306c0 -247 -182 -430 -429 -430s-429 183 -429 430s182 430 429 430s429 -183 429 -430zM848 306c0 226 -167 394 -393 394s-393 -168 -393 -394s167 -394 393 -394s393 168 393 394zM515 449h-126v-29c0 -61 3 -94 44 -139c21 -23 47 -50 91 -93l-25 -27
c-47 47 -63 63 -80 81c-27 29 -41 47 -49 66h-1c-7 -19 -21 -35 -48 -64c-24 -25 -37 -39 -85 -85l-26 27c49 47 72 71 97 99c36 41 42 69 42 130v34h-131v36h131v80h40v-80h126v-36zM716 362v-36h-91v-300h-40v546h40v-210h91z" />
    <glyph glyph-name="uni3278" unicode="&#x3278;" vert-adv-y="1105" 
d="M884 306c0 -247 -182 -430 -429 -430s-429 183 -429 430s182 430 429 430s429 -183 429 -430zM848 306c0 226 -167 394 -393 394s-393 -168 -393 -394s167 -394 393 -394s393 168 393 394zM485 519v-42c0 -178 20 -183 -219 -330l-21 32c138 84 181 119 194 167l-209 -3
l-2 36l216 2c1 19 1 41 1 69v33h-200v36h240zM716 365v-36h-91v-303h-40v546h40v-207h91z" />
    <glyph glyph-name="uni3279" unicode="&#x3279;" vert-adv-y="1105" 
d="M884 306c0 -247 -182 -430 -429 -430s-429 183 -429 430s182 430 429 430s429 -183 429 -430zM848 306c0 226 -167 394 -393 394s-393 -168 -393 -394s167 -394 393 -394s393 168 393 394zM475 330h-196v-129h54c76 0 136 4 201 13l4 -34c-64 -12 -139 -15 -215 -15h-84
v360h247v-36h-207v-123h196v-36zM716 365v-36h-91v-303h-40v546h40v-207h91z" />
    <glyph glyph-name="uni327A" unicode="&#x327a;" vert-adv-y="1105" 
d="M884 306c0 -247 -182 -430 -429 -430s-429 183 -429 430s182 430 429 430s429 -183 429 -430zM848 306c0 226 -167 394 -393 394s-393 -168 -393 -394s167 -394 393 -394s393 168 393 394zM546 218l3 -35c-83 -7 -168 -8 -260 -8h-77v36h67v270h-62v36h312v-36h-63v-268
c26 1 52 2 80 5zM319 211c36 0 72 -1 107 0v270h-107v-270zM716 366v-36h-91v-304h-40v546h40v-206h91z" />
    <glyph glyph-name="uni327B" unicode="&#x327b;" vert-adv-y="1105" 
d="M210 484h139v82h40v-82h134v-36h-313v36zM368 151c-83 0 -129 56 -129 112v34c0 55 46 114 129 114c82 0 129 -59 129 -114v-34c0 -56 -47 -112 -129 -112zM368 375c-46 0 -89 -31 -89 -76v-39c0 -43 43 -73 89 -73c45 0 89 30 89 73v39c0 45 -44 76 -89 76zM884 306
c0 -247 -182 -430 -429 -430s-429 183 -429 430s182 430 429 430s429 -183 429 -430zM848 306c0 226 -167 394 -393 394s-393 -168 -393 -394s167 -394 393 -394s393 168 393 394zM716 349v-36h-91v-287h-40v546h40v-223h91z" />
    <glyph glyph-name="uni24D0" unicode="&#x24d0;" vert-adv-y="1105" 
d="M427 100c-77 0 -131 44 -131 116v18c0 66 51 110 142 110h118v40c0 60 -36 95 -98 95c-49 0 -82 -15 -123 -42l-24 37c40 26 84 49 146 49c89 0 146 -49 146 -132v-285h-47c0 17 -2 32 -2 49c-20 -26 -64 -55 -127 -55zM556 230v75h-116c-69 0 -98 -30 -98 -73v-12
c0 -57 48 -80 91 -80c57 0 123 37 123 90zM884 306c0 -247 -182 -430 -429 -430s-429 183 -429 430s182 430 429 430s429 -183 429 -430zM848 306c0 226 -167 394 -393 394s-393 -168 -393 -394s167 -394 393 -394s393 168 393 394z" />
    <glyph glyph-name="uni24D1" unicode="&#x24d1;" vert-adv-y="1105" 
d="M362 82h-1v-48h-47v567h46v-219c27 42 67 68 125 68c97 0 162 -64 162 -174v-74c0 -109 -69 -174 -162 -174c-63 0 -101 27 -123 54zM599 210v58c0 91 -51 138 -116 138c-55 0 -121 -40 -121 -114v-124c0 -49 50 -99 121 -99c70 0 116 52 116 141zM884 306
c0 -247 -182 -430 -429 -430s-429 183 -429 430s182 430 429 430s429 -183 429 -430zM848 306c0 226 -167 394 -393 394s-393 -168 -393 -394s167 -394 393 -394s393 168 393 394z" />
    <glyph glyph-name="uni24D2" unicode="&#x24d2;" vert-adv-y="1105" 
d="M458 516c55 0 98 -14 133 -41l-23 -36c-36 26 -72 33 -110 33c-75 0 -120 -54 -120 -139v-52c0 -91 42 -144 121 -144c56 0 90 18 121 40l21 -37c-29 -22 -69 -47 -141 -47c-105 0 -171 68 -171 187v50c0 119 70 186 169 186zM884 306c0 -247 -182 -430 -429 -430
s-429 183 -429 430s182 430 429 430s429 -183 429 -430zM848 306c0 226 -167 394 -393 394s-393 -168 -393 -394s167 -394 393 -394s393 168 393 394z" />
    <glyph glyph-name="uni24D3" unicode="&#x24d3;" vert-adv-y="1105" 
d="M555 42v53c-23 -37 -76 -59 -123 -59c-97 0 -163 63 -163 175v71c0 112 69 176 162 176c59 0 102 -26 125 -61v212h46v-567h-47zM317 276v-58c0 -88 47 -141 116 -141c67 0 121 34 121 107v131c0 49 -55 102 -121 102c-70 0 -116 -51 -116 -141zM884 306
c0 -247 -182 -430 -429 -430s-429 183 -429 430s182 430 429 430s429 -183 429 -430zM848 306c0 226 -167 394 -393 394s-393 -168 -393 -394s167 -394 393 -394s393 168 393 394z" />
    <glyph glyph-name="uni24D4" unicode="&#x24d4;" vert-adv-y="1105" 
d="M338 333h231v9c0 89 -45 135 -115 135c-64 0 -116 -50 -116 -134v-10zM587 178c6 -13 14 -25 20 -38c-32 -21 -77 -44 -146 -44c-110 0 -171 72 -171 187v53c0 113 60 182 164 182c107 0 164 -72 164 -187v-39h-280v-8c1 -93 47 -147 124 -147c55 0 98 20 125 41z
M884 306c0 -247 -182 -430 -429 -430s-429 183 -429 430s182 430 429 430s429 -183 429 -430zM848 306c0 226 -167 394 -393 394s-393 -168 -393 -394s167 -394 393 -394s393 168 393 394z" />
    <glyph glyph-name="uni24D5" unicode="&#x24d5;" vert-adv-y="1105" 
d="M409 18v362h-70v41h70v53c0 90 34 116 103 116c17 0 50 -5 65 -11l-6 -38c-19 7 -37 8 -58 8c-37 0 -58 -12 -58 -77v-51h114v-41h-114v-362h-46zM884 306c0 -247 -182 -430 -429 -430s-429 183 -429 430s182 430 429 430s429 -183 429 -430zM848 306
c0 226 -167 394 -393 394s-393 -168 -393 -394s167 -394 393 -394s393 168 393 394z" />
    <glyph glyph-name="uni24D6" unicode="&#x24d6;" vert-adv-y="1105" 
d="M568 176v54c-23 -41 -76 -61 -122 -61c-91 0 -163 64 -163 175v62c0 112 69 176 162 176c59 0 103 -26 125 -61v52h46v-400c0 -112 -67 -173 -168 -173c-58 0 -100 15 -132 44l21 34c34 -23 67 -33 115 -33c75 0 116 42 116 131zM329 400v-51c0 -88 47 -138 118 -138
c67 0 122 34 122 107v120c0 49 -56 104 -122 104c-72 0 -118 -52 -118 -142zM884 306c0 -247 -182 -430 -429 -430s-429 183 -429 430s182 430 429 430s429 -183 429 -430zM848 306c0 226 -167 394 -393 394s-393 -168 -393 -394s167 -394 393 -394s393 168 393 394z" />
    <glyph glyph-name="uni24D7" unicode="&#x24d7;" vert-adv-y="1105" 
d="M485 445c96 0 148 -59 148 -139v-277h-47v263c0 57 -22 110 -106 110c-73 0 -122 -61 -122 -104v-269h-46v567h46v-217c20 33 61 66 127 66zM884 306c0 -247 -182 -430 -429 -430s-429 183 -429 430s182 430 429 430s429 -183 429 -430zM848 306c0 226 -167 394 -393 394
s-393 -168 -393 -394s167 -394 393 -394s393 168 393 394z" />
    <glyph glyph-name="uni24D8" unicode="&#x24d8;" vert-adv-y="1105" 
d="M430 30v408h46v-408h-46zM426 520v53h52v-53h-52zM884 306c0 -247 -182 -430 -429 -430s-429 183 -429 430s182 430 429 430s429 -183 429 -430zM848 306c0 226 -167 394 -393 394s-393 -168 -393 -394s167 -394 393 -394s393 168 393 394z" />
    </font>
</defs>
</svg>
